SplineFontDB: 3.0
FontName: LinBiolinumOSl
FullName: Linux Biolinum O Slanted
FamilyName: Linux Biolinum O
Weight: Book
Copyright: Linux Libertine by Philipp H. Poll, Open Font under Terms of following Free Software Licenses:\nGPL (General Public License) with font-exception and OFL (Open Font License).\nCreated with FontForge (http://fontforge.sf.net) Sept 2003, 2004, 2005, 2006, 2007, 2008
UComments: "2003-08-29: Created.+AAoA-2004-07-25: v(1.0) release candidate+AAoA-2005-12-28: v(1.1.0) stable+AAoA-2006-01-01: v(2.0.0) stable+AAoA-2006-09-05: v(2.2.0) stable+AAoA-2006-12-04: v(2.3.0) stable+AAoA-2007-03-11: v(2.4.0) stable+AAoA-2007-12-00: v(2.7.0) stable+AAoA-2008-06-00: v(2.8.14) stable+AAoA" 
Version: 0.4.4
ItalicAngle: 0
UnderlinePosition: -98
UnderlineWidth: 40
Ascent: 754
Descent: 246
LayerCount: 2
Layer: 0 0 "Back"  1
Layer: 1 0 "Fore"  0
XUID: [1021 993 1524925707 2876416]
FSType: 0
OS2Version: 0
OS2_WeightWidthSlopeOnly: 0
OS2_UseTypoMetrics: 0
CreationTime: 1156455862
ModificationTime: 1249509094
PfmFamily: 17
TTFWeight: 400
TTFWidth: 5
LineGap: 0
VLineGap: 0
OS2TypoAscent: 894
OS2TypoAOffset: 0
OS2TypoDescent: -246
OS2TypoDOffset: 0
OS2TypoLinegap: 0
OS2WinAscent: 894
OS2WinAOffset: 0
OS2WinDescent: 246
OS2WinDOffset: 0
HheadAscent: 894
HheadAOffset: 0
HheadDescent: -246
HheadDOffset: 0
OS2FamilyClass: 261
OS2Vendor: 'PfEd'
Lookup: 3 0 0 "'aalt' Alle Alternativen zeigen"  {"'aalt' Alle Alternativen zeigen 1"  } ['aalt' ('DFLT' <'dflt' > 'cyrl' <'dflt' > 'grek' <'dflt' > 'latn' <'AZE ' 'CRT ' 'DEU ' 'MOL ' 'ROM ' 'TRK ' 'dflt' > ) ]
Lookup: 1 0 0 "'locl' Localized Forms Romaenisch"  {"'locl' Localized Forms Romaenisch 1"  } ['locl' ('latn' <'MOL ' 'ROM ' > ) ]
Lookup: 1 0 0 "'smcp' Gemeine nach Kapitaelchen i > i.sc"  {"'smcp' Gemeine nach Kapitaelchen i > i.sc 1"  } ['smcp' ('DFLT' <'dflt' > 'cyrl' <'dflt' > 'grek' <'dflt' > 'latn' <'DEU ' 'MOL ' 'ROM ' 'dflt' > ) ]

StartChar: exclam
Encoding: 33 33 0
Width: 228
VWidth: 999
Flags: W
HStem: -10 112<93.2029 155.087> 638 20G<241.862 266.362>
VStem: 142.149 29.4873<190.482 260.216>
DStem2: 67.2031 48 179.203 48 0.211368 0.977407<-23.9395 41.049 409.106 615.177>
LayerCount: 2
Fore
SplineSet
66.3525 44 m 1
 67.2031 48 l 1
 82.0859 74.5 99.8271 89.75 132.681 102 c 1
 136.681 102 l 1
 163.449 91.5 175.957 76.25 179.203 48 c 1
 178.353 44 l 1
 161.247 11.75 142.612 -3 112.874 -10 c 1
 108.874 -10 l 1
 79.1123 -3 67.9814 10.5 66.3525 44 c 1
252.862 658 m 0
 279.862 658 303.974 635 293.346 585 c 0
 279.529 520 254.602 478 226.322 392 c 0
 190.366 284 176.612 224 171.637 210 c 0
 168.299 199 163.386 190 153.386 190 c 0
 142.386 190 141.874 197 142.149 203 c 0
 144.612 224 158.743 314 167.322 392 c 0
 177.027 480 168.467 515 183.346 585 c 0
 194.823 639 230.862 658 252.862 658 c 0
EndSplineSet
Colour: ff80cc
EndChar

StartChar: quotedbl
Encoding: 34 34 1
Width: 336
VWidth: 999
Flags: W
HStem: 426 218
VStem: 179.549 27.8506<430 462.17> 189.259 89.6133<554.435 627.25> 305.762 27.8506<431 463.17> 315.471 89.6143<555.435 628.25>
LayerCount: 2
Fore
SplineSet
179.549 426 m 1xc0
 179.549 426 187.346 585 189.259 594 c 0
 193.935 616 220.887 644 250.887 644 c 0
 276.887 644 282.273 627 278.872 611 c 0xa0
 275.471 595 207.399 430 207.399 430 c 1
 179.549 426 l 1xc0
305.762 427 m 1x90
 305.762 427 313.559 586 315.471 595 c 0
 320.147 617 347.099 645 377.099 645 c 0
 403.099 645 408.485 628 405.085 612 c 0x88
 401.684 596 333.612 431 333.612 431 c 1
 305.762 427 l 1x90
EndSplineSet
Colour: ff00ff
EndChar

StartChar: numbersign
Encoding: 35 35 2
Width: 440
VWidth: 487
Flags: W
HStem: 183 48<81.1006 153.897 205.101 296.897 348.101 420.897> 341 49<140.897 212.481 263.897 356.481 406.897 479.481>
DStem2: 90.7637 13 123.764 13 0.349836 0.936811<11.5446 181.344 244.224 349.855 413.746 583.546> 234.764 13 267.764 13 0.346824 0.93793<11.4452 180.998 243.777 349.856 413.3 583.199>
LayerCount: 2
Fore
SplineSet
389.481 341 m 1
 348.101 231 l 1
 438.101 231 l 1
 420.897 183 l 1
 331.897 183 l 1
 267.764 13 l 1
 234.764 13 l 1
 296.897 183 l 1
 187.897 183 l 1
 123.764 13 l 1
 90.7637 13 l 1
 153.897 183 l 1
 63.8975 183 l 1
 81.1006 231 l 1
 172.101 231 l 1
 212.481 341 l 1
 122.481 341 l 1
 140.897 390 l 1
 230.897 390 l 1
 294.031 560 l 1
 328.031 560 l 1
 263.897 390 l 1
 374.897 390 l 1
 437.031 560 l 1
 470.031 560 l 1
 406.897 390 l 1
 497.897 390 l 1
 479.481 341 l 1
 389.481 341 l 1
316.101 231 m 1
 356.481 341 l 1
 246.481 341 l 1
 205.101 231 l 1
 316.101 231 l 1
EndSplineSet
EndChar

StartChar: dollar
Encoding: 36 36 3
Width: 440
VWidth: 999
Flags: W
HStem: -10 38<135.798 275.362> 537 35<258.278 378.882>
VStem: 424.8 43.8555<483.94 496.704>
LayerCount: 2
Back
SplineSet
92 12 m 0
 76 12 79 1 58 1 c 1x6e
 58 38 50 90 42 146 c 1
 68 149 l 1
 85 83 136 23 214 23 c 0
 251 23 328 42 328 127 c 0xb6
 328 229 237 247 203 262 c 0
 144 288 46 333 46 434 c 0
 46 528 147 572 215 572 c 0
 272 572 307 564 348 564 c 1
 351 519 360 470 368 421 c 1
 342 417 l 1xad
 337 435 l 2
 315 507 281 542 215 542 c 0
 161 542 110 504 110 438 c 0
 110 379 188 344 225 330 c 0
 279 310 400 262 400 156 c 0
 400 122 391 -10 214 -10 c 0xae
 149 -10 113 12 92 12 c 0
46.875 578.125 m 25
 347.168 578.125 l 25
0 572.012 m 1
 438.965 572.012 l 1
 438.965 0 l 1
 0 0 l 1
 0 572.012 l 1
EndSplineSet
Fore
SplineSet
204.951 28 m 0
 263.951 28 328.966 61 343.845 131 c 0
 360.212 208 315.888 230 267.352 251 c 0
 194.941 282 115.868 324 136.699 422 c 0
 156.254 514 257.582 572 333.582 572 c 0
 439.582 572 467.293 533 467.293 533 c 1
 468.655 530 l 1
 455.129 504 443.602 478 434.013 447 c 1
 424.8 446 l 1
 412.278 500 381.143 537 318.143 537 c 0
 261.143 537 216.854 498 205.588 445 c 0
 190.283 373 262.907 343 296.931 329 c 0
 364.404 303 445.902 263 424.435 162 c 0
 405.517 73 288.874 -10 188.874 -10 c 0
 82.874 -10 40.377 30 40.377 30 c 1
 39.0146 33 l 1
 51.541 59 64.4922 87 75.082 118 c 1
 83.2939 119 l 1
 96.8164 65 141.951 28 204.951 28 c 0
180.783 -81 m 1
 331.273 627 l 1
 365.273 627 l 1
 214.783 -81 l 1
 180.783 -81 l 1
EndSplineSet
EndChar

StartChar: percent
Encoding: 37 37 4
Width: 637
VWidth: 999
Flags: W
HStem: -12 29<454.086 519.531> 225 31<532.396 599.145> 303 29<199.133 262.986> 484 37<387.995 572.321> 540 31<277.724 344.8>
DStem2: 102.638 3 133.449 -12 0.682124 0.731237<10.0487 682.996 722.277 782.236>
LayerCount: 2
Back
SplineSet
357.494 492.437 m 4
 360.602 492.437 361.489 492.881 362.821 492.881 c 4
 390.786 491.548 465.804 496.875 506.641 541.265 c 5
 524.399 518.628 l 5
 479.121 468.911 424.078 466.691 364.597 461.809 c 6
 357.494 461.365 l 6
 320.207 461.365 264.721 487.998 248.74 499.985 c 5
 263.39 521.733 l 5
 263.39 521.733 309.11 492.437 357.494 492.437 c 4
460.921 37.0049 m 4
 474.238 31.6777 487.999 35.2285 503.979 45.8828 c 4
 523.511 57.8672 534.609 80.5059 543.931 106.252 c 4
 553.252 130.666 558.135 156.411 555.913 179.05 c 4
 553.696 199.469 545.703 213.674 528.394 220.775 c 4
 527.949 221.22 l 4
 510.64 227.878 493.77 219.443 481.34 208.347 c 4
 464.028 193.254 454.263 175.942 445.385 153.748 c 4
 434.288 126.67 429.849 100.925 433.844 76.9551 c 4
 437.395 56.5352 445.829 43.2188 460.921 37.0049 c 4
579.438 200.801 m 4
 589.204 172.836 582.993 134.66 570.117 98.2617 c 4
 557.246 64.082 535.493 34.3408 510.64 20.1367 c 4
 481.784 3.71289 454.263 6.37598 433.844 16.1416 c 4
 412.537 26.7949 402.327 40.1123 392.118 68.9648 c 4
 383.24 93.8223 382.796 129.777 397.001 163.514 c 4
 410.762 198.137 432.068 224.326 461.809 240.751 c 4
 485.779 253.18 511.968 256.287 540.376 245.189 c 4
 566.567 234.536 570.117 228.766 579.438 200.801 c 4
546.592 542.153 m 5
 166.621 12.1465 l 5
 126.227 12.1465 l 5
 507.085 542.153 l 5
 546.592 542.153 l 5
168.396 323.759 m 4
 181.713 317.988 195.474 321.982 211.454 332.192 c 4
 230.985 344.621 242.083 366.816 251.848 393.006 c 4
 260.726 416.977 265.608 443.166 263.39 465.805 c 4
 261.17 486.223 253.18 500.43 235.868 507.529 c 4
 235.424 507.529 l 4
 218.112 514.189 201.244 505.757 188.815 495.103 c 4
 171.504 479.564 161.738 462.697 152.86 440.059 c 4
 141.763 412.98 137.324 387.68 141.318 363.266 c 4
 144.87 343.29 153.305 329.529 168.396 323.759 c 4
286.916 487.111 m 4
 296.682 459.146 290.467 420.971 277.594 384.572 c 4
 264.721 350.393 243.414 321.096 218.112 306.447 c 4
 189.259 290.023 161.738 293.13 141.763 302.451 c 4
 120.013 313.105 109.803 326.865 99.5928 355.275 c 4
 90.7158 380.133 90.7158 416.088 104.476 450.268 c 4
 118.236 484.892 139.544 510.64 169.284 527.061 c 4
 193.255 539.937 219.443 543.042 247.853 531.943 c 4
 274.043 520.845 277.594 515.078 286.916 487.111 c 4
EndSplineSet
Fore
SplineSet
194.598 398 m 0
 183.545 346 207.568 332 225.568 332 c 0
 280.568 332 335.486 421 347.814 479 c 0
 358.442 529 333.78 540 315.78 540 c 0
 266.78 540 206.926 456 194.598 398 c 0
474.742 521 m 0
 516.742 521 596.293 533 636.22 575 c 1
 664.819 559 l 1
 133.449 -12 l 1
 102.638 3 l 1
 567.916 503 l 1
 526.728 488 486.877 484 456.877 484 c 0
 433.877 484 398.003 494 381.341 505 c 1
 381.854 498 380.94 489 379.027 480 c 0
 365.424 416 297.404 303 213.404 303 c 0
 151.404 303 135.733 361 146.573 412 c 0
 162.94 489 239.37 571 311.37 571 c 0
 339.37 571 365.606 558 373.056 546 c 1
 421.742 521 456.742 521 474.742 521 c 0
400.83 98 m 0
 416.772 173 492.414 256 566.414 256 c 0
 606.414 256 648.589 238 633.072 165 c 0
 618.83 98 551.449 -12 468.449 -12 c 0
 407.449 -12 389.565 45 400.83 98 c 0
449.643 83 m 0
 438.589 31 461.613 17 480.613 17 c 0
 535.613 17 590.956 108 602.859 164 c 0
 613.912 216 584.825 225 570.825 225 c 0
 521.825 225 461.971 141 449.643 83 c 0
EndSplineSet
EndChar

StartChar: parenleft
Encoding: 40 40 5
Width: 300
VWidth: 999
Flags: W
LayerCount: 2
Back
SplineSet
101.562 -0.488281 m 4
 64.4531 81.0547 43.9453 164.551 43.9453 251.953 c 4
 43.9453 342.773 62.9883 424.805 102.051 503.418 c 4
 124.023 548.828 168.945 632.324 256.348 707.031 c 5
 273.926 689.453 l 5
 203.613 610.352 173.828 533.203 160.156 491.699 c 4
 134.277 416.504 121.582 337.891 121.582 251.953 c 4
 121.582 166.504 133.789 85.9375 160.156 10.7422 c 4
 174.316 -31.7383 203.613 -108.398 273.926 -187.012 c 5
 256.348 -203.613 l 5
 188.477 -145.02 138.184 -79.5898 101.562 -0.488281 c 4
EndSplineSet
Fore
SplineSet
97.5645 252 m 0
 137.1 438 265.597 605 406.277 707 c 1
 425.451 689 l 1
 385.8 653 236.467 515 180.564 252 c 0
 124.662 -11 214.329 -149 239.252 -187 c 1
 212.639 -204 l 1
 42.8984 -24 87.999 207 97.5645 252 c 0
EndSplineSet
Substitution2: "'c2sc' Versale nach Kapitaelchen 1" parenleft.sc
AlternateSubs2: "'aalt' Alle Alternativen zeigen 1" parenleft.sc
Substitution2: "'sinf' Wissenschaftliche Indices 1" parenleft.inferior
Substitution2: "'sups' Hochgestellte 1" parenleft.superior
Substitution2: "'case' Versalformen 1" parenleft.sc
EndChar

StartChar: parenright
Encoding: 41 41 6
Width: 300
VWidth: 999
Flags: W
LayerCount: 2
Fore
SplineSet
309.564 252 m 0
 270.028 66 141.532 -101 0.850586 -203 c 1
 -18.3232 -185 l 1
 21.3291 -149 170.662 -11 226.564 252 c 0
 282.467 515 192.8 653 167.877 691 c 1
 194.49 708 l 1
 364.229 528 319.129 297 309.564 252 c 0
EndSplineSet
Substitution2: "'c2sc' Versale nach Kapitaelchen 1" parenright.sc
AlternateSubs2: "'aalt' Alle Alternativen zeigen 1" parenright.sc
Substitution2: "'sinf' Wissenschaftliche Indices 1" parenright.inferior
Substitution2: "'sups' Hochgestellte 1" parenright.superior
Substitution2: "'case' Versalformen 1" parenright.sc
Colour: ff00ff
EndChar

StartChar: asterisk
Encoding: 42 42 7
Width: 433
VWidth: 999
Flags: HMW
LayerCount: 2
Back
SplineSet
155.273 557.129 m 4
 123.535 558.105 102.051 560.547 92.2852 566.406 c 4
 82.0312 572.266 76.6602 580.078 75.1953 588.867 c 4
 74.707 591.309 74.707 592.773 74.707 594.727 c 4
 74.707 600.586 76.1719 605.957 79.5898 610.84 c 4
 84.9609 619.141 91.7969 622.07 99.1211 623.535 c 4
 102.539 624.512 104.98 624.512 107.91 624.512 c 4
 114.258 624.512 119.629 623.535 125 621.582 c 4
 135.254 618.164 149.902 607.91 167.969 594.238 c 4
 180.176 584.473 192.383 578.125 204.102 573.242 c 5
 202.637 587.891 199.219 601.562 194.824 613.77 c 4
 186.035 637.207 181.641 653.32 181.152 663.086 c 4
 181.152 663.086 181.152 664.062 181.152 664.551 c 4
 181.152 673.828 183.105 681.641 187.012 688.477 c 4
 191.406 696.289 197.266 700.684 205.078 703.125 c 4
 208.496 704.102 210.938 704.59 213.867 704.102 c 4
 219.238 704.102 223.145 703.125 227.539 700.684 c 4
 236.816 695.312 241.699 687.012 243.652 677.734 c 4
 244.141 674.805 244.141 672.363 244.141 669.434 c 4
 244.141 656.25 239.746 637.207 233.398 614.746 c 4
 229.004 598.633 225.586 584.473 224.609 572.754 c 5
 238.281 578.613 250 585.449 260.742 593.75 c 4
 280.273 608.887 294.434 618.164 303.223 621.094 c 4
 309.57 623.535 314.941 624.023 320.312 624.023 c 4
 323.73 624.023 326.172 624.023 329.102 623.047 c 4
 338.379 621.582 344.238 617.188 348.633 610.352 c 4
 352.051 604.98 353.516 600.098 353.516 594.238 c 4
 353.516 591.797 353.516 590.332 353.027 588.379 c 4
 351.074 578.613 345.215 571.289 335.938 565.918 c 4
 324.707 559.57 300.781 557.617 272.949 557.129 c 4
 256.348 556.641 242.188 555.176 230.469 553.223 c 5
 240.723 541.992 251.465 533.203 262.207 526.367 c 4
 282.715 513.184 296.387 502.93 302.246 495.605 c 4
 308.594 487.793 312.012 479.98 312.988 471.68 c 4
 313.477 469.727 313.477 468.262 313.477 466.797 c 4
 313.477 459.473 311.523 454.102 307.617 449.219 c 4
 302.734 442.383 296.387 438.477 288.574 437.5 c 4
 286.621 437.012 285.645 437.012 284.18 437.012 c 4
 274.902 437.012 267.578 440.918 261.719 446.289 c 4
 251.953 454.59 241.699 475.586 231.934 501.953 c 4
 225.586 518.555 219.727 531.25 213.379 541.504 c 5
 207.031 530.273 201.172 517.578 195.312 501.953 c 4
 184.082 472.656 174.316 453.125 165.527 446.289 c 4
 158.203 439.941 150.879 437.012 143.066 437.012 c 4
 141.113 437.012 140.137 437.012 138.672 437.5 c 4
 129.395 438.965 124.023 442.871 119.141 449.219 c 4
 115.234 455.078 113.281 460.449 113.77 466.797 c 4
 113.77 468.75 113.77 470.215 113.77 471.68 c 4
 115.234 480.469 119.141 488.281 124.512 495.605 c 4
 131.348 503.906 146.484 514.648 165.039 526.367 c 4
 178.711 534.668 189.453 543.945 198.242 553.711 c 5
 185.059 556.152 170.41 557.129 155.273 557.129 c 4
EndSplineSet
Fore
SplineSet
318.52 567 m 1
 306.157 570 292.37 571 277.37 571 c 0
 228.37 571 197.857 578 204.234 608 c 0
 207.21 622 219.611 638 243.611 638 c 0
 277.611 638 288.597 605 328.771 587 c 1
 333.061 626 319.8 653 325.326 679 c 0
 329.79 700 345.615 718 363.615 718 c 0
 381.615 718 394.277 707 389.176 683 c 0
 383.438 656 357.935 616 349.559 586 c 1
 399.81 606 422.611 638 455.611 638 c 0
 482.611 638 485.36 618 483.234 608 c 0
 476.857 578 440.37 571 406.37 571 c 0
 387.37 571 369.157 570 350.52 567 c 1
 376.655 530 423.529 520 415.027 480 c 0
 411.201 462 393.863 451 379.863 451 c 0
 340.863 451 347.679 516 330.969 555 c 1
 296.404 510 276.863 451 238.863 451 c 0
 221.863 451 212.626 464 215.814 479 c 0
 224.954 522 277.655 530 318.52 567 c 1
EndSplineSet
EndChar

StartChar: plus
Encoding: 43 43 8
Width: 527
VWidth: 999
Flags: HMW
HStem: 208 49<66 238 289 461>
VStem: 238 51<34 208 257 431>
LayerCount: 2
Back
SplineSet
-58 257 m 29
 565 257 l 29
0 572 m 5
 527 572 l 5
 527 0 l 5
 0 0 l 5
 0 572 l 5
EndSplineSet
Fore
SplineSet
343.627 257 m 1
 515.627 257 l 1
 505.212 208 l 1
 333.212 208 l 1
 296.227 34 l 1
 245.227 34 l 1
 282.212 208 l 1
 110.212 208 l 1
 120.627 257 l 1
 292.627 257 l 1
 329.612 431 l 1
 380.612 431 l 1
 343.627 257 l 1
EndSplineSet
AlternateSubs2: "'aalt' Alle Alternativen zeigen 1" plus.superior plus.inferior uni2098
Substitution2: "'sinf' Wissenschaftliche Indices 1" plus.inferior
Substitution2: "'sups' Hochgestellte 1" plus.superior
EndChar

StartChar: slash
Encoding: 47 47 9
Width: 323
VWidth: 999
Flags: HW
HStem: 626 20G<245.277 293>
VStem: 15 278
DStem2: 15 -59 56 -59 0.318647 0.947874<13.0645 743.77>
LayerCount: 2
Back
SplineSet
267.97 661.299 m 1
 50.0186 17.6553 l 1
 14.5068 17.6553 l 1
 232.458 661.299 l 1
 267.97 661.299 l 1
EndSplineSet
Fore
SplineSet
430.312 646 m 1
 43.459 -59 l 1
 2.45898 -59 l 1
 389.312 646 l 1
 430.312 646 l 1
EndSplineSet
Ligature2: "'frac' Brueche 1" uni2215
AlternateSubs2: "'aalt' Alle Alternativen zeigen 1" uni2215
EndChar

StartChar: one
Encoding: 49 49 10
Width: 440
VWidth: 999
Flags: HW
HStem: -3 21G<230 277 277 323> 476 31<117.548 168.818> 558 20G<285 317.75>
VStem: 238 77<2.61911 480.813>
LayerCount: 2
Back
SplineSet
46.875 578.125 m 25
 347.168 578.125 l 25
0 572.012 m 1
 438.965 572.012 l 1
 438.965 0 l 1
 0 0 l 1
 0 572.012 l 1
EndSplineSet
Fore
SplineSet
353.048 179 m 6
 337.056 103.766 327.903 56 323 0 c 5
 320.362 -3 l 5
 320.362 -3 295.248 0 277 0 c 7
 259.883 0 230.362 -3 230.362 -3 c 5
 230 0 l 5
 247.479 54 260.318 105 276.048 179 c 6
 325.148 410 l 6
 332.375 444 339.952 482 323.452 482 c 7
 304.452 482 262.027 480 219.177 476 c 5
 223.767 507 l 5
 316.018 527 372.606 558 438.857 578 c 5
 442.357 578 444.805 577.75 443.795 573 c 5
 439.364 560 425.742 521 404.062 419 c 6
 353.048 179 l 6
EndSplineSet
AlternateSubs2: "'aalt' Alle Alternativen zeigen 1" one.oldstyle one.superior one.fitted
Substitution2: "'sups' Hochgestellte 1" one.superior
Substitution2: "'sinf' Wissenschaftliche Indices 1" one.inferior
Substitution2: "'pnum' Proportionalziffern 1" one.fitted
Substitution2: "'onum' Minuskelziffern 1" one.taboldstyle
EndChar

StartChar: two
Encoding: 50 50 11
Width: 440
VWidth: 487
Flags: HW
HStem: -4 79<145 388.969> 537 41<139.822 261.852>
VStem: 304 86<342.923 495.896>
DStem2: 158 194 209 176 0.718358 0.695673<-79.712 211.062>
LayerCount: 2
Back
SplineSet
46.875 578.125 m 25
 347.168 578.125 l 25
0 572.012 m 1
 438.965 572.012 l 5
 438.965 0 l 1
 0 0 l 1
 0 572.012 l 1
EndSplineSet
Fore
SplineSet
319.143 537 m 3
 273.143 537 225.829 512 182.926 456 c 1
 170.139 457 l 1
 163.954 522 l 1
 167.805 526 l 1
 196.269 547 267.857 578 335.857 578 c 3
 448.857 578 502.867 531 481.187 429 c 0
 465.883 357 426.019 320 360.965 268 c 2
 246.41 176 l 2
 199.38 138.23 164.13 90 160.941 75 c 1
 248.941 75 l 2
 343.941 75 355.792 79 411.643 83 c 1
 406.092 71 398.14 43 395.589 31 c 0
 393.039 19 392.7 8 393.149 -4 c 1
 322.787 -1 315 0 244 0 c 3
 172 0 123.575 -2 47.1494 -4 c 25
 47 0 l 17
 58.9033 56 86.043 99 199.236 194 c 2
 283.902 263 l 2
 352.019 320 378.39 349.975 395.399 430 c 0
 412.191 509 353.143 537 319.143 537 c 3
EndSplineSet
AlternateSubs2: "'aalt' Alle Alternativen zeigen 1" two.oldstyle two.superior two.fitted
Substitution2: "'sups' Hochgestellte 1" two.superior
Substitution2: "'sinf' Wissenschaftliche Indices 1" two.inferior
Substitution2: "'pnum' Proportionalziffern 1" two.fitted
Substitution2: "'onum' Minuskelziffern 1" two.taboldstyle
EndChar

StartChar: three
Encoding: 51 51 12
Width: 440
VWidth: 487
Flags: HW
HStem: -10 39<118.252 250.357> 287 33<145 181.572> 539 39<141.07 253.816>
VStem: 289 81<371.344 504.643> 306 88<86.5251 235.281>
LayerCount: 2
Back
SplineSet
46.875 578.125 m 29
 347.168 578.125 l 29
0 572.012 m 1
 438.965 572.012 l 1
 438.965 0 l 1
 0 0 l 1
 0 572.012 l 1
EndSplineSet
Fore
SplineSet
189.164 29 m 3xe8
 118.102 29 113.241 67 94.1445 123 c 1
 80.9316 122 l 1
 44.9902 47 l 1
 47.1396 43 l 1
 66.6758 22 106.874 -10 178.874 -10 c 3
 277.874 -10 403.858 46.3809 430.348 171 c 0xe8
 446.302 246.06 408.192 302 339.68 309 c 1
 340.317 312 l 1
 406.144 330 450.295 377.76 467.139 457 c 0
 481.207 523.189 415.958 578 335.857 578 c 3
 263.857 578 198.056 546 169.592 525 c 1
 165.742 521 l 1
 169.8 446 l 1
 182.588 445 l 1
 225.491 501 251.56 539 318.568 539 c 3
 355.689 539 396.13 504.008 382.95 442 c 0xf0
 367.008 367 306.081 325 213.019 320 c 1
 206.004 287 l 1
 217.429 289 234.429 289 243.429 289 c 3
 297.429 289 358.289 246 341.71 168 c 0
 315.345 43.9639 222.164 29 189.164 29 c 3xe8
EndSplineSet
AlternateSubs2: "'aalt' Alle Alternativen zeigen 1" three.oldstyle three.superior three.fitted
Substitution2: "'sups' Hochgestellte 1" three.superior
Substitution2: "'sinf' Wissenschaftliche Indices 1" three.inferior
Substitution2: "'pnum' Proportionalziffern 1" three.fitted
Substitution2: "'onum' Minuskelziffern 1" three.taboldstyle
EndChar

StartChar: four
Encoding: 52 52 13
Width: 440
VWidth: 487
Flags: HMW
HStem: -3 21G<259 307 341.5 346.5> 140 52<96 266 343 415.957> 552 20G<274 307 341.39 346.5>
VStem: 266 77<2.22899 140 192 485>
DStem2: 50 196 96 192 0.501851 0.864954<19.6253 358.372>
LayerCount: 2
Back
SplineSet
227 189 m 6
 -12 189 l 6
 -21 189 -26 196 -26 206 c 4
 -26 218 -22 224 -8 244 c 6
 313 692 l 6
 320 701 326 706 336 706 c 6
 353 706 l 6
 363 706 368 703 368 698 c 4
 368 695 366 691 363 687 c 6
 45 247 l 6
 33 231 47 231 73 231 c 6
 228 231 l 6
 252 231 256 234 256 257 c 6
 256 441 l 6
 256 448 257 456 265 461 c 4
 277 469 300 477 316 478 c 4
 330 479 330 467 330 447 c 6
 330 254 l 6
 330 235 333 231 350 231 c 6
 414 231 l 5
 423 224 423 198 414 189 c 5
 360 189 l 6
 335 189 330 188 330 167 c 6
 330 122 l 6
 330 43 332 30 373 25 c 6
 399 22 l 5
 405 16 404 0 397 -3 c 5
 361 -1 324 0 293 0 c 4
 257 0 212 -1 168 -3 c 5
 161 0 160 16 166 22 c 5
 211 25 l 6
 253 28 256 45 256 122 c 6
 256 164 l 6
 256 188 253 189 227 189 c 6
46.875 578.125 m 25
 347.168 578.125 l 25
-58.1055 256.836 m 25
 565.43 256.836 l 25
0 572.012 m 1
 438.965 572.012 l 1
 438.965 0 l 1
 0 0 l 1
 0 572.012 l 1
EndSplineSet
Fore
SplineSet
369.09 485 m 1
 136.811 192 l 1
 306.811 192 l 1
 369.09 485 l 1
295.758 140 m 1
 122.758 140 l 2
 88.7578 140 68.8203 145 71.7969 159 c 0
 73.9219 169 78.0479 179 91.6611 196 c 0
 159.135 280.258 320.152 490 394.944 569 c 1
 395.157 570 396.582 572 396.582 572 c 1
 396.582 572 412.944 569 427.944 569 c 3
 441.873 569 458.362 572 467.582 572 c 3
 468.582 572 469.157 570 468.944 569 c 24
 457.254 514 445.665 483 433.975 428 c 24
 414.419 336 403.366 284 383.811 192 c 1
 406.811 192 445.811 192 445.811 192 c 2
 455.811 192 457.686 182 455.772 173 c 0
 453.435 162 434.758 140 421.758 140 c 2
 421.758 140 406.758 140 372.758 140 c 1
 361.067 85 359.69 55 348 0 c 24
 347.787 -1 346.362 -3 345.362 -3 c 3
 336.362 -3 322 0 307 0 c 3
 291.867 0 259.362 -3 259.362 -3 c 1
 259 0 l 1
 274.203 48 280.189 66.8818 295.758 140 c 1
EndSplineSet
AlternateSubs2: "'aalt' Alle Alternativen zeigen 1" four.oldstyle four.superior four.fitted
Substitution2: "'sups' Hochgestellte 1" four.superior
Substitution2: "'sinf' Wissenschaftliche Indices 1" four.inferior
Substitution2: "'pnum' Proportionalziffern 1" four.fitted
Substitution2: "'onum' Minuskelziffern 1" four.taboldstyle
EndChar

StartChar: five
Encoding: 53 53 14
Width: 440
VWidth: 487
Flags: HMW
HStem: -10 39<128.252 250.808> 313 47<121.546 256.278> 505 63<139.884 352.798>
VStem: 301 82<91.5089 264.326>
DStem2: 67 290 121 345 0.112358 0.993668<60.7191 229.795>
LayerCount: 2
Back
SplineSet
46.875 578.125 m 25
 377.93 578.125 l 29
308.838 169.678 m 0
 308.838 273.438 245.117 323.242 188.477 323.242 c 0
 140.625 323.242 98.6328 311.523 74.2188 300.293 c 1
 106.445 572.754 l 1
 369.629 572.754 l 1
 355.469 514.648 l 1
 355.469 512.695 l 1
 142.09 512.695 l 1
 123.047 355.469 l 1
 140.625 365.234 170.898 370.117 212.891 370.117 c 0
 312.5 370.117 381.104 297.363 381.104 186.279 c 0
 381.104 54.9316 305.664 -9.27734 187.988 -9.27734 c 0
 130.859 -9.27734 47.8516 22.4609 47.8516 62.0117 c 0
 47.8516 81.0547 63.9648 93.75 82.0312 93.75 c 0
 102.051 93.75 114.258 79.1016 126.953 62.9883 c 0
 141.113 44.9219 157.715 24.9023 189.453 24.9023 c 0
 259.766 24.9023 308.838 75.1953 308.838 169.678 c 0
0 572.012 m 1
 438.965 572.012 l 1
 438.965 0 l 1
 0 0 l 1
 0 572.012 l 1
EndSplineSet
Fore
SplineSet
188.874 -10 m 3
 116.874 -10 76.6758 22 57.1396 43 c 1
 54.9902 47 l 1
 90.9316 122 l 1
 104.145 123 l 1
 123.241 67 128.102 29 199.164 29 c 3
 263.164 29 318.43 82 336.922 169 c 0
 358.815 272 320.53 313 258.53 313 c 3
 212.53 313 171.042 306 128.642 290 c 1
 220.795 573 l 1
 253.157 570 291.732 568 326.732 568 c 3
 376.732 568 429.582 572 484.857 578 c 1
 490.22 575 l 1
 461.404 510 l 1
 421.554 506 389.341 505 361.341 505 c 3
 316.341 505 283.191 509 249.042 513 c 1
 194.332 345 l 1
 217.032 353 254.521 360 293.521 360 c 3
 399.521 360 442.091 278 422.535 186 c 0
 398.729 74 301.874 -10 188.874 -10 c 3
EndSplineSet
AlternateSubs2: "'aalt' Alle Alternativen zeigen 1" five.oldstyle five.superior five.fitted
Substitution2: "'sups' Hochgestellte 1" five.superior
Substitution2: "'sinf' Wissenschaftliche Indices 1" five.inferior
Substitution2: "'pnum' Proportionalziffern 1" five.fitted
Substitution2: "'onum' Minuskelziffern 1" five.taboldstyle
EndChar

StartChar: six
Encoding: 54 54 15
Width: 440
VWidth: 487
Flags: HW
HStem: -10 34<186.729 285.73> 303 36<169.149 275.391> 552 26<309.619 376.808>
VStem: 44 80<101.897 306.795> 326 79<79.8432 254.373>
LayerCount: 2
Back
SplineSet
46.875 578.125 m 25
 406.25 578.125 l 25
0 572.012 m 1
 438.965 572.012 l 1
 438.965 0 l 1
 0 0 l 1
 0 572.012 l 1
375.977 561.035 m 1
 295.898 543.945 258.403 525.747 227.051 500.977 c 0
 197.85 477.906 176.758 453.125 154.297 405.762 c 0
 135.949 367.065 124.211 330.648 118.615 290.749 c 1
 141.601 318.168 194.727 339.844 232.422 339.844 c 0
 284.18 339.844 322.266 333.008 361.328 292.48 c 0
 386.23 266.113 402.344 213.867 402.344 177.246 c 0
 402.344 129.395 383.489 72.0898 354.492 43.9453 c 0
 321.289 11.7188 277.344 -2.44141 230.469 -2.44141 c 0
 184.567 -2.44141 148.438 10.7422 118.164 37.5977 c 0
 69.2656 80.9756 45.8984 131.836 45.8984 235.84 c 0
 45.8984 295.898 62.0117 358.398 85.4492 403.809 c 0
 110.84 452.637 146.6 491.05 192.871 524.414 c 0
 239.374 557.944 293.945 573.242 375.488 580.566 c 1
 375.977 561.035 l 1
115.692 262.137 m 1
 115.06 252.512 114.746 242.629 114.746 232.422 c 0
 114.746 164.062 128.018 107.486 149.414 78.125 c 0
 170.007 49.8672 205.078 26.8555 240.234 26.8555 c 0
 270.02 26.8555 293.457 41.9922 306.641 61.5234 c 0
 328.125 91.3086 334.961 131.51 334.961 169.434 c 0
 334.961 201.188 322.754 245.117 303.223 268.066 c 0
 280.762 294.434 251.465 307.129 215.332 307.129 c 0
 194.572 307.129 156.109 305.244 115.692 262.137 c 1
EndSplineSet
Fore
SplineSet
496.331 552 m 1
 430.056 546 370.442 529 312.452 482 c 0
 256.888 437 217.646 370 189.642 290 c 1
 218.593 318 270.057 339 308.057 339 c 3
 456.057 339 451.125 217 441.348 171 c 0
 426.894 103 366.874 -10 228.874 -10 c 3
 155.874 -10 50.5889 31 92.8877 230 c 0
 112.443 322 165.573 412 249.239 481 c 0
 327.056 546 399.795 573 498.857 578 c 1
 496.331 552 l 1
180.689 262 m 1
 177.564 252 174.376 237 172.25 227 c 0
 136.541 59 196.102 24 246.102 24 c 3
 292.102 24 338.753 60 360.859 164 c 0
 370.85 211 376.404 303 280.404 303 c 3
 259.404 303 225.767 300 180.689 262 c 1
EndSplineSet
AlternateSubs2: "'aalt' Alle Alternativen zeigen 1" six.oldstyle six.superior six.fitted
Substitution2: "'sups' Hochgestellte 1" six.superior
Substitution2: "'sinf' Wissenschaftliche Indices 1" six.inferior
Substitution2: "'pnum' Proportionalziffern 1" six.fitted
Substitution2: "'onum' Minuskelziffern 1" six.taboldstyle
EndChar

StartChar: seven
Encoding: 55 55 16
Width: 440
VWidth: 487
Flags: HMW
HStem: -12 21G<117 185> 503 65<98.1355 327.687>
LayerCount: 2
Back
SplineSet
164.062 522.432 m 2
 133.789 522.432 100.098 505.342 80.0781 433.075 c 1
 53.2227 436.005 l 1
 62.0117 484.833 67.3828 528.779 68.6035 573.701 c 1
 93.2617 573.701 l 1
 95.2148 567.842 104.441 561.523 120.361 561.523 c 2
46.875 578.125 m 25
 347.168 578.125 l 25
0 572.012 m 1
 438.965 572.012 l 1
 438.965 0 l 1
 0 0 l 1
 0 572.012 l 1
EndSplineSet
Fore
SplineSet
435.916 503 m 1
 380.916 503 308.703 502 165.003 494 c 1
 169.979 508 174.954 522 177.931 536 c 1
 180.906 550 181.031 560 182.008 574 c 1
 221.142 568.75 304.732 568 445.732 568 c 4
 474.732 568 494.008 574 508.857 578 c 1
 522.732 568 l 1
 361.893 310 271.309 152 183.087 -9 c 1
 117.449 -12 l 1
 115.725 -6 l 1
 208.907 136 323.23 321 435.916 503 c 1
EndSplineSet
AlternateSubs2: "'aalt' Alle Alternativen zeigen 1" seven.oldstyle seven.superior seven.fitted
Substitution2: "'sups' Hochgestellte 1" seven.superior
Substitution2: "'sinf' Wissenschaftliche Indices 1" seven.inferior
Substitution2: "'pnum' Proportionalziffern 1" seven.fitted
Substitution2: "'onum' Minuskelziffern 1" seven.taboldstyle
EndChar

StartChar: nine
Encoding: 57 57 17
Width: 440
VWidth: 487
Flags: HW
HStem: -10 26<59.1923 126.381> 229 36<160.609 266.852> 544 34<150.27 249.271>
VStem: 31 79<313.627 488.157> 312 80<261.205 466.103>
LayerCount: 2
Back
SplineSet
46.875 578.125 m 29
 347.168 578.125 l 29
0 572.012 m 1
 438.965 572.012 l 1
 438.965 0 l 1
 0 0 l 1
 0 572.012 l 1
EndSplineSet
Fore
SplineSet
60.4014 16 m 1
 126.676 22 186.29 39 244.28 86 c 0
 299.845 131 339.086 198 367.091 278 c 1
 338.139 250 286.676 229 248.676 229 c 3
 100.676 229 105.607 351 115.385 397 c 0
 129.839 465 189.857 578 327.857 578 c 3
 400.857 578 506.143 537 463.844 338 c 0
 444.289 246 391.159 156 307.492 87 c 0
 229.676 22 156.938 -5 57.874 -10 c 1
 60.4014 16 l 1
376.042 306 m 1
 379.168 316 382.356 331 384.481 341 c 0
 420.191 509 360.631 544 310.631 544 c 3
 264.631 544 217.979 508 195.873 404 c 0
 185.883 357 180.327 265 276.327 265 c 3
 297.327 265 330.965 268 376.042 306 c 1
EndSplineSet
AlternateSubs2: "'aalt' Alle Alternativen zeigen 1" nine.oldstyle nine.superior nine.fitted
Substitution2: "'sups' Hochgestellte 1" nine.superior
Substitution2: "'sinf' Wissenschaftliche Indices 1" nine.inferior
Substitution2: "'pnum' Proportionalziffern 1" nine.fitted
Substitution2: "'onum' Minuskelziffern 1" nine.taboldstyle
Colour: ff00ff
EndChar

StartChar: colon
Encoding: 58 58 18
Width: 220
VWidth: 999
Flags: HW
HStem: 39 112<80.3677 154.353> 302 112<80.3677 154.353>
VStem: 61 112<55.2811 131.461 318.281 394.461>
LayerCount: 2
Fore
SplineSet
80.7676 93 m 1
 81.6182 97 l 1
 96.501 123.5 114.242 138.75 147.096 151 c 1
 151.096 151 l 1
 177.864 140.5 190.373 125.25 193.618 97 c 1
 192.768 93 l 1
 175.663 60.75 157.027 46 127.29 39 c 1
 123.29 39 l 1
 93.5273 46 82.3975 59.5 80.7676 93 c 1
136.67 356 m 1
 137.521 360 l 1
 152.403 386.5 170.145 401.75 202.998 414 c 1
 206.998 414 l 1
 233.767 403.5 246.275 388.25 249.521 360 c 1
 248.67 356 l 1
 231.565 323.75 212.93 309 183.192 302 c 1
 179.192 302 l 1
 149.43 309 138.3 322.5 136.67 356 c 1
EndSplineSet
Colour: ff00ff
EndChar

StartChar: less
Encoding: 60 60 19
Width: 487
VWidth: 999
Flags: HW
HStem: 73 331
DStem2: 49 263 122 239 0.940425 0.34<60.4911 397.706> 122 239 49 215 0.939653 -0.34213<0 337.557>
LayerCount: 2
Fore
SplineSet
172.801 239 m 1
 465.145 123 l 1
 454.517 73 l 1
 94.6992 215 l 1
 104.902 263 l 1
 524.873 404 l 1
 514.245 354 l 1
 172.801 239 l 1
EndSplineSet
EndChar

StartChar: equal
Encoding: 61 61 20
Width: 527
VWidth: 999
Flags: HW
HStem: 144 49<66 461> 269 49<66 461>
LayerCount: 2
Back
SplineSet
-58 257 m 25
 565 257 l 25
0 572 m 1
 527 572 l 1
 527 0 l 1
 0 0 l 1
 0 572 l 1
EndSplineSet
Fore
SplineSet
502.023 193 m 1
 491.608 144 l 1
 96.6084 144 l 1
 107.023 193 l 1
 502.023 193 l 1
528.593 318 m 1
 518.178 269 l 1
 123.178 269 l 1
 133.593 318 l 1
 528.593 318 l 1
EndSplineSet
AlternateSubs2: "'aalt' Alle Alternativen zeigen 1" equal.superior
Substitution2: "'sinf' Wissenschaftliche Indices 1" equal.inferior
Substitution2: "'sups' Hochgestellte 1" equal.superior
EndChar

StartChar: greater
Encoding: 62 62 21
Width: 487
VWidth: 999
Flags: HW
HStem: 71 331
DStem2: 366 236 439 260 0.939653 -0.34213<-337.557 0> 439 212 366 236 0.940425 0.34<-397.706 -60.4911>
LayerCount: 2
Fore
SplineSet
416.163 236 m 1
 123.82 352 l 1
 134.447 402 l 1
 494.265 260 l 1
 484.062 212 l 1
 64.0918 71 l 1
 74.7197 121 l 1
 416.163 236 l 1
EndSplineSet
Colour: ff00ff
EndChar

StartChar: question
Encoding: 63 63 22
Width: 405
VWidth: 487
Flags: HW
HStem: -10 112<143.368 217.353> 619 40<136.736 250.119>
VStem: 124 112<6.28114 82.4613> 167 26<174.002 289.255> 294 75<434.552 577.274>
LayerCount: 2
Back
SplineSet
497.5 375.775 m 0
 511.406 395.306 532.124 412.618 559.648 427.71 c 0
 578.589 437.771 600.186 454.344 624.453 477.426 c 128
 647.236 498.73 658.491 522.847 658.188 549.78 c 0
 657.891 581.152 651.089 603.936 637.773 618.14 c 128
 616.763 640.034 594.414 650.986 570.742 650.986 c 0
 545.298 650.986 522.358 640.776 501.938 620.361 c 128
 485.662 603.789 475.896 585.293 472.644 564.873 c 1
 435.357 564.873 l 1
 435.357 615.918 l 1
 442.459 625.684 459.622 639.004 486.849 655.869 c 128
 508.154 669.487 537.451 676.289 574.741 676.289 c 0
 626.528 676.289 664.106 661.787 687.485 632.788 c 128
 706.431 609.116 715.898 581.597 715.898 550.225 c 0
 715.898 520.928 704.653 492.222 682.163 464.109 c 128
 662.93 440.139 633.335 416.465 593.384 393.086 c 0
 571.187 380.065 554.766 364.678 544.111 346.922 c 0
 534.048 330.646 529.019 314.221 529.019 297.65 c 0
 529.019 282.261 533.604 269.685 542.778 259.919 c 0
 555.796 246.307 571.777 239.352 590.718 239.056 c 0
 611.138 238.76 637.471 242.459 669.731 250.152 c 1
 669.731 237.281 l 1
 662.632 231.066 652.275 224.852 638.657 218.637 c 0
 623.569 212.127 605.225 208.724 583.618 208.428 c 0
 552.246 207.836 525.469 215.974 503.271 232.842 c 0
 481.667 249.117 471.167 271.756 471.756 300.758 c 8
 472.345 327.095 480.933 352.101 497.5 375.775 c 0
EndSplineSet
Fore
SplineSet
133.353 44 m 1
 134.203 48 l 1
 149.086 74.5 166.827 89.75 199.681 102 c 1
 203.681 102 l 1
 230.449 91.5 242.957 76.25 246.203 48 c 1
 245.353 44 l 1
 228.247 11.75 209.612 -3 179.874 -10 c 1
 175.874 -10 l 1
 146.112 -3 134.981 10.5 133.353 44 c 1
326.572 619 m 0xd8
 270.572 619 219.157 570 183.592 525 c 1
 170.805 526 l 1
 169.046 593 l 1
 172.896 597 l 1
 201.754 617.5 271.575 659 344.075 659 c 0
 446.075 659 496.321 599 476.979 508 c 0
 460.187 429 391.834 385 337.607 351 c 0
 310.994 334 287.593 318 274.979 301 c 0
 256.666 276 246.564 252 241.463 228 c 10
 232.11 184 l 2
 230.622 177 224.984 174 216.984 174 c 0
 208.984 174 204.622 177 206.11 184 c 2
 215.888 230 l 2
 225.028 273 239.568 332 317.109 391 c 0
 364.975 428 391.139 457 401.129 504 c 0
 414.944 569 383.572 619 326.572 619 c 0xd8
EndSplineSet
Colour: ff80cc
EndChar

StartChar: at
Encoding: 64 64 23
Width: 895
VWidth: 999
Flags: HMW
HStem: -158 33<366.698 569.227> 27 43<368.151 451.044> 27 35<536.5 668.322> 379 31<449.098 547.769> 581 30<366.475 546.302>
VStem: 59 80<106.897 345.058> 273 73<90.7683 252.641> 760 79<177.345 388.516>
LayerCount: 2
Back
SplineSet
658.691 46.875 m 0xbf
 658.691 35.6445 668.945 33.2031 671.387 33.2031 c 0
 791.992 33.2031 872.07 77.1484 872.07 289.062 c 0
 872.07 551.758 671.387 648.926 523.926 648.926 c 0
 345.215 648.926 142.09 521.484 142.09 242.676 c 0
 142.09 100.098 220.215 -187.988 534.18 -187.988 c 0
 634.277 -187.988 707.52 -159.668 770.996 -109.863 c 1
 786.621 -131.348 l 1
 715.82 -184.57 645.02 -226.562 512.207 -226.562 c 0
 245.605 -226.562 58.5938 -22.9492 58.5938 228.027 c 0
 58.5938 481.445 250.977 684.57 524.414 684.57 c 0
 776.855 684.57 948.242 505.859 948.242 285.156 c 0
 948.242 151.367 882.324 -5.37109 626.953 -5.37109 c 0xdf
 592.773 -5.37109 584.473 20.9961 584.473 40.0391 c 0
 584.473 58.5938 589.355 83.4961 599.121 114.746 c 1
 530.273 14.6484 474.121 -2.92969 442.871 -2.92969 c 0
 325.684 -2.92969 305.176 92.7734 305.176 139.16 c 0
 305.176 308.105 448.73 441.895 573.242 441.895 c 0
 612.793 441.895 652.344 421.875 664.062 391.602 c 1
 669.922 419.922 l 1
 726.074 434.57 l 1
 744.141 428.711 l 1
 674.316 125 l 2
 666.992 93.2617 658.691 56.6406 658.691 46.875 c 0xbf
647.949 334.961 m 0
 647.949 378.418 618.164 411.133 576.66 411.133 c 0
 556.152 411.133 506.836 410.645 464.355 363.77 c 0
 407.227 302.246 385.742 222.656 385.742 150.391 c 0
 385.742 94.2383 404.297 39.0625 478.027 39.0625 c 0xbf
 509.766 39.0625 582.031 103.516 612.793 183.105 c 0
 626.953 220.703 647.949 306.152 647.949 334.961 c 0
EndSplineSet
Fore
SplineSet
598.729 74 m 0xbf
 596.604 64 605.179 62 607.179 62 c 3
 709.179 62 783.169 109 818.453 275 c 0
 862.239 481 707.495 581 582.495 581 c 3
 430.495 581 240.602 478 190.227 241 c 0
 158.343 91 188.431 -125 446.431 -125 c 3
 531.431 -125 598.319 -102 661.459 -59 c 1
 670.633 -77 l 1
 600.855 -123 533.416 -158 420.416 -158 c 3
 181.416 -158 61.126 10 106.4 223 c 0
 152.1 438 373.872 611 598.872 611 c 3
 813.872 611 938.689 469 898.941 282 c 0
 874.71 168 774.739 27 556.739 27 c 3
 527.739 27 526.053 52 529.454 68 c 0
 532.643 83 544.531 106 557.845 131 c 1
 556.058 132 l 1
 496.328 58 436.164 29 401.164 29 c 7
 301.164 29 297.019 113 305.521 153 c 0
 335.917 296 487.148 410 593.148 410 c 3
 626.148 410 656.535 393 661.008 367 c 1
 671.109 391 l 1
 726.873 404 l 1
 740.811 399 l 1
 625.971 141 l 2
 614.231 114 600.11 80.5 598.729 74 c 0xbf
636.168 316 m 0
 644.245 354 620.559 379 584.559 379 c 3
 567.559 379 522.646 370 486.057 339 c 0
 424.216 288 393.612 224 380.435 162 c 0
 370.231 114 375.879 70 438.879 70 c 3xdf
 473.879 70 534.995 127 581.512 200 c 0
 601.101 231 628.941 282 636.168 316 c 0
EndSplineSet
EndChar

StartChar: A
Encoding: 65 65 24
Width: 633
Flags: W
HStem: -3 21G<23.6812 91.3496 91.6812 128.71 503.221 513.181 600.096 606.181> 230 44<246.182 481.982> 638 20G<381.269 503.587>
AnchorPoint: "unten_punkt" 247.044 -108 basechar 0
AnchorPoint: "unten_anhang" 59.7002 8 basechar 0
AnchorPoint: "top_akzent" 491.62 798 basechar 0
AnchorPoint: "top_punkt" 470.79 700 basechar 0
LayerCount: 2
Back
SplineSet
132 79 m 6
 121.979 53.5967 134.54 31.583 172 29 c 6
 201 27 l 6
 204.991 26.7246 209 24 209 19 c 6
 209 0 l 5
 207 -2 l 5
 207 -2 98 0 74 0 c 4
 48 0 -16 -2 -16 -2 c 5
 -18 0 l 5
 -18 19 l 6
 -18 24 -14.9883 26.6562 -10 27 c 4
 33.5 30 59.1699 37.7783 86.9834 102 c 6
 309.333 622.333 l 6
 318.036 642.698 331.667 658 344 658 c 4
 355 658 362.389 648.121 370 628 c 6
 575 86 l 6
 589 47 609.193 31.6191 649 28 c 6
 660 27 l 6
 664.98 26.5469 670 24 670 19 c 6
 670 0 l 5
 667 -2 l 5
 667 -2 590 0 551 0 c 4
 516 0 418 -2 418 -2 c 5
 417 0 l 5
 417 19 l 6
 417 24 419.013 26.6436 424 27 c 6
 452 29 l 6
 489.772 31.6982 503.995 44.3066 494 72 c 6
 433 241 l 5
 225 241 l 6
 201 241 195.06 236.649 190 224 c 6
 132 79 l 6
243 283 m 6
 417 283 l 5
 319 550 l 5
 318 550 l 5
 217.826 296.333 l 6
 213.576 285.571 226.965 283 243 283 c 6
EndSplineSet
Fore
SplineSet
250.331 275.992 m 5
 282.289 275.855 331.458 274 363.24 274 c 4
 397.352 274 447.616 274.95 481.982 275.924 c 5
 484.147 228.081 l 5
 444.464 229.054 399.749 230 358.888 230 c 4
 322.079 230 260.07 229.049 222.147 228.081 c 5
 222.147 228.081 249.773 275.992 250.331 275.992 c 5
416.937 521.764 m 5
 309.603 354.739 160.059 127.827 97.3623 -3 c 5
 86 0 64 0 53 0 c 4
 42 0 30 0 17.3623 -3 c 5
 165.337 218 309.675 436 452.862 658 c 5
 480.862 658 l 5
 526.312 439 585.83 98 614.362 -3 c 5
 598 0 572 0 555 0 c 4
 538 0 522 0 504.362 -3 c 5
 502.079 32.4844 488.094 210.993 418.937 521.764 c 5
 416.937 521.764 l 5
EndSplineSet
Position2: "'cpsp' Versalabstaende 1" dx=2 dy=0 dh=5 dv=0
Substitution2: "'c2sc' Versale nach Kapitaelchen 1" a.sc
EndChar

StartChar: B
Encoding: 66 66 25
Width: 582
VWidth: 999
Flags: HW
HStem: -3 44<171.13 393.675> 327 44<189 355.197> 604 44<169.378 351.471>
VStem: 103 86<49.3073 327 371 597.325> 395 87<424.724 562.128> 442 99<97.3818 255.662>
AnchorPoint: "unten_punkt" 245.044 -108 basechar 0
AnchorPoint: "unten_anhang" 250 0 basechar 0
AnchorPoint: "top_punkt" 430.79 700 basechar 0
AnchorPoint: "top_akzent" 450.62 798 basechar 0
LayerCount: 2
Fore
SplineSet
283.099 645 m 11xf4
 330.303 645 369.736 648 404.736 648 c 3
 590.736 648 601.031 560 586.79 493 c 0xf8
 575.1 438 521.834 385 465.521 360 c 1
 547.206 335 600.516 280 580.11 184 c 0
 561.83 98 487.362 -3 288.362 -3 c 3
 199.362 -3 201.782 0 146 0 c 19
 111 0 93.3623 -3 93.3623 -3 c 1
 93 0 l 1
 112.479 54 129.569 124.999 145.512 200 c 2
 197.588 445 l 2
 213.529 520 225.983 588 230.099 645 c 1
 232.736 648 l 1
 232.736 648 249.099 645 283.099 645 c 11xf4
258.506 327 m 1
 207.705 88 l 2
 200.69 55 208.715 41 278.715 41 c 3
 430.715 41 461.556 92 477.072 165 c 0xf4
 496.202 255 462.506 327 345.506 327 c 2
 258.506 327 l 1
307.819 559 m 2
 267.858 371 l 1
 339.858 371 l 2
 422.858 371 479.173 396 497.239 481 c 0xf8
 518.921 583 458.384 604 402.384 604 c 3
 321.384 604 314.904 592.333 307.819 559 c 2
EndSplineSet
Position2: "'cpsp' Versalabstaende 1" dx=2 dy=0 dh=5 dv=0
Substitution2: "'c2sc' Versale nach Kapitaelchen 1" b.sc
EndChar

StartChar: C
Encoding: 67 67 26
Width: 650
VWidth: 999
Flags: HW
HStem: -10 51<269.467 470.143> 611 47<271.061 460.844>
VStem: 37 103<195.742 435.455>
AnchorPoint: "unten_punkt" 345.619 -110 basechar 0
AnchorPoint: "unten_anhang" 360.512 -7 basechar 0
AnchorPoint: "top_punkt" 514.79 700 basechar 0
AnchorPoint: "top_akzent" 535.62 798 basechar 0
LayerCount: 2
Back
SplineSet
572.754 645.508 m 5
 591.797 471.68 l 5
 562.012 468.75 l 5
 554.688 511.719 519.043 606.445 467.285 606.445 c 6
EndSplineSet
Fore
SplineSet
504.862 658 m 7
 626.862 658 713.297 613 713.297 613 c 5
 714.659 609.999 l 5
 692.429 560.747 685.459 549.993 671.065 499 c 5
 660.854 498 l 5
 637.283 580 570.872 611 480.872 611 c 7
 398.872 611 254.143 537 210.994 334 c 0
 179.961 188 213.715 41 368.715 41 c 3
 461.715 41 534.179 62 621.758 140 c 1
 641.569 125 l 1
 554.652 36 445.874 -10 348.874 -10 c 3
 133.874 -10 69.7334 154 103.955 315 c 0
 145.829 512 335.862 658 504.862 658 c 7
EndSplineSet
Position2: "'cpsp' Versalabstaende 1" dx=2 dy=0 dh=5 dv=0
Substitution2: "'c2sc' Versale nach Kapitaelchen 1" c.sc
EndChar

StartChar: D
Encoding: 68 68 27
Width: 698
VWidth: 999
Flags: HW
HStem: -2 44<168.537 432.266> 604 44<169.393 389.698>
VStem: 101 86<49.3073 594.385> 552 103<179.784 425.325>
AnchorPoint: "unten_punkt" 256.257 -107 basechar 0
AnchorPoint: "unten_anhang" 279.851 4 basechar 0
AnchorPoint: "top_punkt" 454.79 700 basechar 0
AnchorPoint: "top_akzent" 475.62 798 basechar 0
LayerCount: 2
Fore
SplineSet
281.099 645 m 11
 345.099 645 382.736 648 446.736 648 c 19
 638.736 648 760.003 494 720.468 308 c 0
 668.179 62 467.575 -2 326.575 -2 c 3
 223.575 -2 215 0 144 0 c 19
 109 0 91.3623 -3 91.3623 -3 c 1
 91 0 l 1
 110.479 54 127.569 124.999 143.512 200 c 2
 195.588 445 l 2
 211.529 520 223.983 588 228.099 645 c 1
 230.736 648 l 1
 230.736 648 247.099 645 281.099 645 c 11
204.43 82 m 2
 197.628 50 206.928 42 304.928 42 c 3
 445.928 42 569.43 82 612.366 284 c 0
 645.1 438 615.384 604 399.384 604 c 3
 350.384 604 314.321 599 306.882 564 c 2
 204.43 82 l 2
EndSplineSet
Position2: "'cpsp' Versalabstaende 1" dx=2 dy=0 dh=5 dv=0
Substitution2: "'c2sc' Versale nach Kapitaelchen 1" d.sc
EndChar

StartChar: E
Encoding: 69 69 28
Width: 522
VWidth: 999
Flags: HW
HStem: 0 54<186.656 409.594> 321 42<182 388.188> 596 49<186.656 403.188>
VStem: 96 86<55.2087 321 363 594.385>
AnchorPoint: "unten_anhang" 279.851 4 basechar 0
AnchorPoint: "unten_punkt" 256.257 -107 basechar 0
AnchorPoint: "top_punkt" 428.79 700 basechar 0
AnchorPoint: "top_akzent" 454.108 805 basechar 0
LayerCount: 2
Back
SplineSet
98 150 m 6x3d
 98 510 l 6
 98 614 96 629 37 636 c 6
 21 638 l 5
 15 642 17 660 23 663 c 5x3b
 66 661 100 660 141 660 c 6
 329 660 l 6x3d
 393 660 452 660 464 663 c 5x3b
 470 646 476 574 480 530 c 5
 476 524 460 522 455 528 c 5
 440 575 431 610 379 623 c 4
 358 628 326 629 282 629 c 6
 210 629 l 6
 180 629 180 627 180 589 c 6
 180 389 l 6
 180 361 183 361 213 361 c 6
 271 361 l 6
 313 361 344 363 356 367 c 4
 368 371 375 377 380 402 c 6
 388 443 l 5
 393 449 410 449 414 442 c 5
 414 418 410 379 410 341 c 4
 410 305 414 267 414 245 c 5
 410 238 393 238 388 244 c 5
 379 283 l 6
 375 301 368 316 348 321 c 4
 334 325 310 326 271 326 c 6
 213 326 l 6
 183 326 180 325 180 299 c 6
 180 158 l 6
 180 105 183 71 199 54 c 4
 211 42 232 31 320 31 c 4
 397 31 426 35 448 46 c 4
 466 56 493 91 519 143 c 5
 526 148 540 145 544 136 c 5
 537 101 512 24 499 -3 c 5
 409 -1 320 0 231 0 c 6
 141 0 l 6x3d
 98 0 64 -1 5 -3 c 5x9d
 -1 0 -3 16 3 22 c 5
 36 25 l 6x5d
 93 30 98 45 98 150 c 6x3d
EndSplineSet
Fore
SplineSet
224.512 200 m 2
 220.897 183 199.579 78 201.479 54 c 1
 335.479 54 486.028 66 486.028 66 c 1
 487.179 62 l 1
 484.479 54 480.29 39 478.164 29 c 4
 476.039 19 475.976 14 474 0 c 1
 471.362 -3 l 1
 455.787 -1 433 0 412 0 c 2
 139 0 l 7
 104 0 86.3623 -3 86.3623 -3 c 1
 86 0 l 1
 105.479 54 122.569 125 138.512 200 c 2
 190.588 445 l 2
 206.529 520 218.983 588 223.099 645 c 1
 225.736 648 l 1
 225.736 648 242.099 645 276.099 645 c 7
 306.099 645 539.099 645 539.099 645 c 2
 560.099 645 583.312 646 599.736 648 c 1
 601.099 645 l 1
 597.123 631 594.21 622 592.51 614 c 4
 590.597 605 589.684 596 588.983 588 c 1
 586.133 584 l 1
 586.133 584 450.684 596 316.684 596 c 1
 304.582 572 280.201 462 276.588 445 c 2
 259.158 363 l 1
 377.158 363 424.221 368 484.283 373 c 1
 486.646 370 l 1
 482.733 361 479.607 351 477.694 342 c 4
 475.781 333 474.656 323 474.743 314 c 1
 471.105 311 l 1
 403.593 318 298.23 321 250.23 321 c 1
 224.512 200 l 2
EndSplineSet
Position2: "'cpsp' Versalabstaende 1" dx=2 dy=0 dh=5 dv=0
Substitution2: "'c2sc' Versale nach Kapitaelchen 1" e.sc
EndChar

StartChar: F
Encoding: 70 70 29
Width: 477
VWidth: 999
Flags: HW
HStem: -3 21G<88 141 141 194> 321 42<184 390.196> 596 49<188.662 405.195>
VStem: 98 86<2.67992 321 363 594.385>
AnchorPoint: "unten_anhang" 144.787 -1 basechar 0
AnchorPoint: "unten_punkt" 177.406 -111 basechar 0
AnchorPoint: "top_punkt" 435.79 700 basechar 0
AnchorPoint: "top_akzent" 455.62 798 basechar 0
LayerCount: 2
Fore
SplineSet
538.099 645 m 6
 562.099 645 585.312 646 601.736 648 c 5
 603.099 645 l 5
 599.123 631 596.21 622 594.51 614 c 4
 592.597 605 591.684 596 590.983 588 c 5
 588.133 584 l 5
 588.133 584 452.684 596 318.684 596 c 5
 306.582 572 282.201 462 278.588 445 c 6
 261.158 363 l 5
 379.158 363 426.221 368 486.283 373 c 5
 488.646 370 l 5
 484.733 361 481.607 351 479.694 342 c 4
 477.781 333 476.656 323 476.743 314 c 5
 473.105 311 l 5
 405.593 318 300.23 321 252.23 321 c 5
 226.512 200 l 6
 210.569 125 198.116 57 194 0 c 5
 191.362 -3 l 5
 191.362 -3 175 0 141 0 c 4
 106 0 88.3623 -3 88.3623 -3 c 5
 88 0 l 5
 107.479 54 124.569 125 140.512 200 c 6
 192.588 445 l 6
 208.529 520 220.983 588 225.099 645 c 5
 227.736 648 l 5
 227.736 648 244.099 645 278.099 645 c 6
 538.099 645 l 6
EndSplineSet
Position2: "'cpsp' Versalabstaende 1" dx=2 dy=0 dh=5 dv=0
Substitution2: "'c2sc' Versale nach Kapitaelchen 1" f.sc
EndChar

StartChar: G
Encoding: 71 71 30
Width: 699
VWidth: 999
Flags: HMW
HStem: -10 46<295.106 519.78> 611 47<271.555 476.844>
VStem: 32 103<213.43 430.807> 546 86<83.5114 304.327>
AnchorPoint: "unten_anhang" 371.425 2 basechar 0
AnchorPoint: "unten_punkt" 347.406 -111 basechar 0
AnchorPoint: "top_punkt" 517.79 700 basechar 0
AnchorPoint: "top_akzent" 538.62 798 basechar 0
LayerCount: 2
Back
SplineSet
593.262 612.793 m 5
 596.309 558.179 605.469 509.766 615.234 458.496 c 5
 584.961 453.613 l 5
 559.082 539.551 501.465 621.094 362.793 621.094 c 4
EndSplineSet
Fore
SplineSet
570.869 117 m 6
 585.337 191.985 597.139 250 601.255 307 c 5
 603.893 310 l 5
 603.893 310 620.255 307 654.255 307 c 4
 689.255 307 706.893 310 706.893 310 c 5
 707.255 307 l 5
 687.989 254 677.062 212 661.12 137 c 6
 659.845 131 l 2
 657.507 120 653.242 93.667 659.643 83 c 1
 659.005 80 l 1
 579.512 23.3506 490.335 -10 373.874 -10 c 0
 172.874 -10 60.4824 134 97.2549 307 c 0
 144.018 527 348.862 658 520.862 658 c 0
 642.862 658 729.297 613 729.297 613 c 1
 730.659 609.999 l 1
 708.429 560.747 701.459 549.993 687.065 499 c 1
 676.854 498 l 1
 653.283 580 586.872 611 496.872 611 c 0
 361.872 611 241.703 502 204.506 327 c 0
 176.448 195 228.652 36 406.652 36 c 0
 460.652 36 520.928 42 561.729 74 c 1
 570.869 117 l 6
EndSplineSet
Position2: "'cpsp' Versalabstaende 1" dx=2 dy=0 dh=5 dv=0
Substitution2: "'c2sc' Versale nach Kapitaelchen 1" g.sc
EndChar

StartChar: grave
Encoding: 96 96 31
Width: 392
VWidth: 999
Flags: HW
LayerCount: 2
Fore
SplineSet
326.577 699 m 9
 369.795 573 l 2
 372.669 563 372.182 556 370.693 549 c 0
 369.631 544 361.355 538 353.355 538 c 3
 347.355 538 341.418 543 328.606 558 c 2
 237.775 667 l 1
 242.113 678 l 1
 251.389 684 278.002 701 312.002 701 c 3
 317.002 701 322.79 700 326.577 699 c 9
EndSplineSet
Substitution2: "'case' Versalformen 1" grave.cap
Colour: ff00ff
EndChar

StartChar: ograve
Encoding: 242 242 32
Width: 510
VWidth: 999
Flags: HW
HStem: -10 41<204.375 329.082> 398 41<186.898 318.163>
VStem: 36 90<124.397 311.463> 384 90<116.419 317.676>
LayerCount: 2
Back
SplineSet
-90.8203 672.852 m 5
 528.32 672.852 l 5
 528.32 510.254 l 5
 -90.8203 510.254 l 5
 -90.8203 672.852 l 5
EndSplineSet
Fore
SplineSet
334.598 398 m 7
 248.598 398 192.955 315 174.463 228 c 4
 158.096 151 171.589 31 275.589 31 c 7
 320.589 31 397.391 63 423.748 187 c 4
 454.994 334 419.598 398 334.598 398 c 7
79.5742 205 m 4
 108.694 342 219.312 439 350.312 439 c 7
 507.312 439 541.593 318 519.487 214 c 4
 496.743 107 395.874 -10 252.874 -10 c 7
 114.874 -10 56.1934 95 79.5742 205 c 4
376.625 671 m 9
 419.844 545 l 2
 422.718 535 422.229 528 420.742 521 c 0
 419.679 516 411.404 510 403.404 510 c 3
 397.404 510 391.467 515 378.655 530 c 2
 287.823 639 l 1
 292.162 650 l 1
 301.438 656 328.051 673 362.051 673 c 3
 367.051 673 372.838 672 376.625 671 c 9
EndSplineSet
Substitution2: "'smcp' Gemeine nach Kapitaelchen 1" ograve.sc
AlternateSubs2: "'aalt' Alle Alternativen zeigen 1" ograve.sc
Colour: ff00ff
EndChar

StartChar: oacute
Encoding: 243 243 33
Width: 510
VWidth: 999
Flags: HW
HStem: -10 41<204.375 329.082> 398 41<186.898 318.163>
VStem: 36 90<124.397 311.463> 384 90<116.419 317.676>
LayerCount: 2
Back
SplineSet
-90.8203 672.852 m 5
 528.32 672.852 l 5
 528.32 510.254 l 5
 -90.8203 510.254 l 5
 -90.8203 672.852 l 5
EndSplineSet
Fore
SplineSet
334.598 398 m 7
 248.598 398 192.955 315 174.463 228 c 4
 158.096 151 171.589 31 275.589 31 c 7
 320.589 31 397.391 63 423.748 187 c 4
 454.994 334 419.598 398 334.598 398 c 7
79.5742 205 m 4
 108.694 342 219.312 439 350.312 439 c 7
 507.312 439 541.593 318 519.487 214 c 4
 496.743 107 395.874 -10 252.874 -10 c 7
 114.874 -10 56.1934 95 79.5742 205 c 4
422.625 671 m 1
 425.838 672 432.051 673 437.051 673 c 3
 443.439 673 468.838 672 487.162 650 c 1
 487.823 639 l 1
 349.655 530 l 2
 331.467 515 322.616 511 315.616 511 c 3
 308.616 511 302.892 517 304.38 524 c 0
 306.761 535.2 310.905 539.174 321.775 552 c 2
 422.625 671 l 1
EndSplineSet
Substitution2: "'smcp' Gemeine nach Kapitaelchen 1" oacute.sc
AlternateSubs2: "'aalt' Alle Alternativen zeigen 1" oacute.sc
Colour: ff00ff
EndChar

StartChar: ocircumflex
Encoding: 244 244 34
Width: 510
VWidth: 999
Flags: HW
HStem: -10 41<204.375 329.082> 398 41<186.898 318.163>
VStem: 36 90<124.397 311.463> 125 253<517 517> 384 90<116.419 317.676>
LayerCount: 2
Back
SplineSet
151.855 645.508 m 1
 180.664 598.633 217.285 555.664 252.93 515.625 c 1
 232.422 502.441 l 1
 193.359 531.25 159.668 556.152 125.977 592.285 c 1
 88.8672 554.199 56.1523 529.297 19.043 502.441 c 1
 -0.488281 515.625 l 1
 34.668 555.176 72.7539 599.609 102.051 645.508 c 1
 151.855 645.508 l 1
-90.5762 664.062 m 1
 528.076 664.062 l 1
 528.076 500.732 l 1
 -90.5762 500.732 l 1
 -90.5762 664.062 l 1
EndSplineSet
Fore
SplineSet
334.598 398 m 7
 248.598 398 192.955 315 174.463 228 c 4
 158.096 151 171.589 31 275.589 31 c 7
 320.589 31 397.391 63 423.748 187 c 4
 454.994 334 419.598 398 334.598 398 c 7
79.5742 205 m 4
 108.694 342 219.312 439 350.312 439 c 7
 507.312 439 541.593 318 519.487 214 c 4
 496.743 107 395.874 -10 252.874 -10 c 7
 114.874 -10 56.1934 95 79.5742 205 c 4
414.312 646 m 1
 433.321 599 460.394 557 487.892 517 c 1
 463.916 503 l 1
 431.08 532 403.394 557 377.046 593 c 1
 331.969 555 294.655 530 250.916 503 c 1
 233.892 517 l 1
 278.394 557 325.534 600 364.312 646 c 1
 414.312 646 l 1
EndSplineSet
Substitution2: "'smcp' Gemeine nach Kapitaelchen 1" ocircumflex.sc
AlternateSubs2: "'aalt' Alle Alternativen zeigen 1" ocircumflex.sc
Colour: ff00ff
EndChar

StartChar: otilde
Encoding: 245 245 35
Width: 510
VWidth: 999
Flags: HW
HStem: -10 41<204.375 329.082> 398 41<186.898 318.163> 526 44<263 350> 574 46<145 236> 613 10
VStem: 36 90<124.397 311.463> 384 90<116.419 317.676>
LayerCount: 2
Back
SplineSet
-87.8906 622.07 m 5
 531.25 622.07 l 5
 531.25 525.391 l 5
 -87.8906 525.391 l 5
 -87.8906 622.07 l 5
EndSplineSet
Fore
SplineSet
334.598 398 m 7
 248.598 398 192.955 315 174.463 228 c 4
 158.096 151 171.589 31 275.589 31 c 7
 320.589 31 397.391 63 423.748 187 c 4
 454.994 334 419.598 398 334.598 398 c 7
79.5742 205 m 4
 108.694 342 219.312 439 350.312 439 c 7
 507.312 439 541.593 318 519.487 214 c 4
 496.743 107 395.874 -10 252.874 -10 c 7
 114.874 -10 56.1934 95 79.5742 205 c 4
435.157 570 m 7xc0
 457.157 570 473.283 580 496.21 622 c 1xa0
 518.935 616 l 1
 494.182 556 458.805 526 412.805 526 c 7
 390.805 526 372.355 538 354.331 552 c 0
 338.669 563 322.008 574 305.008 574 c 7
 279.008 574 262.819 559 245.805 526 c 1
 222.867 531 l 1
 249.408 590 278.785 620 321.785 620 c 7
 351.785 620 370.81 606 387.833 592 c 0
 401.283 580 416.157 570 435.157 570 c 7xc0
EndSplineSet
Substitution2: "'smcp' Gemeine nach Kapitaelchen 1" otilde.sc
AlternateSubs2: "'aalt' Alle Alternativen zeigen 1" otilde.sc
Colour: ff00ff
EndChar

StartChar: odieresis
Encoding: 246 246 36
Width: 510
VWidth: 999
Flags: HW
HStem: -10 41<204.375 329.082> 398 41<186.898 318.163> 527 92<133.347 210.653 293.347 370.653>
VStem: 36 90<124.397 311.463> 126 92<534.347 611.653> 286 92<534.347 611.653> 384 90<116.419 317.676>
LayerCount: 2
Back
SplineSet
-90.8203 617.676 m 5
 528.32 617.676 l 5
 528.32 526.855 l 5
 -90.8203 526.855 l 5
 -90.8203 617.676 l 5
EndSplineSet
Fore
SplineSet
334.598 398 m 7
 248.598 398 192.955 315 174.463 228 c 4
 158.096 151 171.589 31 275.589 31 c 7
 320.589 31 397.391 63 423.748 187 c 4
 454.994 334 419.598 398 334.598 398 c 7
79.5742 205 m 4
 108.694 342 219.312 439 350.312 439 c 7
 507.312 439 541.593 318 519.487 214 c 4
 496.743 107 395.874 -10 252.874 -10 c 7
 114.874 -10 56.1934 95 79.5742 205 c 4
407.795 573 m 0
 413.108 598 438.572 619 463.572 619 c 3
 488.572 619 505.108 598 499.795 573 c 0
 494.481 548 469.018 527 444.018 527 c 3
 419.018 527 402.481 548 407.795 573 c 0
247.795 573 m 0
 253.108 598 278.572 619 303.572 619 c 3
 328.572 619 345.108 598 339.795 573 c 0
 334.481 548 309.018 527 284.018 527 c 3
 259.018 527 242.481 548 247.795 573 c 0
EndSplineSet
Substitution2: "'smcp' Gemeine nach Kapitaelchen 1" odieresis.sc
AlternateSubs2: "'aalt' Alle Alternativen zeigen 1" odieresis.sc
Colour: ff00ff
EndChar

StartChar: divide
Encoding: 247 247 37
Width: 527
VWidth: 999
Flags: HW
HStem: 53.6186 93.8717<234.492 296.502> 208 49<66 461> 321.619 93.8717<234.492 296.502>
VStem: 218.26 93.8717<67.2645 131.114> 218.26 93.8717<335.264 399.114>
LayerCount: 2
Back
SplineSet
-58.1055 256.836 m 29
 565.43 256.836 l 29
0 572.012 m 5
 527.344 572.012 l 5
 527.344 0 l 5
 0 0 l 5
 0 572.012 l 5
EndSplineSet
Fore
SplineSet
515.627 257 m 17
 505.212 208 l 1
 110.212 208 l 1
 120.627 257 l 9
 515.627 257 l 17
239.277 98.8779 m 1
 239.989 102.23 l 1
 252.464 124.441 267.333 137.223 294.869 147.49 c 1
 298.222 147.49 l 1
 320.657 138.689 331.142 125.908 333.86 102.23 c 1
 333.148 98.8779 l 1
 318.812 71.8477 303.192 59.4854 278.269 53.6182 c 1
 274.916 53.6182 l 1
 249.971 59.4854 240.643 70.8008 239.277 98.8779 c 1
296.242 366.878 m 1
 296.955 370.23 l 1
 309.429 392.441 324.298 405.223 351.835 415.49 c 1
 355.188 415.49 l 1
 377.622 406.689 388.106 393.908 390.826 370.23 c 1
 390.113 366.878 l 1
 375.777 339.848 360.158 327.485 335.234 321.618 c 1
 331.882 321.618 l 1
 306.937 327.485 297.608 338.801 296.242 366.878 c 1
EndSplineSet
Colour: ff00ff
EndChar

StartChar: ugrave
Encoding: 249 249 38
Width: 521
VWidth: 999
Flags: HW
HStem: -10 55<189.219 288.154> -3 21<363 372.667 438.5 447> 412 20<74 124 124 174 340 390 390 440>
VStem: 84 80<69.7019 426.335> 350 80<96.6489 426.335>
LayerCount: 2
Back
SplineSet
-90.8203 672.852 m 5
 528.32 672.852 l 5
 528.32 510.254 l 5
 -90.8203 510.254 l 5
 -90.8203 672.852 l 5
EndSplineSet
Fore
SplineSet
363.604 64 m 5x78
 294.851 4 250.874 -10 209.874 -10 c 4
 110.874 -10 96.1162 57 110.782 126 c 6
 136.927 249 l 6
 153.081 325 162.071 372 165.187 429 c 5
 167.824 432 l 5
 167.824 432 181.187 429 215.187 429 c 4
 250.187 429 264.824 432 264.824 432 c 5
 265.187 429 l 5
 244.921 376 232.868 324 216.927 249 c 6
 195.884 150 l 6
 176.966 61 217.565 45 247.565 45 c 4xb8
 292.365 45 342.657 88.1729 375.294 119 c 5
 402.927 249 l 6
 419.081 325 428.071 372 431.187 429 c 5
 433.824 432 l 5
 433.824 432 447.187 429 481.187 429 c 4
 516.187 429 530.824 432 530.824 432 c 5
 531.187 429 l 5
 510.921 376 498.868 324 482.927 249 c 6
 470.811 192 l 6
 454.869 117 448.14 43 447 0 c 5
 444.362 -3 l 5
 431.787 -1 413.127 0 400.5 0 c 4
 386 0 379.05 -1.33301 365.362 -3 c 5
 359.362 -3 356.575 -2 357 0 c 5
 365.604 64 l 5
 363.604 64 l 5x78
370.625 671 m 9
 413.844 545 l 2
 416.718 535 416.229 528 414.742 521 c 0
 413.679 516 405.404 510 397.404 510 c 3
 391.404 510 385.467 515 372.655 530 c 2
 281.823 639 l 1
 286.162 650 l 1
 295.438 656 322.051 673 356.051 673 c 3
 361.051 673 366.838 672 370.625 671 c 9
EndSplineSet
Substitution2: "'smcp' Gemeine nach Kapitaelchen 1" ugrave.sc
AlternateSubs2: "'aalt' Alle Alternativen zeigen 1" ugrave.sc
Colour: ff00ff
EndChar

StartChar: uacute
Encoding: 250 250 39
Width: 521
VWidth: 999
Flags: HW
HStem: -10 55<189.219 288.154> -3 21<363 372.667 438.5 447> 412 20<74 124 124 174 340 390 390 440>
VStem: 84 80<69.7019 426.335> 350 80<96.6489 426.335>
LayerCount: 2
Back
SplineSet
-90.8203 672.852 m 5
 528.32 672.852 l 5
 528.32 510.254 l 5
 -90.8203 510.254 l 5
 -90.8203 672.852 l 5
EndSplineSet
Fore
SplineSet
363.604 64 m 5x78
 294.851 4 250.874 -10 209.874 -10 c 4
 110.874 -10 96.1162 57 110.782 126 c 6
 136.927 249 l 6
 153.081 325 162.071 372 165.187 429 c 5
 167.824 432 l 5
 167.824 432 181.187 429 215.187 429 c 4
 250.187 429 264.824 432 264.824 432 c 5
 265.187 429 l 5
 244.921 376 232.868 324 216.927 249 c 6
 195.884 150 l 6
 176.966 61 217.565 45 247.565 45 c 4xb8
 292.365 45 342.657 88.1729 375.294 119 c 5
 402.927 249 l 6
 419.081 325 428.071 372 431.187 429 c 5
 433.824 432 l 5
 433.824 432 447.187 429 481.187 429 c 4
 516.187 429 530.824 432 530.824 432 c 5
 531.187 429 l 5
 510.921 376 498.868 324 482.927 249 c 6
 470.811 192 l 6
 454.869 117 448.14 43 447 0 c 5
 444.362 -3 l 5
 431.787 -1 413.127 0 400.5 0 c 4
 386 0 379.05 -1.33301 365.362 -3 c 5
 359.362 -3 356.575 -2 357 0 c 5
 365.604 64 l 5
 363.604 64 l 5x78
448.625 671 m 1
 451.838 672 458.051 673 463.051 673 c 3
 469.439 673 494.838 672 513.162 650 c 1
 513.823 639 l 1
 375.655 530 l 2
 357.467 515 348.616 511 341.616 511 c 3
 334.616 511 328.892 517 330.38 524 c 0
 332.761 535.2 336.905 539.174 347.775 552 c 2
 448.625 671 l 1
EndSplineSet
Substitution2: "'smcp' Gemeine nach Kapitaelchen 1" uacute.sc
AlternateSubs2: "'aalt' Alle Alternativen zeigen 1" uacute.sc
Colour: ff00ff
EndChar

StartChar: ucircumflex
Encoding: 251 251 40
Width: 521
VWidth: 999
Flags: HW
HStem: -10 55<189.219 288.154> -3 21<363 372.667 438.5 447> 412 20<74 124 124 174 340 390 390 440>
VStem: 84 80<69.7019 426.335> 129 253<517 517> 350 80<96.6489 426.335>
LayerCount: 2
Fore
SplineSet
363.604 64 m 5x78
 294.851 4 250.874 -10 209.874 -10 c 4
 110.874 -10 96.1162 57 110.782 126 c 6
 136.927 249 l 6
 153.081 325 162.071 372 165.187 429 c 5
 167.824 432 l 5
 167.824 432 181.187 429 215.187 429 c 4
 250.187 429 264.824 432 264.824 432 c 5
 265.187 429 l 5
 244.921 376 232.868 324 216.927 249 c 6
 195.884 150 l 6
 176.966 61 217.565 45 247.565 45 c 4xb8
 292.365 45 342.657 88.1729 375.294 119 c 5
 402.927 249 l 6
 419.081 325 428.071 372 431.187 429 c 5
 433.824 432 l 5
 433.824 432 447.187 429 481.187 429 c 4
 516.187 429 530.824 432 530.824 432 c 5
 531.187 429 l 5
 510.921 376 498.868 324 482.927 249 c 6
 470.811 192 l 6
 454.869 117 448.14 43 447 0 c 5
 444.362 -3 l 5
 431.787 -1 413.127 0 400.5 0 c 4
 386 0 379.05 -1.33301 365.362 -3 c 5
 359.362 -3 356.575 -2 357 0 c 5
 365.604 64 l 5
 363.604 64 l 5x78
418.312 646 m 1
 437.321 599 464.394 557 491.892 517 c 1
 467.916 503 l 1
 435.08 532 407.394 557 381.046 593 c 1
 335.969 555 298.655 530 254.916 503 c 1
 237.892 517 l 1
 282.394 557 329.534 600 368.312 646 c 1
 418.312 646 l 1
EndSplineSet
Substitution2: "'smcp' Gemeine nach Kapitaelchen 1" ucircumflex.sc
AlternateSubs2: "'aalt' Alle Alternativen zeigen 1" ucircumflex.sc
Colour: ff00ff
EndChar

StartChar: ebreve
Encoding: 277 277 41
Width: 442
VWidth: 999
Flags: HW
HStem: -10 59<197.345 335.48> 243 44<125 319.997> 399 40<175.584 290.389> 501 57<158.968 295.898>
VStem: 34 88<132.133 243> 93 26<607.805 639.769> 320 89<254.5 358.106> 336 27<609.333 639.63>
LayerCount: 2
Fore
SplineSet
418.318 105 m 1
 432.792 79 l 1
 383.739 27 314.874 -10 242.874 -10 c 3
 105.874 -10 51.8545 84 76.2988 199 c 0
 108.607 351 237.312 439 332.312 439 c 3
 464.312 439 482.119 344 464.265 260 c 0
 461.927 249 453.651 243 442.651 243 c 2
 173.651 243 l 1
 141.98 94 219.415 49 275.415 49 c 3
 330.415 49 375.241 67 418.318 105 c 1
186.004 287 m 1
 367.004 287 l 2
 377.004 287 382.066 292 383.979 301 c 0
 399.921 376 359.811 399 323.811 399 c 3
 300.811 399 225.109 391 186.004 287 c 1
257.736 648 m 1
 257.471 595 292.569 558 346.606 558 c 3
 398.606 558 451.408 590 473.736 648 c 1
 498.186 636 l 1
 467.906 550 393.491 501 334.491 501 c 3
 264.484 501 224.119 551 228.186 636 c 1
 257.736 648 l 1
EndSplineSet
Colour: ff00ff
EndChar

StartChar: Edotaccent
Encoding: 278 278 42
Width: 522
VWidth: 999
Flags: HW
HStem: 0 54<186.656 409.594> 321 42<182 388.188> 596 49<186.656 403.188> 688 104<238.25 321.469>
VStem: 96 86<55.2087 321 363 594.385> 228 104<698.542 781.752>
LayerCount: 2
Fore
SplineSet
224.512 200 m 2
 220.897 183 199.579 78 201.479 54 c 1
 335.479 54 486.028 66 486.028 66 c 1
 487.179 62 l 1
 484.479 54 480.29 39 478.164 29 c 4
 476.039 19 475.976 14 474 0 c 1
 471.362 -3 l 1
 455.787 -1 433 0 412 0 c 2
 139 0 l 7
 104 0 86.3623 -3 86.3623 -3 c 1
 86 0 l 1
 105.479 54 122.569 125 138.512 200 c 2
 190.588 445 l 2
 206.529 520 218.983 588 223.099 645 c 1
 225.736 648 l 1
 225.736 648 242.099 645 276.099 645 c 7
 306.099 645 539.099 645 539.099 645 c 2
 560.099 645 583.312 646 599.736 648 c 1
 601.099 645 l 1
 597.123 631 594.21 622 592.51 614 c 4
 590.597 605 589.684 596 588.983 588 c 1
 586.133 584 l 1
 586.133 584 450.684 596 316.684 596 c 1
 304.582 572 280.201 462 276.588 445 c 2
 259.158 363 l 1
 377.158 363 424.221 368 484.283 373 c 1
 486.646 370 l 1
 482.733 361 479.607 351 477.694 342 c 4
 475.781 333 474.656 323 474.743 314 c 1
 471.105 311 l 1
 403.593 318 298.23 321 250.23 321 c 1
 224.512 200 l 2
386.292 740 m 0
 392.031 767 421.132 791 448.132 791 c 3
 475.132 791 494.031 767 488.292 740 c 0
 482.553 713 453.451 689 426.451 689 c 3
 399.451 689 380.553 713 386.292 740 c 0
EndSplineSet
Position2: "'cpsp' Versalabstaende 1" dx=2 dy=0 dh=5 dv=0
Colour: ff00ff
EndChar

StartChar: edotaccent
Encoding: 279 279 43
Width: 442
VWidth: 999
Flags: HW
HStem: -10 59<197.345 335.48> 243 44<125 319.997> 399 40<175.584 290.389> 519 104<188.248 271.458>
VStem: 34 88<132.133 243> 178 104<529.542 612.752> 320 89<254.5 358.106>
LayerCount: 2
Back
SplineSet
-98.3887 618.652 m 5
 520.264 618.652 l 5
 520.508 522.949 l 5
 -98.6328 522.949 l 5
 -98.3887 618.652 l 5
510.742 502.441 m 5
 481.934 549.316 444.336 594.727 409.668 632.324 c 5
 430.176 645.508 l 5
 469.238 616.699 501.465 591.309 535.645 555.176 c 5
 572.754 593.262 606.445 618.652 643.555 645.508 c 5
 662.598 632.324 l 5
 627.93 592.773 589.844 548.34 560.547 502.441 c 5
 510.742 502.441 l 5
-210.449 647.949 m 5
 -208.496 596.68 -162.109 556.152 -101.562 556.152 c 4
 -55.6641 556.152 3.90625 585.938 6.34766 647.949 c 5
 32.7148 634.277 l 5
 22.9492 533.691 -51.7578 499.023 -101.562 499.023 c 4
 -179.199 499.023 -229.98 556.641 -237.305 634.277 c 5
 -210.449 647.949 l 5
144.043 645.508 m 5
 172.852 598.633 209.473 555.664 245.117 515.625 c 5
 224.609 502.441 l 5
 185.547 531.25 151.855 556.152 118.164 592.285 c 5
 81.0547 554.199 48.3398 529.297 11.2305 502.441 c 5
 -8.30078 515.625 l 5
 26.8555 555.176 64.9414 599.609 94.2383 645.508 c 5
 144.043 645.508 l 5
-98.3887 664.062 m 5
 520.264 664.062 l 5
 520.264 500.732 l 5
 -98.3887 500.732 l 5
 -98.3887 664.062 l 5
438.477 662.598 m 21
 441.895 664.062 448.242 665.039 453.125 665.039 c 4
 481.123 665.039 493.569 654.214 501.953 646.704 c 4
 504.258 644.639 506.309 642.856 508.301 641.602 c 5
 510.742 630.859 l 5
 395.996 521.973 l 6
 380.371 507.324 373.535 502.441 367.188 502.441 c 4
 359.375 502.441 352.539 507.974 352.539 514.487 c 4
 352.539 519.858 352.631 527.246 358.887 537.109 c 6
 438.477 662.598 l 21
-98.3887 616.211 m 5
 520.264 616.211 l 5
 520.508 525.391 l 5
 -98.6328 525.391 l 5
 -98.3887 616.211 l 5
80.0781 570.801 m 4
 80.0781 595.703 100.586 616.211 125.488 616.211 c 4
 150.391 616.211 170.898 595.703 170.898 570.801 c 4
 170.898 545.898 150.391 525.391 125.488 525.391 c 4
 100.586 525.391 80.0781 545.898 80.0781 570.801 c 4
240.723 570.801 m 4
 240.723 595.703 261.23 616.211 286.133 616.211 c 4
 311.035 616.211 331.543 595.703 331.543 570.801 c 4
 331.543 545.898 311.035 525.391 286.133 525.391 c 4
 261.23 525.391 240.723 545.898 240.723 570.801 c 4
EndSplineSet
Fore
SplineSet
418.318 105 m 1
 432.792 79 l 1
 383.739 27 314.874 -10 242.874 -10 c 3
 105.874 -10 51.8545 84 76.2988 199 c 0
 108.607 351 237.312 439 332.312 439 c 3
 464.312 439 482.119 344 464.265 260 c 0
 461.927 249 453.651 243 442.651 243 c 2
 173.651 243 l 1
 141.98 94 219.415 49 275.415 49 c 3
 330.415 49 375.241 67 418.318 105 c 1
186.004 287 m 1
 367.004 287 l 2
 377.004 287 382.066 292 383.979 301 c 0
 399.921 376 359.811 399 323.811 399 c 3
 300.811 399 225.109 391 186.004 287 c 1
300.37 571 m 0
 306.108 598 335.21 622 362.21 622 c 3
 389.21 622 408.108 598 402.37 571 c 0
 396.631 544 367.529 520 340.529 520 c 3
 313.529 520 294.631 544 300.37 571 c 0
EndSplineSet
Colour: ff00ff
EndChar

StartChar: Eogonek
Encoding: 280 280 44
Width: 522
VWidth: 999
Flags: HW
HStem: -224 39<325.188 408.938> 0 25<394.25 430.875> 0 54<186.656 409.594> 321 42<182 388.188> 596 49<186.656 403.188>
VStem: 96 86<55.2087 321 363 594.385> 251 60<-173.091 -74.5789>
LayerCount: 2
Fore
SplineSet
224.512 200 m 2
 220.897 183 199.579 78 201.479 54 c 1
 335.479 54 486.028 66 486.028 66 c 1
 487.179 62 l 1
 484.479 54 480.29 39 478.164 29 c 4
 476.039 19 475.976 14 474 0 c 1
 471.362 -3 l 1
 455.787 -1 433 0 412 0 c 2
 139 0 l 7
 104 0 86.3623 -3 86.3623 -3 c 1
 86 0 l 1
 105.479 54 122.569 125 138.512 200 c 2
 190.588 445 l 2
 206.529 520 218.983 588 223.099 645 c 1
 225.736 648 l 1
 225.736 648 242.099 645 276.099 645 c 7
 306.099 645 539.099 645 539.099 645 c 2
 560.099 645 583.312 646 599.736 648 c 1
 601.099 645 l 1
 597.123 631 594.21 622 592.51 614 c 4
 590.597 605 589.684 596 588.983 588 c 1
 586.133 584 l 1
 586.133 584 450.684 596 316.684 596 c 1
 304.582 572 280.201 462 276.588 445 c 2
 259.158 363 l 1
 377.158 363 424.221 368 484.283 373 c 1
 486.646 370 l 1
 482.733 361 479.607 351 477.694 342 c 4
 475.781 333 474.656 323 474.743 314 c 1
 471.105 311 l 1
 403.593 318 298.23 321 250.23 321 c 1
 224.512 200 l 2
296.388 -224 m 0xbe
 243.388 -224 209.977 -193 221.455 -139 c 0
 235.271 -74 328.338 11 430.313 25 c 1xde
 446 0 l 1
 366 0 295.059 -75 284.218 -126 c 0
 277.416 -158 293.677 -185 329.677 -185 c 0
 359.677 -185 382.865 -170 407.329 -149 c 1
 420.629 -157 l 1
 386.639 -204 332.388 -224 296.388 -224 c 0xbe
EndSplineSet
Position2: "'cpsp' Versalabstaende 1" dx=2 dy=0 dh=5 dv=0
Substitution2: "'c2sc' Versale nach Kapitaelchen 1" eogonek.sc
Colour: ff80cc
EndChar

StartChar: eogonek
Encoding: 281 281 45
Width: 442
VWidth: 999
Flags: HW
HStem: -214 38<271.124 354.226> -10 59<197.345 335.48> 243 44<125 319.997> 399 40<175.584 290.389>
VStem: 34 88<132.133 243> 197 60<-164.209 -65.2215> 320 89<254.5 358.106>
LayerCount: 2
Back
SplineSet
311.768 -193.359 m 4
 258.057 -193.359 218.506 -162.598 218.506 -107.91 c 4
 218.506 -42.9688 293.213 41.5039 392.334 56.1523 c 5
 413.33 30.7617 l 5
 333.13 30.7617 278.564 -43.9453 278.564 -95.7031 c 4
 278.564 -127.441 300.537 -153.809 336.67 -153.809 c 4
 366.455 -153.809 386.963 -139.404 406.25 -118.652 c 5
 421.387 -126.221 l 5
 397.705 -173.34 347.21 -193.359 311.768 -193.359 c 4
EndSplineSet
Fore
SplineSet
371.88 -137 m 1
 337.865 -170 294.977 -193 260.977 -193 c 7
 211.977 -193 188.141 -164 198.131 -117 c 4
 213.01 -47 294.551 12 365.266 53 c 1
 382.864 37 l 1
 316.387 -17 277.734 -53 266.469 -106 c 4
 262.005 -127 273.329 -149 299.329 -149 c 7
 316.329 -149 341.518 -134 358.706 -119 c 1
 361.493 -120 l 1
 371.88 -137 l 1
418.318 105 m 1
 432.792 79 l 1
 383.739 27 314.874 -10 242.874 -10 c 3
 105.874 -10 51.8545 84 76.2988 199 c 0
 108.607 351 237.312 439 332.312 439 c 3
 464.312 439 482.119 344 464.265 260 c 0
 461.927 249 453.651 243 442.651 243 c 2
 173.651 243 l 1
 141.98 94 219.415 49 275.415 49 c 3
 330.415 49 375.241 67 418.318 105 c 1
186.004 287 m 1
 367.004 287 l 2
 377.004 287 382.066 292 383.979 301 c 0
 399.921 376 359.811 399 323.811 399 c 3
 300.811 399 225.109 391 186.004 287 c 1
EndSplineSet
AlternateSubs2: "'aalt' Alle Alternativen zeigen 1" eogonek.sc
Substitution2: "'smcp' Gemeine nach Kapitaelchen 1" eogonek.sc
Colour: ff00ff
EndChar

StartChar: Ecaron
Encoding: 282 282 46
Width: 522
VWidth: 999
Flags: HW
HStem: 0 54<186.656 409.594> 321 42<182 388.188> 596 49<186.656 403.188>
VStem: 96 86<55.2087 321 363 594.385>
LayerCount: 2
Fore
SplineSet
224.512 200 m 2
 220.897 183 199.579 78 201.479 54 c 1
 335.479 54 486.028 66 486.028 66 c 1
 487.179 62 l 1
 484.479 54 480.29 39 478.164 29 c 4
 476.039 19 475.976 14 474 0 c 1
 471.362 -3 l 1
 455.787 -1 433 0 412 0 c 2
 139 0 l 7
 104 0 86.3623 -3 86.3623 -3 c 1
 86 0 l 1
 105.479 54 122.569 125 138.512 200 c 2
 190.588 445 l 2
 206.529 520 218.983 588 223.099 645 c 1
 225.736 648 l 1
 225.736 648 242.099 645 276.099 645 c 7
 306.099 645 539.099 645 539.099 645 c 2
 560.099 645 583.312 646 599.736 648 c 1
 601.099 645 l 1
 597.123 631 594.21 622 592.51 614 c 4
 590.597 605 589.684 596 588.983 588 c 1
 586.133 584 l 1
 586.133 584 450.684 596 316.684 596 c 1
 304.582 572 280.201 462 276.588 445 c 2
 259.158 363 l 1
 377.158 363 424.221 368 484.283 373 c 1
 486.646 370 l 1
 482.733 361 479.607 351 477.694 342 c 4
 475.781 333 474.656 323 474.743 314 c 1
 471.105 311 l 1
 403.593 318 298.23 321 250.23 321 c 1
 224.512 200 l 2
416.152 697 m 1
 394.017 734 365.394 764 335.345 792 c 1
 355.596 812 l 1
 390.982 795 420.944 776 448.63 751 c 1
 491.156 777 527.195 796 568.596 812 c 1
 579.345 792 l 1
 535.181 763 496.379 731 459.152 697 c 1
 416.152 697 l 1
EndSplineSet
Position2: "'cpsp' Versalabstaende 1" dx=2 dy=0 dh=5 dv=0
Substitution2: "'c2sc' Versale nach Kapitaelchen 1" ecaron.sc
Colour: ff00ff
EndChar

StartChar: ecaron
Encoding: 283 283 47
Width: 442
VWidth: 999
Flags: HW
HStem: -10 59<197.345 335.48> 243 44<125 319.997> 399 40<175.584 290.389>
VStem: 34 88<132.133 243> 320 89<254.5 358.106>
LayerCount: 2
Back
SplineSet
518.555 502.441 m 5
 489.746 549.316 452.148 594.727 417.48 632.324 c 5
 437.988 645.508 l 5
 477.051 616.699 509.277 591.309 543.457 555.176 c 5
 580.566 593.262 614.258 618.652 651.367 645.508 c 5
 670.41 632.324 l 5
 635.742 592.773 597.656 548.34 568.359 502.441 c 5
 518.555 502.441 l 5
-202.637 647.949 m 5
 -200.684 596.68 -154.297 556.152 -93.75 556.152 c 4
 -47.8516 556.152 11.7188 585.938 14.1602 647.949 c 5
 40.5273 634.277 l 5
 30.7617 533.691 -43.9453 499.023 -93.75 499.023 c 4
 -171.387 499.023 -222.168 556.641 -229.492 634.277 c 5
 -202.637 647.949 l 5
151.855 645.508 m 5
 180.664 598.633 217.285 555.664 252.93 515.625 c 5
 232.422 502.441 l 5
 193.359 531.25 159.668 556.152 125.977 592.285 c 5
 88.8672 554.199 56.1523 529.297 19.043 502.441 c 5
 -0.488281 515.625 l 5
 34.668 555.176 72.7539 599.609 102.051 645.508 c 5
 151.855 645.508 l 5
-90.5762 664.062 m 5
 528.076 664.062 l 5
 528.076 500.732 l 5
 -90.5762 500.732 l 5
 -90.5762 664.062 l 5
446.289 662.598 m 21
 449.707 664.062 456.055 665.039 460.938 665.039 c 4
 488.936 665.039 501.382 654.214 509.766 646.704 c 4
 512.07 644.639 514.121 642.856 516.113 641.602 c 5
 518.555 630.859 l 5
 403.809 521.973 l 6
 388.184 507.324 381.348 502.441 375 502.441 c 4
 367.188 502.441 360.352 507.974 360.352 514.487 c 4
 360.352 519.858 360.443 527.246 366.699 537.109 c 6
 446.289 662.598 l 21
-90.5762 616.211 m 5
 528.076 616.211 l 5
 528.076 525.635 l 5
 -90.5762 525.635 l 5
 -90.5762 616.211 l 5
87.8906 570.801 m 4
 87.8906 595.703 108.398 616.211 133.301 616.211 c 4
 158.203 616.211 178.711 595.703 178.711 570.801 c 4
 178.711 545.898 158.203 525.391 133.301 525.391 c 4
 108.398 525.391 87.8906 545.898 87.8906 570.801 c 4
248.535 570.801 m 4
 248.535 595.703 269.043 616.211 293.945 616.211 c 4
 318.848 616.211 339.355 595.703 339.355 570.801 c 4
 339.355 545.898 318.848 525.391 293.945 525.391 c 4
 269.043 525.391 248.535 545.898 248.535 570.801 c 4
EndSplineSet
Fore
SplineSet
418.318 105 m 1
 432.792 79 l 1
 383.739 27 314.874 -10 242.874 -10 c 3
 105.874 -10 51.8545 84 76.2988 199 c 0
 108.607 351 237.312 439 332.312 439 c 3
 464.312 439 482.119 344 464.265 260 c 0
 461.927 249 453.651 243 442.651 243 c 2
 173.651 243 l 1
 141.98 94 219.415 49 275.415 49 c 3
 330.415 49 375.241 67 418.318 105 c 1
186.004 287 m 1
 367.004 287 l 2
 377.004 287 382.066 292 383.979 301 c 0
 399.921 376 359.811 399 323.811 399 c 3
 300.811 399 225.109 391 186.004 287 c 1
305.491 501 m 1
 286.481 548 259.046 593 232.123 631 c 1
 254.887 644 l 1
 287.723 615 315.408 590 341.756 554 c 1
 386.833 592 426.147 617 468.887 644 c 1
 485.123 631 l 1
 441.833 592 394.269 547 355.491 501 c 1
 305.491 501 l 1
EndSplineSet
AlternateSubs2: "'aalt' Alle Alternativen zeigen 1" ecaron.sc
Substitution2: "'smcp' Gemeine nach Kapitaelchen 1" ecaron.sc
Colour: ff00ff
EndChar

StartChar: Gcircumflex
Encoding: 284 284 48
Width: 699
VWidth: 999
Flags: HW
HStem: -10 46<295.106 519.78> 611 47<271.555 476.844>
VStem: 32 103<213.43 430.807> 546 86<83.5114 304.327>
LayerCount: 2
Fore
SplineSet
570.869 117 m 6
 585.337 191.985 597.139 250 601.255 307 c 5
 603.893 310 l 5
 603.893 310 620.255 307 654.255 307 c 4
 689.255 307 706.893 310 706.893 310 c 5
 707.255 307 l 5
 687.989 254 677.062 212 661.12 137 c 6
 659.845 131 l 2
 657.507 120 653.242 93.667 659.643 83 c 1
 659.005 80 l 1
 579.511 23.3506 490.335 -10 373.874 -10 c 0
 172.874 -10 60.4824 134 97.2549 307 c 0
 144.018 527 348.862 658 520.862 658 c 0
 642.862 658 729.297 613 729.297 613 c 1
 730.659 609.999 l 1
 708.429 560.747 701.458 549.993 687.065 499 c 1
 676.854 498 l 1
 653.283 580 586.872 611 496.872 611 c 0
 361.872 611 241.703 502 204.506 327 c 0
 176.448 195 228.652 36 406.652 36 c 0
 460.652 36 520.928 42 561.729 74 c 1
 570.869 117 l 6
556.108 805 m 1
 578.456 769 606.867 738 637.128 711 c 1
 616.664 690 l 1
 581.49 708 551.528 727 523.843 752 c 1
 481.104 725 445.277 707 403.664 690 c 1
 394.128 711 l 1
 437.079 739 474.881 771 513.108 805 c 1
 556.108 805 l 1
EndSplineSet
Position2: "'cpsp' Versalabstaende 1" dx=2 dy=0 dh=5 dv=0
Colour: ff00ff
EndChar

StartChar: gcircumflex
Encoding: 285 285 49
Width: 479
VWidth: 999
Flags: HW
HStem: -238 43<141.427 314.366> -15 62<137.607 251.772> -12 66<172.809 355.253> 136 44<169.974 279.135> 395 44<163.808 275.455>
VStem: 32 66<-157.208 -57.419> 59 78<215.424 363.363> 64 56<55.5258 149.891> 103 253<516 516> 308 76<209.668 361.501> 392 61<-135.741 -44.0939>
LayerCount: 2
Fore
SplineSet
367.304 279 m 0x9ac0
 383.245 354 357.96 395 297.96 395 c 3
 245.96 395 210.757 347 201.192 302 c 0
 187.589 238 199.26 180 265.26 180 c 3
 300.26 180 352.212 208 367.304 279 c 0x9ac0
445.429 289 m 0
 424.599 191 334.907 136 250.907 136 c 3
 213.907 136 190.396 143 170.371 157 c 1xbac0
 155.758 140 145.294 119 141.043 99 c 0
 131.903 56 159.99 47 187.99 47 c 3xd9c0
 192.99 47 203.203 48 217.415 49 c 0
 241.053 52 264.479 54 281.479 54 c 3
 316.479 54 384.766 53 415.464 21 c 0
 438.378 -2.88574 445.348 -36 438.546 -68 c 0
 415.59 -176 262.411 -238 133.411 -238 c 3
 60.4111 -238 -12.8496 -211 5.64258 -124 c 0xbcc0
 14.7832 -81 51.5605 -35 109.362 -3 c 1
 87.126 10 72.0771 38 79.7295 74 c 0xb9c0
 86.9561 108 111.096 151 143.197 175 c 1
 121.937 202 108.525 233 120.004 287 c 0
 139.559 379 231.312 439 316.312 439 c 3
 337.776 439 357.021 436.038 373.763 430.442 c 1
 449.138 434.319 486.742 444.946 535.438 449 c 1
 537.8 446 l 1
 533.888 437 531.187 429 529.273 420 c 0
 527.36 411 526.66 403 526.747 394 c 1
 523.109 391 l 1
 482.778 395.182 450.58 399.007 420.957 401.409 c 1
 446.054 375.04 455.447 336.134 445.429 289 c 0
144.186 -13.7109 m 1
 101.17 -42.9531 82.9258 -70.9189 75.8945 -104 c 0
 61.4404 -172 136.552 -195 170.552 -195 c 3
 256.552 -195 359.691 -152 372.657 -91 c 0
 378.184 -65 374.695 -50.8164 341.836 -29 c 0
 317.736 -13 280.449 -12 232.449 -12 c 3xbcc0
 218.649 -12 192.312 -15 162.812 -15 c 3xdcc0
 156.891 -15 150.427 -14.5332 144.186 -13.7109 c 1
392.099 645 m 1
 411.108 598 438.182 556 465.679 516 c 1
 441.703 502 l 1
 408.867 531 381.182 556 354.833 592 c 1
 309.756 554 272.442 529 228.703 502 c 1
 211.679 516 l 1
 256.182 556 303.321 599 342.099 645 c 1
 392.099 645 l 1
EndSplineSet
Colour: ff00ff
EndChar

StartChar: Gbreve
Encoding: 286 286 50
Width: 699
VWidth: 999
Flags: HW
HStem: -10 46<295.106 519.78> 611 47<271.555 476.844> 693 52<293 449>
VStem: 32 103<213.43 430.807> 236 28<766 804> 480 27<768 806> 546 86<83.5114 304.327>
LayerCount: 2
Fore
SplineSet
570.869 117 m 6
 585.337 191.985 597.139 250 601.255 307 c 5
 603.893 310 l 5
 603.893 310 620.255 307 654.255 307 c 4
 689.255 307 706.893 310 706.893 310 c 5
 707.255 307 l 5
 687.989 254 677.062 212 661.12 137 c 6
 659.845 131 l 2
 657.507 120 653.242 93.667 659.643 83 c 1
 659.005 80 l 1
 579.511 23.3506 490.335 -10 373.874 -10 c 0
 172.874 -10 60.4824 134 97.2549 307 c 0
 144.018 527 348.862 658 520.862 658 c 0
 642.862 658 729.297 613 729.297 613 c 1
 730.659 609.999 l 1
 708.429 560.747 701.458 549.993 687.065 499 c 1
 676.854 498 l 1
 653.283 580 586.872 611 496.872 611 c 0
 361.872 611 241.703 502 204.506 327 c 0
 176.448 195 228.652 36 406.652 36 c 0
 460.652 36 520.928 42 561.729 74 c 1
 570.869 117 l 6
679.32 806 m 5
 658.229 735 585.302 693 519.302 693 c 7
 446.302 693 397.441 736 407.32 806 c 5
 435.32 806 l 5
 435.031 767 477.354 745 530.354 745 c 7
 579.354 745 636.031 767 651.32 806 c 5
 679.32 806 l 5
EndSplineSet
Position2: "'cpsp' Versalabstaende 1" dx=2 dy=0 dh=5 dv=0
Substitution2: "'c2sc' Versale nach Kapitaelchen 1" gbreve.sc
Colour: ff00ff
EndChar

StartChar: gbreve
Encoding: 287 287 51
Width: 479
VWidth: 999
Flags: HW
HStem: -238 43<141.427 314.366> -15 62<137.607 251.772> -12 66<172.809 355.253> 136 44<169.974 279.135> 395 44<163.808 275.455> 497 57<150.968 287.898>
VStem: 32 66<-157.208 -57.419> 59 78<215.424 363.363> 64 56<55.5258 149.891> 85 26<603.805 635.769> 308 76<209.668 361.501> 328 27<605.333 635.63> 392 61<-135.741 -44.0939>
LayerCount: 2
Fore
SplineSet
367.304 279 m 0x9ac0
 383.245 354 357.96 395 297.96 395 c 3
 245.96 395 210.757 347 201.192 302 c 0
 187.589 238 199.26 180 265.26 180 c 3
 300.26 180 352.212 208 367.304 279 c 0x9ac0
445.429 289 m 0
 424.599 191 334.907 136 250.907 136 c 3
 213.907 136 190.396 143 170.371 157 c 1xbac0
 155.758 140 145.294 119 141.043 99 c 0
 131.903 56 159.99 47 187.99 47 c 3xd9c0
 192.99 47 203.203 48 217.415 49 c 0
 241.053 52 264.479 54 281.479 54 c 3
 316.479 54 384.766 53 415.464 21 c 0
 438.378 -2.88574 445.348 -36 438.546 -68 c 0
 415.59 -176 262.411 -238 133.411 -238 c 3
 60.4111 -238 -12.8496 -211 5.64258 -124 c 0xbcc0
 14.7832 -81 51.5605 -35 109.362 -3 c 1
 87.126 10 72.0771 38 79.7295 74 c 0xb9c0
 86.9561 108 111.096 151 143.197 175 c 1
 121.937 202 108.525 233 120.004 287 c 0
 139.559 379 231.312 439 316.312 439 c 3
 337.776 439 357.021 436.038 373.763 430.442 c 1
 449.138 434.319 486.742 444.946 535.438 449 c 1
 537.8 446 l 1
 533.888 437 531.187 429 529.273 420 c 0
 527.36 411 526.66 403 526.747 394 c 1
 523.109 391 l 1
 482.778 395.182 450.58 399.007 420.957 401.409 c 1
 446.054 375.04 455.447 336.134 445.429 289 c 0
144.186 -13.7109 m 1
 101.17 -42.9531 82.9258 -70.9189 75.8945 -104 c 0
 61.4404 -172 136.552 -195 170.552 -195 c 3
 256.552 -195 359.691 -152 372.657 -91 c 0
 378.184 -65 374.695 -50.8164 341.836 -29 c 0
 317.736 -13 280.449 -12 232.449 -12 c 3xbcc0
 218.649 -12 192.312 -15 162.812 -15 c 3xdcc0
 156.891 -15 150.427 -14.5332 144.186 -13.7109 c 1
248.887 644 m 1
 248.621 591 283.719 554 337.756 554 c 3
 389.756 554 442.559 586 464.887 644 c 1
 489.336 632 l 1
 459.056 546 384.641 497 325.641 497 c 3
 255.634 497 215.269 547 219.336 632 c 1
 248.887 644 l 1
EndSplineSet
AlternateSubs2: "'aalt' Alle Alternativen zeigen 1" gbreve.sc
Substitution2: "'smcp' Gemeine nach Kapitaelchen 1" gbreve.sc
Colour: ff00ff
EndChar

StartChar: Gdotaccent
Encoding: 288 288 52
Width: 699
VWidth: 999
Flags: HW
HStem: -10 46<295.106 519.78> 611 47<271.555 476.844> 701 104<333.248 416.458>
VStem: 32 103<213.43 430.807> 323 104<711.542 794.752> 546 86<83.5114 304.327>
LayerCount: 2
Fore
SplineSet
570.869 117 m 6
 585.337 191.985 597.139 250 601.255 307 c 5
 603.893 310 l 5
 603.893 310 620.255 307 654.255 307 c 4
 689.255 307 706.893 310 706.893 310 c 5
 707.255 307 l 5
 687.989 254 677.062 212 661.12 137 c 6
 659.845 131 l 2
 657.507 120 653.242 93.667 659.643 83 c 1
 659.005 80 l 1
 579.511 23.3506 490.335 -10 373.874 -10 c 0
 172.874 -10 60.4824 134 97.2549 307 c 0
 144.018 527 348.862 658 520.862 658 c 0
 642.862 658 729.297 613 729.297 613 c 1
 730.659 609.999 l 1
 708.429 560.747 701.458 549.993 687.065 499 c 1
 676.854 498 l 1
 653.283 580 586.872 611 496.872 611 c 0
 361.872 611 241.703 502 204.506 327 c 0
 176.448 195 228.652 36 406.652 36 c 0
 460.652 36 520.928 42 561.729 74 c 1
 570.869 117 l 6
484.055 753 m 0
 489.794 780 518.896 804 545.896 804 c 3
 572.896 804 591.794 780 586.055 753 c 0
 580.316 726 551.215 702 524.215 702 c 3
 497.215 702 478.316 726 484.055 753 c 0
EndSplineSet
Position2: "'cpsp' Versalabstaende 1" dx=2 dy=0 dh=5 dv=0
Colour: ff00ff
EndChar

StartChar: gdotaccent
Encoding: 289 289 53
Width: 479
VWidth: 999
Flags: HW
HStem: -238 43<141.427 314.366> -15 62<137.607 251.772> -12 66<172.809 355.253> 136 44<169.974 279.135> 395 44<163.808 275.455> 518 104<183.248 266.458>
VStem: 32 66<-157.208 -57.419> 59 78<215.424 363.363> 64 56<55.5258 149.891> 173 104<528.542 611.752> 308 76<209.668 361.501> 392 61<-135.741 -44.0939>
LayerCount: 2
Back
SplineSet
-98.3887 618.652 m 5
 520.264 618.652 l 5
 520.508 522.949 l 5
 -98.6328 522.949 l 5
 -98.3887 618.652 l 5
510.742 502.441 m 5
 481.934 549.316 444.336 594.727 409.668 632.324 c 5
 430.176 645.508 l 5
 469.238 616.699 501.465 591.309 535.645 555.176 c 5
 572.754 593.262 606.445 618.652 643.555 645.508 c 5
 662.598 632.324 l 5
 627.93 592.773 589.844 548.34 560.547 502.441 c 5
 510.742 502.441 l 5
-210.449 647.949 m 5
 -208.496 596.68 -162.109 556.152 -101.562 556.152 c 4
 -55.6641 556.152 3.90625 585.938 6.34766 647.949 c 5
 32.7148 634.277 l 5
 22.9492 533.691 -51.7578 499.023 -101.562 499.023 c 4
 -179.199 499.023 -229.98 556.641 -237.305 634.277 c 5
 -210.449 647.949 l 5
144.043 645.508 m 5
 172.852 598.633 209.473 555.664 245.117 515.625 c 5
 224.609 502.441 l 5
 185.547 531.25 151.855 556.152 118.164 592.285 c 5
 81.0547 554.199 48.3398 529.297 11.2305 502.441 c 5
 -8.30078 515.625 l 5
 26.8555 555.176 64.9414 599.609 94.2383 645.508 c 5
 144.043 645.508 l 5
-98.3887 664.062 m 5
 520.264 664.062 l 5
 520.264 500.732 l 5
 -98.3887 500.732 l 5
 -98.3887 664.062 l 5
438.477 662.598 m 21
 441.895 664.062 448.242 665.039 453.125 665.039 c 4
 481.123 665.039 493.569 654.214 501.953 646.704 c 4
 504.258 644.639 506.309 642.856 508.301 641.602 c 5
 510.742 630.859 l 5
 395.996 521.973 l 6
 380.371 507.324 373.535 502.441 367.188 502.441 c 4
 359.375 502.441 352.539 507.974 352.539 514.487 c 4
 352.539 519.858 352.631 527.246 358.887 537.109 c 6
 438.477 662.598 l 21
-98.3887 616.211 m 5
 520.264 616.211 l 5
 520.508 525.391 l 5
 -98.6328 525.391 l 5
 -98.3887 616.211 l 5
80.0781 570.801 m 4
 80.0781 595.703 100.586 616.211 125.488 616.211 c 4
 150.391 616.211 170.898 595.703 170.898 570.801 c 4
 170.898 545.898 150.391 525.391 125.488 525.391 c 4
 100.586 525.391 80.0781 545.898 80.0781 570.801 c 4
240.723 570.801 m 4
 240.723 595.703 261.23 616.211 286.133 616.211 c 4
 311.035 616.211 331.543 595.703 331.543 570.801 c 4
 331.543 545.898 311.035 525.391 286.133 525.391 c 4
 261.23 525.391 240.723 545.898 240.723 570.801 c 4
EndSplineSet
Fore
SplineSet
367.304 279 m 0x9ac0
 383.245 354 357.96 395 297.96 395 c 3
 245.96 395 210.757 347 201.192 302 c 0
 187.589 238 199.26 180 265.26 180 c 3
 300.26 180 352.212 208 367.304 279 c 0x9ac0
445.429 289 m 0
 424.599 191 334.907 136 250.907 136 c 3
 213.907 136 190.396 143 170.371 157 c 1xbac0
 155.758 140 145.294 119 141.043 99 c 0
 131.903 56 159.99 47 187.99 47 c 3xd9c0
 192.99 47 203.203 48 217.415 49 c 0
 241.053 52 264.479 54 281.479 54 c 3
 316.479 54 384.766 53 415.464 21 c 0
 438.378 -2.88574 445.348 -36 438.546 -68 c 0
 415.59 -176 262.411 -238 133.411 -238 c 3
 60.4111 -238 -12.8496 -211 5.64258 -124 c 0xbcc0
 14.7832 -81 51.5605 -35 109.362 -3 c 1
 87.126 10 72.0771 38 79.7295 74 c 0xb9c0
 86.9561 108 111.096 151 143.197 175 c 1
 121.937 202 108.525 233 120.004 287 c 0
 139.559 379 231.312 439 316.312 439 c 3
 337.776 439 357.021 436.038 373.763 430.442 c 1
 449.138 434.319 486.742 444.946 535.438 449 c 1
 537.8 446 l 1
 533.888 437 531.187 429 529.273 420 c 0
 527.36 411 526.66 403 526.747 394 c 1
 523.109 391 l 1
 482.778 395.182 450.58 399.007 420.957 401.409 c 1
 446.054 375.04 455.447 336.134 445.429 289 c 0
144.186 -13.7109 m 1
 101.17 -42.9531 82.9258 -70.9189 75.8945 -104 c 0
 61.4404 -172 136.552 -195 170.552 -195 c 3
 256.552 -195 359.691 -152 372.657 -91 c 0
 378.184 -65 374.695 -50.8164 341.836 -29 c 0
 317.736 -13 280.449 -12 232.449 -12 c 3xbcc0
 218.649 -12 192.312 -15 162.812 -15 c 3xdcc0
 156.891 -15 150.427 -14.5332 144.186 -13.7109 c 1
295.157 570 m 0
 300.896 597 329.998 621 356.998 621 c 3
 383.998 621 402.896 597 397.157 570 c 0
 391.418 543 362.316 519 335.316 519 c 3
 308.316 519 289.418 543 295.157 570 c 0
EndSplineSet
Colour: ff00ff
EndChar

StartChar: Gcommaaccent
Encoding: 290 290 54
Width: 699
VWidth: 999
Flags: HW
HStem: -231 17<330 351.215> -134 81<329.998 402.485> -10 46<295.106 519.78> 611 47<271.555 476.844>
VStem: 32 103<213.43 430.807> 405 32<-177.598 -107.5> 546 86<83.5114 304.327>
LayerCount: 2
Fore
SplineSet
570.869 117 m 6
 585.337 191.985 597.139 250 601.255 307 c 5
 603.893 310 l 5
 603.893 310 620.255 307 654.255 307 c 4
 689.255 307 706.893 310 706.893 310 c 5
 707.255 307 l 5
 687.989 254 677.062 212 661.12 137 c 6
 659.845 131 l 2
 657.507 120 653.242 93.667 659.643 83 c 1
 659.005 80 l 1
 579.511 23.3506 490.335 -10 373.874 -10 c 0
 172.874 -10 60.4824 134 97.2549 307 c 0
 144.018 527 348.862 658 520.862 658 c 0
 642.862 658 729.297 613 729.297 613 c 1
 730.659 609.999 l 1
 708.429 560.747 701.458 549.993 687.065 499 c 1
 676.854 498 l 1
 653.283 580 586.872 611 496.872 611 c 0
 361.872 611 241.703 502 204.506 327 c 0
 176.448 195 228.652 36 406.652 36 c 0
 460.652 36 520.928 42 561.729 74 c 1
 570.869 117 l 6
361.821 -62 m 3
 399.821 -62 416.595 -96 405.542 -148 c 0
 392.788 -208 337.411 -238 278.498 -247 c 1
 273.773 -241 273.687 -232 275.6 -223 c 1
 326.938 -212 358.039 -188 361.865 -170 c 0
 366.116 -150 353.967 -146 336.392 -144 c 0
 320.029 -141 296.942 -132 302.682 -105 c 0
 307.783 -81 332.821 -62 361.821 -62 c 3
EndSplineSet
Position2: "'cpsp' Versalabstaende 1" dx=2 dy=0 dh=5 dv=0
Colour: ff00ff
EndChar

StartChar: gcommaaccent
Encoding: 291 291 55
Width: 479
VWidth: 999
Flags: HW
HStem: -238 43<141.427 314.366> -15 62<137.607 251.772> -12 66<172.809 355.253> 136 44<169.974 279.135> 395 44<163.808 275.455> 511 82<199.561 272.708> 673 17<251.498 273>
VStem: 32 66<-157.208 -57.419> 59 78<215.424 363.363> 64 56<55.5258 149.891> 166 32<584 635.93> 308 76<209.668 361.501> 392 61<-135.741 -44.0939>
LayerCount: 2
Back
SplineSet
518.555 502.441 m 5
 489.746 549.316 452.148 594.727 417.48 632.324 c 5
 437.988 645.508 l 5
 477.051 616.699 509.277 591.309 543.457 555.176 c 5
 580.566 593.262 614.258 618.652 651.367 645.508 c 5
 670.41 632.324 l 5
 635.742 592.773 597.656 548.34 568.359 502.441 c 5
 518.555 502.441 l 5
-202.637 647.949 m 5
 -200.684 596.68 -154.297 556.152 -93.75 556.152 c 4
 -47.8516 556.152 11.7188 585.938 14.1602 647.949 c 5
 40.5273 634.277 l 5
 30.7617 533.691 -43.9453 499.023 -93.75 499.023 c 4
 -171.387 499.023 -222.168 556.641 -229.492 634.277 c 5
 -202.637 647.949 l 5
151.855 645.508 m 5
 180.664 598.633 217.285 555.664 252.93 515.625 c 5
 232.422 502.441 l 5
 193.359 531.25 159.668 556.152 125.977 592.285 c 5
 88.8672 554.199 56.1523 529.297 19.043 502.441 c 5
 -0.488281 515.625 l 5
 34.668 555.176 72.7539 599.609 102.051 645.508 c 5
 151.855 645.508 l 5
-90.5762 664.062 m 5
 528.076 664.062 l 5
 528.076 500.732 l 5
 -90.5762 500.732 l 5
 -90.5762 664.062 l 5
446.289 662.598 m 21
 449.707 664.062 456.055 665.039 460.938 665.039 c 4
 488.936 665.039 501.382 654.214 509.766 646.704 c 4
 512.07 644.639 514.121 642.856 516.113 641.602 c 5
 518.555 630.859 l 5
 403.809 521.973 l 6
 388.184 507.324 381.348 502.441 375 502.441 c 4
 367.188 502.441 360.352 507.974 360.352 514.487 c 4
 360.352 519.858 360.443 527.246 366.699 537.109 c 6
 446.289 662.598 l 21
-90.5762 616.211 m 5
 528.076 616.211 l 5
 528.076 525.635 l 5
 -90.5762 525.635 l 5
 -90.5762 616.211 l 5
87.8906 570.801 m 4
 87.8906 595.703 108.398 616.211 133.301 616.211 c 4
 158.203 616.211 178.711 595.703 178.711 570.801 c 4
 178.711 545.898 158.203 525.391 133.301 525.391 c 4
 108.398 525.391 87.8906 545.898 87.8906 570.801 c 4
248.535 570.801 m 4
 248.535 595.703 269.043 616.211 293.945 616.211 c 4
 318.848 616.211 339.355 595.703 339.355 570.801 c 4
 339.355 545.898 318.848 525.391 293.945 525.391 c 4
 269.043 525.391 248.535 545.898 248.535 570.801 c 4
EndSplineSet
Fore
SplineSet
367.304 279 m 0x9ac0
 383.245 354 357.96 395 297.96 395 c 3
 245.96 395 210.757 347 201.192 302 c 0
 187.589 238 199.26 180 265.26 180 c 3
 300.26 180 352.212 208 367.304 279 c 0x9ac0
445.429 289 m 0
 424.599 191 334.907 136 250.907 136 c 3
 213.907 136 190.396 143 170.371 157 c 1xbac0
 155.758 140 145.294 119 141.043 99 c 0
 131.903 56 159.99 47 187.99 47 c 3xd9c0
 192.99 47 203.203 48 217.415 49 c 0
 241.053 52 264.479 54 281.479 54 c 3
 316.479 54 384.766 53 415.464 21 c 0
 438.378 -2.88574 445.348 -36 438.546 -68 c 0
 415.59 -176 262.411 -238 133.411 -238 c 3
 60.4111 -238 -12.8496 -211 5.64258 -124 c 0xbcc0
 14.7832 -81 51.5605 -35 109.362 -3 c 1
 87.126 10 72.0771 38 79.7295 74 c 0xb9c0
 86.9561 108 111.096 151 143.197 175 c 1
 121.937 202 108.525 233 120.004 287 c 0
 139.559 379 231.312 439 316.312 439 c 3
 337.776 439 357.021 436.038 373.763 430.442 c 1
 449.138 434.319 486.742 444.946 535.438 449 c 1
 537.8 446 l 1
 533.888 437 531.187 429 529.273 420 c 0
 527.36 411 526.66 403 526.747 394 c 1
 523.109 391 l 1
 482.778 395.182 450.58 399.007 420.957 401.409 c 1
 446.054 375.04 455.447 336.134 445.429 289 c 0
144.186 -13.7109 m 1
 101.17 -42.9531 82.9258 -70.9189 75.8945 -104 c 0
 61.4404 -172 136.552 -195 170.552 -195 c 3
 256.552 -195 359.691 -152 372.657 -91 c 0
 378.184 -65 374.695 -50.8164 341.836 -29 c 0
 317.736 -13 280.449 -12 232.449 -12 c 3xbcc0
 218.649 -12 192.312 -15 162.812 -15 c 3xdcc0
 156.891 -15 150.427 -14.5332 144.186 -13.7109 c 1
336.616 511 m 7
 297.616 511 282.481 548 290.133 584 c 4
 295.239 608.021 306.91 630 327.162 650 c 4
 348.524 671.098 380.239 688 419.302 693 c 5
 422.451 689 421.538 680 420.051 673 c 5
 360.5 661 333.703 629.021 328.81 606 c 4
 324.649 586.428 330.833 593 355.046 593 c 7
 395.046 593 399.944 569 396.331 552 c 4
 392.931 536 371.616 511 336.616 511 c 7
EndSplineSet
Colour: ff00ff
EndChar

StartChar: Hcircumflex
Encoding: 292 292 56
Width: 700
VWidth: 999
Flags: HW
HStem: -3 21<93 146 146 199 501 554 554 607> 321 42<187 513> 628 20<93 146 146 199 501 554 554 607>
VStem: 103 86<2.67992 642.32> 511 86<2.67992 642.32>
LayerCount: 2
Fore
SplineSet
538.683 803 m 1
 561.031 767 589.441 736 619.702 709 c 1
 599.239 688 l 1
 564.064 706 534.104 725 506.417 750 c 1
 463.679 723 427.853 705 386.239 688 c 1
 376.702 709 l 1
 419.654 737 457.456 769 495.683 803 c 1
 538.683 803 l 1
197.588 445 m 2
 213.529 520 225.983 588 230.099 645 c 1
 232.736 648 l 1
 232.736 648 249.099 645 283.099 645 c 0
 318.099 645 335.736 648 335.736 648 c 1
 336.099 645 l 1
 316.833 592 299.529 520 283.588 445 c 2
 231.512 200 l 6
 215.569 125 203.116 57 199 0 c 5
 196.362 -3 l 5
 196.362 -3 180 0 146 0 c 4
 111 0 93.3623 -3 93.3623 -3 c 5
 93 0 l 5
 112.479 54 129.569 125 145.512 200 c 6
 197.588 445 l 2
605.588 445 m 2
 621.529 520 633.983 588 638.099 645 c 1
 640.736 648 l 1
 640.736 648 657.099 645 691.099 645 c 0
 726.099 645 743.736 648 743.736 648 c 1
 744.099 645 l 1
 724.833 592 707.529 520 691.588 445 c 2
 639.512 200 l 6
 623.569 125 611.116 57 607 0 c 5
 604.362 -3 l 5
 604.362 -3 588 0 554 0 c 4
 519 0 501.362 -3 501.362 -3 c 5
 501 0 l 5
 520.479 54 537.569 125 553.512 200 c 6
 605.588 445 l 2
590.158 363 m 29
 581.23 321 l 5
 255.23 321 l 5
 264.158 363 l 21
 590.158 363 l 29
EndSplineSet
Position2: "'cpsp' Versalabstaende 1" dx=2 dy=0 dh=5 dv=0
Colour: ff00ff
EndChar

StartChar: hcircumflex
Encoding: 293 293 57
Width: 520
VWidth: 999
Flags: HW
HStem: -3 21<73 123 123 173 348 398 398 448> 382 57<239.694 343.936> 678 20<151.465 167.167>
VStem: 83 80<2.66453 327.568 360 667.98> 358 80<2.66453 368.709>
LayerCount: 2
Fore
SplineSet
396.26 180 m 2
 418.579 285 l 2
 435.796 366 420.196 382 364.196 382 c 0
 335.196 382 286.67 356 228.68 309 c 1
 201.26 180 l 2
 185.056 103.766 176.616 57 173 0 c 1
 170.362 -3 l 1
 170.362 -3 157.333 0 123 0 c 0
 88 0 73.3623 -3 73.3623 -3 c 1
 73 0 l 1
 92.8721 53.5 105.42 105.477 121.26 180 c 2
 185.239 481 l 6
 201.394 557 214.011 627.333 215.413 670 c 5
 218.051 673 l 5
 259.188 676 285.163 687.972 312.364 698 c 5
 318.697 698 320.727 695 319.239 688 c 5
 298.535 626.667 285.22 575 269.491 501 c 6
 239.521 360 l 1
 320.762 427 382.312 439 421.312 439 c 0
 493.312 439 520.26 387 498.366 284 c 2
 476.26 180 l 2
 460.055 103.759 451.616 57 448 0 c 1
 445.362 -3 l 1
 445.362 -3 432.333 0 398 0 c 0
 363 0 348.362 -3 348.362 -3 c 1
 348 0 l 1
 367.872 53.5 380.418 105.47 396.26 180 c 2
462.847 832 m 1
 485.195 796 513.605 765 543.867 738 c 1
 523.403 717 l 1
 488.229 735 458.268 754 430.582 779 c 1
 387.843 752 352.017 734 310.403 717 c 1
 300.867 738 l 1
 343.818 766 381.62 798 419.847 832 c 1
 462.847 832 l 1
EndSplineSet
Colour: ff00ff
EndChar

StartChar: Hbar
Encoding: 294 294 58
Width: 700
VWidth: 999
Flags: HW
HStem: -3 21<93 146 146 199 501 554 554 607> 321 42<187 513> 512 34<41 656> 628 20<93 146 146 199 501 554 554 607>
VStem: 103 86<2.67992 642.32> 511 86<2.67992 642.32>
LayerCount: 2
Fore
SplineSet
197.588 445 m 2
 213.529 520 225.983 588 230.099 645 c 1
 232.736 648 l 1
 232.736 648 249.099 645 283.099 645 c 0
 318.099 645 335.736 648 335.736 648 c 1
 336.099 645 l 1
 316.833 592 299.529 520 283.588 445 c 2
 231.512 200 l 6
 215.569 125 203.116 57 199 0 c 5
 196.362 -3 l 5
 196.362 -3 180 0 146 0 c 4
 111 0 93.3623 -3 93.3623 -3 c 5
 93 0 l 5
 112.479 54 129.569 125 145.512 200 c 6
 197.588 445 l 2
605.588 445 m 2
 621.529 520 633.983 588 638.099 645 c 1
 640.736 648 l 1
 640.736 648 657.099 645 691.099 645 c 0
 726.099 645 743.736 648 743.736 648 c 1
 744.099 645 l 1
 724.833 592 707.529 520 691.588 445 c 2
 639.512 200 l 6
 623.569 125 611.116 57 607 0 c 5
 604.362 -3 l 5
 604.362 -3 588 0 554 0 c 4
 519 0 501.362 -3 501.362 -3 c 5
 501 0 l 5
 520.479 54 537.569 125 553.512 200 c 6
 605.588 445 l 2
590.158 363 m 29
 581.23 321 l 5
 255.23 321 l 5
 264.158 363 l 21
 590.158 363 l 29
157.056 546 m 17
 772.056 546 l 9
 764.829 512 l 25
 149.829 512 l 25
 157.056 546 l 17
EndSplineSet
Position2: "'cpsp' Versalabstaende 1" dx=2 dy=0 dh=5 dv=0
Colour: ff80cc
EndChar

StartChar: hbar
Encoding: 295 295 59
Width: 520
VWidth: 999
Flags: HW
HStem: -3 21<73 123 123 173 348 398 398 448> 382 57<239.694 343.936> 530 39<26 341> 678 20<151.465 167.167>
VStem: 83 80<2.66453 327.568 360 667.98> 358 80<2.66453 368.709>
LayerCount: 2
Fore
SplineSet
396.26 180 m 2
 418.579 285 l 2
 435.796 366 420.196 382 364.196 382 c 0
 335.196 382 286.67 356 228.68 309 c 1
 201.26 180 l 2
 185.056 103.766 176.616 57 173 0 c 1
 170.362 -3 l 1
 170.362 -3 157.333 0 123 0 c 0
 88 0 73.3623 -3 73.3623 -3 c 1
 73 0 l 1
 92.8721 53.5 105.42 105.477 121.26 180 c 2
 185.239 481 l 6
 201.394 557 214.011 627.333 215.413 670 c 5
 218.051 673 l 5
 259.188 676 285.163 687.972 312.364 698 c 5
 318.697 698 320.727 695 319.239 688 c 5
 298.535 626.667 285.22 575 269.491 501 c 6
 239.521 360 l 1
 320.762 427 382.312 439 421.312 439 c 0
 493.312 439 520.26 387 498.366 284 c 2
 476.26 180 l 2
 460.055 103.759 451.616 57 448 0 c 1
 445.362 -3 l 1
 445.362 -3 432.333 0 398 0 c 0
 363 0 348.362 -3 348.362 -3 c 1
 348 0 l 1
 367.872 53.5 380.418 105.47 396.26 180 c 2
146.944 569 m 25
 461.944 569 l 25
 453.655 530 l 25
 138.655 530 l 25
 146.944 569 l 25
EndSplineSet
Colour: ff80cc
EndChar

StartChar: Itilde
Encoding: 296 296 60
Width: 293
VWidth: 999
Flags: HW
HStem: -3 21<96 149 149 202> 628 20<96 149 149 202> 697 44<162 249> 745 46<44 135> 784 10
VStem: 106 86<2.67992 642.32>
LayerCount: 2
Fore
SplineSet
200.588 445 m 2
 216.529 520 228.983 588 233.099 645 c 1
 235.736 648 l 1
 235.736 648 252.099 645 286.099 645 c 0
 321.099 645 338.736 648 338.736 648 c 1
 339.099 645 l 1
 319.833 592 302.529 520 286.588 445 c 2
 234.512 200 l 6
 218.569 125 206.116 57 202 0 c 5
 199.362 -3 l 5
 199.362 -3 183 0 149 0 c 4
 114 0 96.3623 -3 96.3623 -3 c 5
 96 0 l 5
 115.479 54 132.569 125 148.512 200 c 6
 200.588 445 l 2
370.505 741 m 7xc0
 392.505 741 408.63 751 431.558 793 c 1xa0
 454.282 787 l 1
 429.528 727 394.152 697 348.152 697 c 7
 326.152 697 307.702 709 289.679 723 c 0
 274.017 734 257.354 745 240.354 745 c 7
 214.354 745 198.166 730 181.152 697 c 1
 158.215 702 l 1
 184.756 761 214.132 791 257.132 791 c 7
 287.132 791 306.156 777 323.181 763 c 0
 336.63 751 351.505 741 370.505 741 c 7xc0
EndSplineSet
Position2: "'cpsp' Versalabstaende 1" dx=2 dy=0 dh=5 dv=0
Colour: ff00ff
EndChar

StartChar: itilde
Encoding: 297 297 61
Width: 268
VWidth: 999
Flags: HW
HStem: -3 21<84 134 134 184> 419 20<162.5 178> 526 44<149.2 227.5> 574 46<43 124.9> 613 10
VStem: 94 80<2.6647 408.973>
LayerCount: 2
Back
SplineSet
-87.8906 622.07 m 5
 531.25 622.07 l 5
 531.25 525.391 l 5
 -87.8906 525.391 l 5
 -87.8906 622.07 l 5
EndSplineSet
Fore
SplineSet
143.951 235 m 6
 159.893 310 170.221 368 171.36 411 c 5
 173.998 414 l 5
 214.636 417 241.187 429 268.312 439 c 5
 274.312 439 276.675 436 275.187 429 c 5
 254.221 368 243.293 326 227.352 251 c 6
 212.26 180 l 2
 196.105 104 188.116 57 184 0 c 1
 181.362 -3 l 1
 181.362 -3 168 0 134 0 c 0
 99 0 84.3623 -3 84.3623 -3 c 1
 84 0 l 1
 103.479 54 116.318 105 132.26 180 c 2
 143.951 235 l 6
316.257 570 m 7xc0
 336.058 570 350.783 580 372.31 622 c 1xa0
 392.635 616 l 1
 369.082 556 336.604 526 295.205 526 c 7
 275.404 526 259.056 538 243.131 552 c 0
 229.269 563 214.508 574 199.208 574 c 7
 175.808 574 160.919 559 144.904 526 c 1
 124.367 531 l 1
 149.508 590 176.585 620 215.285 620 c 7
 242.285 620 259.109 606 274.133 592 c 0
 285.983 580 299.157 570 316.257 570 c 7xc0
EndSplineSet
Colour: ff00ff
EndChar

StartChar: Imacron
Encoding: 298 298 62
Width: 293
VWidth: 999
Flags: HW
HStem: -3 21<96 149 149 202> 628 20<96 149 149 202> 733 44<9.0876 287.515>
VStem: 8 281<733.205 777> 106 86<2.67992 642.32>
LayerCount: 2
Fore
SplineSet
200.588 445 m 2
 216.529 520 228.983 588 233.099 645 c 1
 235.736 648 l 1
 235.736 648 252.099 645 286.099 645 c 0
 321.099 645 338.736 648 338.736 648 c 1
 339.099 645 l 1
 319.833 592 302.529 520 286.588 445 c 2
 234.512 200 l 6
 218.569 125 206.116 57 202 0 c 5
 199.362 -3 l 5
 199.362 -3 183 0 149 0 c 4
 114 0 96.3623 -3 96.3623 -3 c 5
 96 0 l 5
 115.479 54 132.569 125 148.512 200 c 6
 200.588 445 l 2
420.804 733 m 2
 176.804 733 l 2
 167.804 733 165.505 741 166.992 748 c 0
 169.543 760 184.156 777 195.156 777 c 2
 440.156 777 l 2
 450.156 777 452.456 769 451.181 763 c 0
 448.63 751 433.804 733 420.804 733 c 2
EndSplineSet
Position2: "'cpsp' Versalabstaende 1" dx=2 dy=0 dh=5 dv=0
Colour: ff00ff
EndChar

StartChar: imacron
Encoding: 299 299 63
Width: 268
VWidth: 999
Flags: HW
HStem: -3 21<84 134 134 184> 419 20<162.5 178> 538 44<9.57884 260.164>
VStem: 8.6 252.9<538.205 582> 94 80<2.6647 408.973>
LayerCount: 2
Back
SplineSet
326.66 538.574 m 2
 -70.3125 538.574 l 2
 -78.2227 538.574 -81.2988 546.387 -81.2988 553.223 c 0
 -81.2988 564.941 -72.0703 582.52 -61.5234 582.52 c 2
 335.449 582.52 l 2
 344.238 582.52 347.754 574.707 347.754 567.871 c 0
 347.754 556.152 338.085 538.574 326.66 538.574 c 2
EndSplineSet
Fore
SplineSet
143.951 235 m 6
 159.893 310 170.221 368 171.36 411 c 5
 173.998 414 l 5
 214.636 417 241.187 429 268.312 439 c 5
 274.312 439 276.675 436 275.187 429 c 5
 254.221 368 243.293 326 227.352 251 c 6
 212.26 180 l 2
 196.105 104 188.116 57 184 0 c 1
 181.362 -3 l 1
 181.362 -3 168 0 134 0 c 0
 99 0 84.3623 -3 84.3623 -3 c 1
 84 0 l 1
 103.479 54 116.318 105 132.26 180 c 2
 143.951 235 l 6
354.256 538 m 2
 134.655 538 l 2
 126.556 538 124.655 546 126.144 553 c 0
 128.694 565 142.208 582 152.108 582 c 2
 372.608 582 l 2
 381.608 582 383.508 574 382.232 568 c 0
 379.682 556 365.955 538 354.256 538 c 2
EndSplineSet
Colour: ff00ff
EndChar

StartChar: Ibreve
Encoding: 300 300 64
Width: 293
VWidth: 999
Flags: HW
HStem: -3 21<96 149 149 202> 628 20<96 149 149 202> 692 52<70 226>
VStem: 13 28<765 803> 106 86<2.67992 642.32> 257 27<767 805>
LayerCount: 2
Fore
SplineSet
200.588 445 m 2
 216.529 520 228.983 588 233.099 645 c 1
 235.736 648 l 1
 235.736 648 252.099 645 286.099 645 c 0
 321.099 645 338.736 648 338.736 648 c 1
 339.099 645 l 1
 319.833 592 302.529 520 286.588 445 c 2
 234.512 200 l 6
 218.569 125 206.116 57 202 0 c 5
 199.362 -3 l 5
 199.362 -3 183 0 149 0 c 4
 114 0 96.3623 -3 96.3623 -3 c 5
 96 0 l 5
 115.479 54 132.569 125 148.512 200 c 6
 200.588 445 l 2
456.108 805 m 5
 435.017 734 362.089 692 296.089 692 c 7
 223.089 692 174.229 735 184.108 805 c 5
 212.108 805 l 5
 211.818 766 254.142 744 307.142 744 c 7
 356.142 744 412.818 766 428.108 805 c 5
 456.108 805 l 5
EndSplineSet
Position2: "'cpsp' Versalabstaende 1" dx=2 dy=0 dh=5 dv=0
Colour: ff00ff
EndChar

StartChar: ibreve
Encoding: 301 301 65
Width: 268
VWidth: 999
Flags: HW
HStem: -3 21<84 134 134 184> 419 20<162.5 178> 503 57<74.2712 197.508>
VStem: 14.9 23.4<609.805 641.769> 94 80<2.6647 408.973> 233.6 24.3<611.333 641.63>
LayerCount: 2
Fore
SplineSet
143.951 235 m 6
 159.893 310 170.221 368 171.36 411 c 5
 173.998 414 l 5
 214.636 417 241.187 429 268.312 439 c 5
 274.312 439 276.675 436 275.187 429 c 5
 254.221 368 243.293 326 227.352 251 c 6
 212.26 180 l 2
 196.105 104 188.116 57 184 0 c 1
 181.362 -3 l 1
 181.362 -3 168 0 134 0 c 0
 99 0 84.3623 -3 84.3623 -3 c 1
 84 0 l 1
 103.479 54 116.318 105 132.26 180 c 2
 143.951 235 l 6
177.362 650 m 1
 175.996 597 206.798 560 255.432 560 c 3
 302.231 560 350.433 592 371.762 650 c 1
 393.512 638 l 1
 364.431 552 296.416 503 243.316 503 c 3
 180.31 503 145.044 553 150.512 638 c 1
 177.362 650 l 1
EndSplineSet
Colour: ff00ff
EndChar

StartChar: Iogonek
Encoding: 302 302 66
Width: 293
VWidth: 999
Flags: HW
HStem: -225 39<73.1814 157.134> -3 21<96 149 149 202> -1 25<142.256 178.88> 628 20<96 149 149 202>
VStem: -1 60<-174.091 -75.5789> 106 86<2.67992 642.32>
LayerCount: 2
Fore
SplineSet
200.588 445 m 2
 216.529 520 228.983 588 233.099 645 c 1
 235.736 648 l 1
 235.736 648 252.099 645 286.099 645 c 0
 321.099 645 338.736 648 338.736 648 c 1
 339.099 645 l 1
 319.833 592 302.529 520 286.588 445 c 2
 234.512 200 l 6
 218.569 125 206.116 57 202 0 c 5
 199.362 -3 l 5
 199.362 -3 183 0 149 0 c 4
 114 0 96.3623 -3 96.3623 -3 c 5
 96 0 l 5
 115.479 54 132.569 125 148.512 200 c 6
 200.588 445 l 2
44.1748 -225 m 0xbc
 -8.8252 -225 -42.2363 -194 -30.7578 -140 c 0
 -16.9414 -75 76.126 10 178.102 24 c 1
 193.787 -1 l 1
 113.787 -1 42.8457 -76 32.0049 -127 c 0
 25.2031 -159 41.4648 -186 77.4648 -186 c 0
 107.465 -186 131.652 -171 155.116 -150 c 1
 168.416 -158 l 1
 134.426 -205 80.1748 -225 44.1748 -225 c 0xbc
EndSplineSet
Position2: "'cpsp' Versalabstaende 1" dx=2 dy=0 dh=5 dv=0
Colour: ff80cc
EndChar

StartChar: iogonek
Encoding: 303 303 67
Width: 268
VWidth: 999
Flags: HW
HStem: -225 39<52.2133 135.045> -3 21<84 134 134 184> -1 25<119.395 156.6> 419 20<162.5 178> 518 104<92.248 175.458>
VStem: -23 60<-174.091 -75.5789> 82 104<528.542 611.752> 94 80<2.6647 408.973>
LayerCount: 2
Fore
SplineSet
143.951 235 m 6
 159.893 310 170.221 368 171.36 411 c 5
 173.998 414 l 5
 214.636 417 241.187 429 268.312 439 c 5
 274.312 439 276.675 436 275.187 429 c 5
 254.221 368 243.293 326 227.352 251 c 6
 212.26 180 l 2
 196.105 104 188.116 57 184 0 c 1
 181.362 -3 l 1
 181.362 -3 168 0 134 0 c 0
 99 0 84.3623 -3 84.3623 -3 c 1
 84 0 l 1
 103.479 54 116.318 105 132.26 180 c 2
 143.951 235 l 6
204.157 570 m 0
 209.896 597 238.998 621 265.998 621 c 3
 292.998 621 311.896 597 306.157 570 c 0
 300.418 543 271.316 519 244.316 519 c 3
 217.316 519 198.418 543 204.157 570 c 0
22.1748 -225 m 0xbc
 -31.8252 -225 -64.2363 -194 -52.7578 -140 c 0
 -38.9414 -75 53.126 10 156.102 24 c 1
 170.787 -1 l 1
 90.7871 -1 20.8457 -76 10.0049 -127 c 0
 3.20312 -159 19.4648 -186 55.4648 -186 c 0
 84.4648 -186 108.652 -171 132.116 -150 c 1
 146.416 -158 l 1
 112.426 -205 57.1748 -225 22.1748 -225 c 0xbc
EndSplineSet
Colour: ff80cc
EndChar

StartChar: Idotaccent
Encoding: 304 304 68
Width: 293
VWidth: 999
Flags: HW
HStem: -3 21<96 149 149 202> 628 20<96 149 149 202> 698 104<104.248 187.458>
VStem: 94 104<708.542 791.752> 106 86<2.67992 642.32>
LayerCount: 2
Fore
SplineSet
200.588 445 m 2
 216.529 520 228.983 588 233.099 645 c 1
 235.736 648 l 1
 235.736 648 252.099 645 286.099 645 c 0
 321.099 645 338.736 648 338.736 648 c 1
 339.099 645 l 1
 319.833 592 302.529 520 286.588 445 c 2
 234.512 200 l 6
 218.569 125 206.116 57 202 0 c 5
 199.362 -3 l 5
 199.362 -3 183 0 149 0 c 4
 114 0 96.3623 -3 96.3623 -3 c 5
 96 0 l 5
 115.479 54 132.569 125 148.512 200 c 6
 200.588 445 l 2
254.417 750 m 0
 260.156 777 289.258 801 316.258 801 c 3
 343.258 801 362.156 777 356.417 750 c 0
 350.679 723 321.577 699 294.577 699 c 3
 267.577 699 248.679 723 254.417 750 c 0
EndSplineSet
Substitution2: "'c2sc' Versale nach Kapitaelchen 1" idotaccent.sc
Position2: "'cpsp' Versalabstaende 1" dx=2 dy=0 dh=5 dv=0
Colour: ff00ff
EndChar

StartChar: afii10057
Encoding: 1032 1032 69
Width: 385
VWidth: 999
Flags: HW
HStem: -10 60<57.8935 169.935> 628 20G<200 253 253 306>
VStem: 210 86<132.814 642.32>
AnchorPoint: "top_akzent" 423.32 806 basechar 0
AnchorPoint: "top_punkt" 404.679 723 basechar 0
LayerCount: 2
Back
SplineSet
208.019 94.2383 m 4
 186.861 0 136.831 -12.207 114.258 -12.207 c 4
 72.2656 -12.207 34.668 7.8125 34.668 41.9922 c 4
 34.668 63.4766 44.4336 82.5195 69.3359 82.5195 c 4
 86.9141 82.5195 101.9 71.8691 105.957 56.1523 c 4
 109.863 41.0156 117.676 32.7148 127.441 32.7148 c 4
 138.389 32.7148 147.876 44.2939 155.241 65.4297 c 4
EndSplineSet
Fore
SplineSet
264.84 258 m 6
 304.588 445 l 6
 320.529 520 332.983 588 337.099 645 c 5
 339.736 648 l 5
 339.736 648 356.099 645 390.099 645 c 4
 425.099 645 442.736 648 442.736 648 c 5
 443.099 645 l 5
 423.833 592 406.529 520 390.588 445 c 6
 355.516 280 l 6
 331.178 165.5 314.695 135 247.028 66 c 28
 194.551 12 135.874 -10 72.874 -10 c 4
 53.874 -10 36.7246 -6 29.7871 -1 c 5
 29.4248 2 l 5
 44.4639 21 62.1162 57 74.8545 84 c 5
 86.0674 85 l 5
 92.8164 65 107.628 50 136.628 50 c 4
 215.628 50 246.139 170.021 264.84 258 c 6
EndSplineSet
EndChar

StartChar: afii10061
Encoding: 1036 1036 70
Width: 632
VWidth: 999
Flags: HW
HStem: -3 21<96 149 149 202> -2 29<566 583> 323 43<187 280.713> 590 61<426.699 532.056> 628 20<96 149 149 202> 698 122
VStem: 106 86<2.67992 642.32> 288 201
LayerCount: 2
Fore
SplineSet
406.922 169 m 4xb4
 381.502 247 363.83 305 253.317 312 c 5
 262.883 357 l 5
 356.883 357 378.95 442 459.867 531 c 4
 516.354 593.128 588.862 658 666.862 658 c 4xb4
 693.862 658 697.225 655 721.736 648 c 5x2c
 725.461 642 l 5
 677.119 551 l 5
 664.481 548 l 5
 647.457 562 631.944 569 603.944 569 c 4
 580.944 569 540.906 550 494.703 502 c 4
 437.699 442.778 404.521 360 357.27 340 c 5
 356.632 337 l 5
 426.081 325 440.129 297 479.376 237 c 4
 543.758 140 530.918 89 596 0 c 5
 592.149 -4 l 5
 579.575 -2 541 0 516 0 c 4
 490 0 489.575 -2 466.149 -4 c 5
 434.517 73 423.869 117 406.922 169 c 4xb4
200.588 445 m 2
 216.529 520 228.983 588 233.099 645 c 1
 235.736 648 l 1
 235.736 648 252.099 645 286.099 645 c 0
 321.099 645 338.736 648 338.736 648 c 1
 339.099 645 l 1
 319.833 592 302.529 520 286.588 445 c 2
 234.512 200 l 6
 218.569 125 206.116 57 202 0 c 5
 199.362 -3 l 5
 199.362 -3 183 0 149 0 c 4
 114 0 96.3623 -3 96.3623 -3 c 5
 96 0 l 5
 115.479 54 132.569 125 148.512 200 c 6
 200.588 445 l 2
601.296 820 m 1
 627.11 806.667 644.094 789.333 652.243 768 c 1
 495.915 710 l 2
 473.002 701 460.364 698 451.364 698 c 3
 442.364 698 437.853 705 439.553 713 c 0
 441.041 720 444.104 725 459.017 734 c 2
 601.296 820 l 1
EndSplineSet
LCarets2: 1 0 
Colour: ff00ff
EndChar

StartChar: uni040D
Encoding: 1037 1037 71
Width: 700
VWidth: 999
Flags: HW
HStem: -2 29<20 52 242 274 427 459 649 682> 618 28<20 52 242 274 426 459 649 681>
VStem: 106 81<35.9534 78 134 609.354> 514 81<36.3852 505 561 608.905>
DStem2: 187 134 187 78 0.608002 0.793935<0 493.367>
LayerCount: 2
Fore
SplineSet
621.341 505 m 2
 203.579 78 l 1
 215.482 134 l 2
 633.244 561 l 1
 621.341 505 l 2
606.588 445 m 2
 622.529 520 634.983 588 639.099 645 c 1
 641.736 648 l 1
 641.736 648 658.099 645 692.099 645 c 0
 727.099 645 744.736 648 744.736 648 c 1
 745.099 645 l 1
 725.833 592 708.529 520 692.588 445 c 2
 640.512 200 l 6
 624.569 125 612.116 57 608 0 c 5
 605.362 -3 l 5
 605.362 -3 589 0 555 0 c 4
 520 0 502.362 -3 502.362 -3 c 5
 502 0 l 5
 521.479 54 538.569 125 554.512 200 c 6
 606.588 445 l 2
200.588 445 m 2
 216.529 520 228.983 588 233.099 645 c 1
 235.736 648 l 1
 235.736 648 252.099 645 286.099 645 c 0
 321.099 645 338.736 648 338.736 648 c 1
 339.099 645 l 1
 319.833 592 302.529 520 286.588 445 c 2
 234.512 200 l 6
 218.569 125 206.116 57 202 0 c 5
 199.362 -3 l 5
 199.362 -3 183 0 149 0 c 4
 114 0 96.3623 -3 96.3623 -3 c 5
 96 0 l 5
 115.479 54 132.569 125 148.512 200 c 6
 200.588 445 l 2
472.871 818 m 1
 576.017 734 l 2
 585.316 726 588.041 720 586.553 713 c 0
 584.853 705 576.364 698 568.364 698 c 3
 560.364 698 547.002 701 527.915 710 c 2
 387.307 773 l 1
 409.336 790.714 436.193 806.409 472.871 818 c 1
EndSplineSet
LCarets2: 1 0 
Colour: ff00ff
EndChar

StartChar: afii10062
Encoding: 1038 1038 72
Width: 580
VWidth: 999
Flags: HW
HStem: -22 62<133 229.447> 618 28<1 51.985 192 235 391 425 520.846 579> 697 31<266.536 357.309>
VStem: 187 70<735.681 802.162> 366 70<734.774 802.125>
DStem2: 170 575 88 559 0.41865 -0.908148<-32.5036 379.947> 283 136 342 161 0.370296 0.928914<-102.293 0 103.423 504.868>
LayerCount: 2
Fore
SplineSet
376.222 161 m 2
 305.449 54.1328 239.324 -22 149.324 -22 c 0
 107.324 -22 66.2129 1 73.0146 33 c 0
 78.9658 61 98.8545 84 130.854 84 c 0
 144.854 84 165.367 77 172.816 65 c 0
 177.903 56 190.565 45 204.565 45 c 0
 247.3 45 271.158 81.1113 307.987 138.281 c 1
 264.565 339.888 206.401 567.771 183.736 648 c 1
 200.099 645 226.099 645 243.099 645 c 4
 260.099 645 281.099 645 298.736 648 c 5
 300.929 618.041 324.095 470.161 374.794 242.534 c 1
 466.685 386.903 564.973 546.352 613.736 648 c 1
 625.099 645 652.099 645 663.099 645 c 0
 674.099 645 686.099 645 698.736 648 c 1
 376.222 161 l 2
466.741 728 m 3
 499.741 728 526.354 745 529.968 762 c 0
 531.031 767 531.307 773 531.731 775 c 0
 534.92 790 548.108 805 571.108 805 c 3
 598.108 805 605.132 791 601.094 772 c 0
 590.041 720 526.152 697 460.152 697 c 3
 394.152 697 340.041 720 351.094 772 c 0
 355.132 791 368.108 805 395.108 805 c 3
 418.108 805 424.92 790 421.731 775 c 0
 421.307 773 419.031 767 417.968 762 c 0
 414.354 745 433.741 728 466.741 728 c 3
EndSplineSet
LCarets2: 1 0 
Colour: ff00ff
EndChar

StartChar: afii10020
Encoding: 1043 1043 73
Width: 481
VWidth: 999
Flags: HW
HStem: -2 29<14 47 238 270> 605 40<184.437 406.492> 618 28<14 50>
VStem: 102 81<36.3415 603.635> 457 29<488.793 527.352>
LayerCount: 2
Fore
SplineSet
279.588 445 m 6
 227.512 200 l 6
 211.569 125 198.266 53 195 0 c 5
 193.362 -3 l 5
 193.362 -3 177 0 142 0 c 4
 108 0 89.3623 -3 89.3623 -3 c 5
 88 0 l 5
 108.116 57 125.569 125 141.512 200 c 6
 193.588 445 l 6
 209.529 520 222.621 591 226.099 645 c 5
 227.736 648 l 5
 227.736 648 245.099 645 279.099 645 c 4
 552.099 645 l 2
 573.099 645 596.312 646 612.736 648 c 1
 614.099 645 l 1
 610.123 631 608.061 626 605.935 616 c 0
 603.81 606 601.621 591 600.921 583 c 1
 598.07 579 l 1
 598.07 579 452.621 591 318.621 591 c 5
 306.52 567 283.201 462 279.588 445 c 6
EndSplineSet
Colour: ff00ff
EndChar

StartChar: afii10021
Encoding: 1044 1044 74
Width: 708
VWidth: 999
Flags: HW
HStem: 0 44<630 903> 601 44<632 819> 618 28<898 936>
VStem: 1024 27<-140 -94> 538 86<47 587> 479 36<-138 -60>
LayerCount: 2
Fore
SplineSet
178 0 m 2
 98 0 72.1836 -65 45.667 -138 c 1
 43.0293 -141 l 1
 11.0293 -141 l 1
 9.66699 -138 l 1
 29.3379 11 l 1
 31.4639 21 38.1641 29 63.8018 32 c 0
 84.3936 34.4092 104.802 32 121.99 47 c 0
 153.517 73 186.82 145 251.979 301 c 0
 298.211 415 332.104 518 345.495 581 c 0
 350.172 603 351.848 625 353.099 645 c 1
 354.736 648 l 1
 354.736 648 381.099 645 415.099 645 c 2
 641.099 645 l 2
 675.099 645 693.736 648 693.736 648 c 1
 694.099 645 l 1
 674.621 591 657.529 520 641.588 445 c 2
 589.512 200 l 2
 566.13 90 561.439 35 594.802 32 c 0
 619.377 30 622.464 21 620.338 11 c 1
 576.667 -138 l 1
 574.029 -141 l 1
 542.029 -141 l 1
 540.667 -138 l 1
 545.184 -65 547 0 467 0 c 2
 178 0 l 2
434.353 44 m 2xdc
 452.353 44 460.628 50 465.541 59 c 0
 477.643 83 499.897 183 503.512 200 c 2
 555.588 445 l 2
 559.201 462 579.882 564 577.983 588 c 1
 572.896 597 569.746 601 554.746 601 c 2
 440.746 601 l 2
 413.746 601 401.621 591 394.307 566 c 0
 364.839 465 327.733 361 301.279 293 c 0
 254.41 176 208.367 77 203.903 56 c 0
 201.353 44 214.353 44 228.353 44 c 2
 434.353 44 l 2xdc
EndSplineSet
EndChar

StartChar: afii10024
Encoding: 1046 1046 75
Width: 924
VWidth: 999
Flags: HW
HStem: -4 21G<35 44 147 181 743 777 880 889> -3 21<412 462 462 512> 312 45<364 424 500 560> 569 89<70 172 752 854> 628 20<412 462 462 512>
VStem: 421 82<3 642>
LayerCount: 2
Back
SplineSet
19.043 -0.976562 m 1xaa
 17.0898 0.976562 l 1x42
 17.0898 19.5312 l 2
 17.0898 24.9023 20.9961 27.832 24.9023 27.832 c 2
 33.6914 27.832 l 2
 66.4062 27.832 118.652 103.516 169.922 235.84 c 0
 193.344 296.293 219.238 358.398 281.25 358.398 c 1x92
 209.473 383.789 194.336 467.773 184.57 530.273 c 0
 180.176 559.57 161.621 587.402 141.113 587.402 c 0
 128.906 587.402 117.188 582.031 105.469 575.195 c 0
 94.2383 568.359 82.0312 562.5 70.3125 562.5 c 0
 51.2695 562.5 30.7617 580.566 30.7617 604.98 c 0
 30.7617 628.418 44.9219 652.344 92.2852 652.344 c 0
 155.762 652.344 211.426 599.609 219.238 541.992 c 0
 226.562 485.352 234.375 428.711 287.598 396.484 c 0
 311.523 381.836 355.957 381.348 389.16 381.348 c 1
 389.16 338.379 l 1
 282.715 338.379 261.719 281.25 224.609 179.688 c 0
 184.57 71.7773 156.25 0.976562 83.9844 0 c 2
 19.043 -0.976562 l 1xaa
836.914 -0.976562 m 1x82
 770.508 0 l 2
 698.242 0.976562 669.941 71.4258 630.859 179.688 c 0
 594.727 279.785 573.242 338.379 466.797 338.379 c 1
 466.797 381.348 l 1xa2
 500 381.348 542.969 381.836 566.895 396.484 c 0
 620.117 428.711 629.395 485.352 636.719 541.992 c 0
 644.531 599.609 700.195 652.344 763.672 652.344 c 0
 811.035 652.344 825.195 628.418 825.195 604.98 c 0
 825.195 580.566 804.688 562.5 785.645 562.5 c 0
 773.926 562.5 761.719 568.359 750.488 575.195 c 0
 738.77 582.031 727.051 587.402 714.844 587.402 c 0
 694.336 587.402 675.781 559.57 671.387 530.273 c 0
 661.621 467.773 646.484 383.789 574.707 358.398 c 1
 636.719 358.398 662.148 296.111 686.035 235.84 c 0
 738.281 104.004 789.551 27.832 822.266 27.832 c 2
 831.055 27.832 l 2x9a
 834.961 27.832 838.867 24.9023 838.867 19.5312 c 2
 838.867 0.976562 l 1x42
 836.914 -0.976562 l 1x82
EndSplineSet
Fore
SplineSet
513.588 445 m 2
 529.529 520 541.983 588 546.099 645 c 1
 548.736 648 l 1
 548.736 648 565.099 645 599.099 645 c 0
 634.099 645 651.736 648 651.736 648 c 1
 652.099 645 l 1
 632.833 592 615.529 520 599.588 445 c 2
 547.512 200 l 6
 531.569 125 519.116 57 515 0 c 5
 512.362 -3 l 5
 512.362 -3 496 0 462 0 c 4
 427 0 409.362 -3 409.362 -3 c 5
 409 0 l 5
 428.479 54 445.569 125 461.512 200 c 6
 513.588 445 l 2
284.922 169 m 4x34
 247.869 117 219.517 73 157.149 -4 c 5
 135.575 -2 136 0 111 0 c 4
 88 0 50.5752 -2 37.1494 -4 c 5
 35 0 l 5
 133.918 89 142.758 140 244.376 237 c 4
 307.129 297 331.081 325 402.632 337 c 5
 403.27 340 l 5
 366.521 360 369.162 443 339.703 502 c 4
 315.906 550 285.944 569 263.944 569 c 4xb4
 236.944 569 219.457 562 197.481 548 c 5
 187.119 551 l 5
 178.461 642 l 5
 184.736 648 l 5x2c
 211.225 655 214.862 658 240.862 658 c 4
 314.862 658 357.046 593 384.867 531 c 4
 424.95 442 410.883 357 499.883 357 c 5
 490.317 312 l 5
 382.83 305 341.502 247 284.922 169 c 4x34
710.922 169 m 4
 687.502 247 670.83 305 566.317 312 c 5
 575.883 357 l 5
 664.883 357 686.95 442 764.867 531 c 4
 819.046 593 888.862 658 962.862 658 c 4xb4
 988.862 658 991.225 655 1014.74 648 c 5x2c
 1018.46 642 l 5
 971.119 551 l 5
 959.481 548 l 5
 943.457 562 928.944 569 901.944 569 c 4
 879.944 569 841.906 550 797.703 502 c 4
 743.162 443 710.521 360 665.27 340 c 5
 664.632 337 l 5
 731.081 325 743.129 297 780.376 237 c 4
 840.758 140 827.918 89 889 0 c 5
 885.149 -4 l 5
 872.575 -2 836 0 813 0 c 4
 788 0 787.575 -2 765.149 -4 c 5
 735.517 73 725.869 117 710.922 169 c 4
EndSplineSet
Colour: ff80cc
EndChar

StartChar: afii10025
Encoding: 1047 1047 76
Width: 542
VWidth: 999
Flags: HW
HStem: -12 37<172.536 324.196> 336 37<158.005 306.843> 469 21G<49 91> 624 34<165.85 309.892>
VStem: 49 30<470.533 513.383> 375 80<432.684 569.184> 405 92<100.605 254.446>
LayerCount: 2
Back
SplineSet
257.324 -12.207 m 4
 171.387 -12.207 114.746 19.043 83.4961 43.457 c 4
 56.6406 64.4531 35.6445 95.2148 35.6445 122.07 c 4
 35.6445 147.949 48.3398 164.551 66.4062 164.551 c 4
 94.7266 164.551 106.445 152.344 117.188 119.629 c 4
 140.625 48.3398 195.801 21.4844 267.578 21.4844 c 4
68.3594 645.508 m 1
 49.3164 471.68 l 1
 79.1016 468.75 l 1
 86.4258 511.719 122.07 606.445 173.828 606.445 c 2
EndSplineSet
Fore
SplineSet
253.313 25 m 0xfa
 323.313 25 419.454 68 442.41 176 c 0xfa
 453.25 227 437.419 336 320.419 336 c 2
 247.419 336 l 2
 236.419 336 230.907 343 233.245 354 c 0
 235.583 365 244.283 373 255.283 373 c 2
 302.283 373 l 2
 421.283 373 470.863 451 482.554 506 c 0
 496.795 573 443.636 624 381.636 624 c 0
 258.636 624 219.906 550 178.689 469 c 9
 149.114 471 l 25
 206.312 646 l 17
 293.312 646 330.862 658 390.862 658 c 0
 483.862 658 584.872 611 564.679 516 c 0xfc
 547.888 437 494.26 387 416.521 360 c 1
 483.27 340 560.555 299 537.811 192 c 0
 505.715 41 360.449 -12 242.449 -12 c 0
 161.449 -12 119.039 19 93.1396 43 c 0
 70.6035 64 55.3428 91 61.082 118 c 0
 66.6084 144 82.0723 165 105.072 165 c 0
 133.072 165 140.309 152 144.507 120 c 0
 152.541 59 177.313 25 253.313 25 c 0xfa
EndSplineSet
EndChar

StartChar: afii10026
Encoding: 1048 1048 77
Width: 700
VWidth: 999
Flags: HW
HStem: -3 21<96 149 149 202 502 555 555 608> 628 20<96 149 149 202 502 555 555 608>
VStem: 106 86<2.67992 642.32> 512 86<2.67992 642.32>
DStem2: 187 134 187 78 0.608002 0.793935<0 493.367>
LayerCount: 2
Fore
SplineSet
200.588 445 m 2
 216.529 520 228.983 588 233.099 645 c 1
 235.736 648 l 1
 235.736 648 252.099 645 286.099 645 c 0
 321.099 645 338.736 648 338.736 648 c 1
 339.099 645 l 1
 319.833 592 302.529 520 286.588 445 c 2
 234.512 200 l 6
 218.569 125 206.116 57 202 0 c 5
 199.362 -3 l 5
 199.362 -3 183 0 149 0 c 4
 114 0 96.3623 -3 96.3623 -3 c 5
 96 0 l 5
 115.479 54 132.569 125 148.512 200 c 6
 200.588 445 l 2
606.588 445 m 2
 622.529 520 634.983 588 639.099 645 c 1
 641.736 648 l 1
 641.736 648 658.099 645 692.099 645 c 0
 727.099 645 744.736 648 744.736 648 c 1
 745.099 645 l 1
 725.833 592 708.529 520 692.588 445 c 2
 640.512 200 l 6
 624.569 125 612.116 57 608 0 c 5
 605.362 -3 l 5
 605.362 -3 589 0 555 0 c 4
 520 0 502.362 -3 502.362 -3 c 5
 502 0 l 5
 521.479 54 538.569 125 554.512 200 c 6
 606.588 445 l 2
621.341 505 m 2
 203.579 78 l 1
 215.482 134 l 2
 633.244 561 l 1
 621.341 505 l 2
EndSplineSet
EndChar

StartChar: afii10027
Encoding: 1049 1049 78
Width: 700
VWidth: 999
Flags: HW
HStem: -2 29<20 52 242 274 427 459 649 682> 618 28<20 52 242 274 426 459 649 681> 697 31<305.536 396.309>
VStem: 106 81<35.9534 78 134 609.354> 226 70<735.681 802.162> 405 70<734.774 802.125> 514 81<36.3852 505 561 608.905>
DStem2: 187 134 187 78 0.608002 0.793935<0 493.367>
LayerCount: 2
Fore
SplineSet
200.588 445 m 2
 216.529 520 228.983 588 233.099 645 c 1
 235.736 648 l 1
 235.736 648 252.099 645 286.099 645 c 0
 321.099 645 338.736 648 338.736 648 c 1
 339.099 645 l 1
 319.833 592 302.529 520 286.588 445 c 2
 234.512 200 l 6
 218.569 125 206.116 57 202 0 c 5
 199.362 -3 l 5
 199.362 -3 183 0 149 0 c 4
 114 0 96.3623 -3 96.3623 -3 c 5
 96 0 l 5
 115.479 54 132.569 125 148.512 200 c 6
 200.588 445 l 2
606.588 445 m 2
 622.529 520 634.983 588 639.099 645 c 1
 641.736 648 l 1
 641.736 648 658.099 645 692.099 645 c 0
 727.099 645 744.736 648 744.736 648 c 1
 745.099 645 l 1
 725.833 592 708.529 520 692.588 445 c 2
 640.512 200 l 6
 624.569 125 612.116 57 608 0 c 5
 605.362 -3 l 5
 605.362 -3 589 0 555 0 c 4
 520 0 502.362 -3 502.362 -3 c 5
 502 0 l 5
 521.479 54 538.569 125 554.512 200 c 6
 606.588 445 l 2
621.341 505 m 2
 203.579 78 l 1
 215.482 134 l 2
 633.244 561 l 1
 621.341 505 l 2
505.741 728 m 3
 538.741 728 565.354 745 568.968 762 c 0
 570.031 767 570.307 773 570.731 775 c 0
 573.92 790 587.108 805 610.108 805 c 3
 637.108 805 644.132 791 640.094 772 c 0
 629.041 720 565.152 697 499.152 697 c 3
 433.152 697 379.041 720 390.094 772 c 0
 394.132 791 407.108 805 434.108 805 c 3
 457.108 805 463.92 790 460.731 775 c 0
 460.307 773 458.031 767 456.968 762 c 0
 453.354 745 472.741 728 505.741 728 c 3
EndSplineSet
LCarets2: 1 0 
Colour: ff00ff
EndChar

StartChar: afii10033
Encoding: 1055 1055 79
Width: 708
VWidth: 999
Flags: HW
HStem: -3 21<90 144 144 197 511 564 564 618> 601 44<195.326 512.674>
VStem: 101 86<2.67992 586.818> 521 86<2.67992 586.818>
LayerCount: 2
Fore
SplineSet
701.099 645 m 6
 735.099 645 753.736 648 753.736 648 c 5
 754.099 645 l 5
 734.621 591 717.529 520 701.588 445 c 6
 649.512 200 l 6
 633.569 125 622.116 57 618 0 c 1
 615.362 -3 l 1
 615.362 -3 598 0 564 0 c 0
 529 0 511.362 -3 511.362 -3 c 1
 511 0 l 1
 530.266 53 547.569 125 563.512 200 c 6
 615.588 445 l 6
 619.201 462 639.882 564 637.983 588 c 5
 632.896 597 629.746 601 614.746 601 c 6
 348.746 601 l 2
 333.746 601 328.896 597 319.983 588 c 1
 307.882 564 285.201 462 281.588 445 c 2
 229.512 200 l 2
 213.569 125 200.266 53 197 0 c 1
 195.362 -3 l 1
 195.362 -3 179 0 144 0 c 0
 110 0 91.3623 -3 91.3623 -3 c 1
 90 0 l 1
 110.116 57 127.569 125 143.512 200 c 2
 195.588 445 l 2
 211.529 520 224.621 591 228.099 645 c 1
 229.736 648 l 1
 229.736 648 247.099 645 281.099 645 c 2
 701.099 645 l 6
EndSplineSet
Colour: ff00ff
EndChar

StartChar: afii10034
Encoding: 1056 1056 80
Width: 522
VWidth: 999
Flags: HW
HStem: -3 21<93 146 146 199> 282 34<189.825 339.655> 618 34<171.719 345.938>
VStem: 103 86<2.67992 292 319.76 608.938> 401 97<393.808 563.368>
LayerCount: 2
Fore
SplineSet
197.588 445 m 6
 213.529 520 225.983 588 230.099 645 c 5
 232.736 648 l 5
 232.736 648 249.099 645 283.099 645 c 7
 313.099 645 388.587 652 414.587 652 c 7
 599.587 652 613.844 545 601.303 486 c 4
 583.235 401 504.941 282 322.941 282 c 7
 287.941 282 271.579 285 251.066 292 c 5
 231.512 200 l 6
 215.569 125 203.116 57 199 0 c 5
 196.362 -3 l 5
 196.362 -3 180 0 146 0 c 7
 111 0 93.3623 -3 93.3623 -3 c 5
 93 0 l 5
 112.479 54 129.569 124.999 145.512 200 c 6
 197.588 445 l 6
311.008 574 m 6
 258.293 326 l 5
 269.806 319 300.168 316 325.168 316 c 7
 422.168 316 477.521 360 500.477 468 c 4
 527.471 595 469.36 618 400.36 618 c 7
 328.36 618 317.172 603 311.008 574 c 6
EndSplineSet
Colour: ff00ff
EndChar

StartChar: afii10035
Encoding: 1057 1057 81
Width: 650
VWidth: 999
Flags: HW
HStem: -10 51<269.467 470.143> 611 47<271.061 460.844>
VStem: 37 103<195.742 435.455>
LayerCount: 2
Back
SplineSet
574.707 645.508 m 5
 593.75 471.68 l 5
 563.965 468.75 l 5
 556.641 511.719 520.996 606.445 469.238 606.445 c 6
EndSplineSet
Fore
SplineSet
504.862 658 m 7
 626.862 658 713.297 613 713.297 613 c 5
 714.659 609.999 l 5
 692.429 560.747 685.458 549.993 671.065 499 c 5
 660.854 498 l 5
 637.283 580 570.872 611 480.872 611 c 7
 398.872 611 254.143 537 210.994 334 c 0
 179.961 188 213.715 41 368.715 41 c 3
 461.715 41 534.179 62 621.758 140 c 1
 641.569 125 l 1
 554.652 36 445.874 -10 348.874 -10 c 3
 133.874 -10 69.7334 154 103.955 315 c 0
 145.829 512 335.862 658 504.862 658 c 7
EndSplineSet
Colour: ff00ff
EndChar

StartChar: afii10036
Encoding: 1058 1058 82
Width: 540
VWidth: 999
Flags: HW
HStem: -3 21<217 270 270 323> 574 21<15 219 321 525> 586 59<17.7578 222.336 317.664 522.242>
VStem: 227 86<2.67992 584.82>
LayerCount: 2
Fore
SplineSet
321.588 445 m 2xb0
 325.201 462 345.457 562 343.559 586 c 1xb0
 209.559 586 139.008 574 139.008 574 c 1xd0
 137.857 578 l 1
 143.046 593 148.147 617 152.099 645 c 1
 154.736 648 l 1
 170.312 646 193.099 645 214.099 645 c 2
 600.099 645 l 2
 621.099 645 644.312 646 660.736 648 c 1
 662.099 645 l 1xb0
 654.147 617 649.046 593 647.857 578 c 1
 645.008 574 l 1xd0
 645.008 574 579.559 586 445.559 586 c 1
 433.457 562 411.201 462 407.588 445 c 2
 355.512 200 l 2
 339.569 125 327.116 57 323 0 c 1
 320.362 -3 l 1
 320.362 -3 304 0 270 0 c 7
 235 0 217.362 -3 217.362 -3 c 1
 217 0 l 1
 236.479 54 253.569 125 269.512 200 c 2
 321.588 445 l 2xb0
EndSplineSet
Colour: ff00ff
EndChar

StartChar: afii10037
Encoding: 1059 1059 83
Width: 580
VWidth: 999
Flags: HW
HStem: -22 67<133 228.079> 628 20G<54.5 65.8588 152.5 165.28 462.421 482 552.006 555>
DStem2: 278.595 138.281 342 161 0.410131 0.912027<-105.377 13.9628 113.393 328.053>
LayerCount: 2
Fore
SplineSet
376.222 161 m 2
 305.449 54.1328 239.324 -22 149.324 -22 c 0
 107.324 -22 66.2129 1 73.0146 33 c 0
 78.9658 61 98.8545 84 130.854 84 c 0
 144.854 84 165.367 77 172.816 65 c 0
 177.903 56 190.565 45 204.565 45 c 0
 247.299 45 271.157 81.1113 307.987 138.281 c 1
 264.565 339.888 206.401 567.771 183.736 648 c 1
 200.099 645 226.099 645 243.099 645 c 4
 260.099 645 281.099 645 298.736 648 c 5
 300.929 618.041 324.095 470.161 374.794 242.534 c 1
 466.684 386.903 564.973 546.352 613.736 648 c 1
 625.099 645 652.099 645 663.099 645 c 0
 674.099 645 686.099 645 698.736 648 c 1
 376.222 161 l 2
EndSplineSet
EndChar

StartChar: afii10039
Encoding: 1061 1061 84
Width: 571
VWidth: 999
Flags: HW
HStem: -2 28<4 61 169 190 398 420 570 617> 586 27<411 444 538 597>
DStem2: 122 99 155 73 0.593199 0.805056<-35.2356 230.04 328.87 586.289> 191 543 249 326 0.578967 -0.815351<-35.4928 216.477 291.97 559.314>
LayerCount: 2
Fore
SplineSet
106.362 -3 m 1
 96 0 77 0 65 0 c 3
 54 0 34 0 22.3623 -3 c 1
 461.414 492.319 466.434 481.677 591.736 648 c 1
 602.099 645 622.099 645 633.099 645 c 3
 644.099 645 664.099 645 675.736 648 c 1
 576.452 540.382 324.318 285.98 106.362 -3 c 1
553.362 -3 m 1
 536 0 514 0 496 0 c 3
 478 0 456 0 437.362 -3 c 1
 375.368 198.1 330.23 321 185.736 648 c 1
 202.099 645 224.099 645 241.099 645 c 3
 258.099 645 280.099 645 298.736 648 c 1
 327.809 540.245 394.899 389.535 553.362 -3 c 1
EndSplineSet
Colour: ff00ff
EndChar

StartChar: afii10040
Encoding: 1062 1062 85
Width: 639
VWidth: 999
Flags: HW
HStem: 0 44<183.144 451.533> 628 20G<78 132 132 185 448 501 501 555>
VStem: 89 86<60.1801 642.32> 458 86<46.9378 642.32> 566 36<-138 -59.6869>
LayerCount: 2
Back
SplineSet
428.711 36.6211 m 2
 464.355 36.6211 467.773 51.2695 467.773 83.4961 c 10
548.34 76.6602 m 18
 548.34 51.7578 564.453 27.832 589.517 27.832 c 0
 614.15 27.832 618.276 16.585 618.652 7.8125 c 2
 625 -140.625 l 1
 598.145 -140.625 l 1
 583.74 -70.3125 540.039 2.44141 462.891 2.44141 c 2
622.07 644.204 m 25
 622.07 -297.852 l 25
EndSplineSet
Fore
SplineSet
586.512 200 m 2
 563.13 90 557.689 35 590.802 32 c 0
 615.233 29.7861 618.393 20.667 616.338 11 c 1
 572.667 -138 l 1
 570.029 -141 l 1
 538.029 -141 l 1
 536.667 -138 l 1
 541.194 -65.4004 542.721 0 463 0 c 2
 132 0 l 6
 98 0 79.3623 -3 79.3623 -3 c 5
 79 0 l 5
 98.4785 54 115.569 125 131.512 200 c 6
 183.588 445 l 6
 199.531 520.008 210.983 588 215.099 645 c 5
 217.736 648 l 5
 217.736 648 235.099 645 269.099 645 c 4
 304.099 645 321.736 648 321.736 648 c 5
 322.099 645 l 5
 302.833 592 285.53 520.005 269.588 445 c 6
 217.512 200 l 6
 213.897 183 193.643 83 195.541 59 c 4
 196.628 50 202.353 44 220.353 44 c 6
 431.353 44 l 2
 449.353 44 457.628 50 462.541 59 c 0
 474.643 83 496.897 183 500.512 200 c 2
 552.588 445 l 2
 568.53 520.005 581.833 592 585.099 645 c 1
 586.736 648 l 1
 586.736 648 603.099 645 638.099 645 c 0
 672.099 645 690.736 648 690.736 648 c 1
 692.099 645 l 1
 671.983 588 654.531 520.008 638.588 445 c 2
 586.512 200 l 2
EndSplineSet
EndChar

StartChar: afii10041
Encoding: 1063 1063 86
Width: 633
VWidth: 999
Flags: HW
HStem: -3 21<436 489 489 542> 244 64<213.903 364.049> 628 20G<84 137 137 190 436 489 489 542>
VStem: 94 86<340.66 642.32> 446 86<2.67992 642.32>
LayerCount: 2
Back
SplineSet
400.391 2.44141 m 6x78
 400.391 2.44141 202.911 3.44141 76.6602 2.44141 c 20x78
 -31.25 -0.976562 l 5
 -33.6914 0.976562 l 5
 -33.6914 17.5781 l 6
 -33.6914 23.4375 -29.541 27.832 -24.9023 27.832 c 6
 1.46484 27.832 l 6xb8
 34.1797 28.8086 41.0156 35.1562 41.0156 74.707 c 14
 41.0156 571.777 l 6
 41.0156 610.84 34.9121 617.676 1.46484 617.676 c 6
 -28.3203 617.676 l 6
 -31.7383 617.676 -33.6914 619.141 -33.6914 622.559 c 6
 -33.6914 644.531 l 5
 -31.7383 646.484 l 5
 76.6602 644.531 l 4
 193.848 646.484 l 5
 195.801 644.692 l 5
 195.801 623.047 l 6
 195.801 619.629 193.848 617.676 190.43 617.676 c 6
 160.645 617.676 l 6
 128.418 617.676 121.582 611.816 121.582 571.777 c 6
 121.582 83.4961 l 22
 121.582 41.9922 129.395 36.6211 160.645 36.6211 c 6
 373.047 36.6211 l 6x78
 408.691 36.6211 412.109 51.2695 412.109 83.4961 c 14
 412.109 571.777 l 6
 412.109 603.516 410.635 617.061 373.047 617.676 c 6
 343.262 617.676 l 6
 339.844 617.676 337.891 619.141 337.891 622.559 c 6
 337.891 644.287 l 5
 340.332 646.484 l 5
 447.754 644.531 l 4
 563.477 646.484 l 5
 566.406 644.287 l 5
 566.406 623.047 l 6
 566.406 619.629 564.453 617.676 560.547 617.676 c 6
 531.25 617.676 l 6
 494.639 617.065 492.676 605.469 492.676 571.777 c 6
 492.676 76.6602 l 22
 492.676 45.8984 495.117 27.832 528.32 27.832 c 6
 544.922 27.832 l 6xb8
 552.246 27.832 565.918 20.5078 565.918 7.8125 c 6
 566.162 -142.822 l 5
 553.467 -142.822 547.607 -142.822 538.818 -142.822 c 5
 524.414 -72.5098 477.539 2.44141 400.391 2.44141 c 6x78
EndSplineSet
Fore
SplineSet
540.588 445 m 2
 556.529 520 568.983 588 573.099 645 c 1
 575.736 648 l 1
 575.736 648 592.099 645 626.099 645 c 0
 661.099 645 678.736 648 678.736 648 c 1
 679.099 645 l 1
 659.833 592 642.529 520 626.588 445 c 2
 574.512 200 l 6
 558.569 125 546.116 57 542 0 c 5
 539.362 -3 l 5
 539.362 -3 523 0 489 0 c 4
 454 0 436.362 -3 436.362 -3 c 5
 436 0 l 5
 455.479 54 472.569 125 488.512 200 c 6
 540.588 445 l 2
274.588 445 m 2
 268.636 417 l 18
 251.206 335 285.468 308 357.468 308 c 0
 386.468 308 451.317 312 524.458 355 c 1
 515.105 311 l 17
 431.265 260 359.864 244 301.864 244 c 0
 187.864 244 162.656 323 183.699 422 c 10
 188.588 445 l 2
 204.529 520 216.983 588 221.099 645 c 1
 223.736 648 l 1
 223.736 648 240.099 645 274.099 645 c 0
 309.099 645 326.736 648 326.736 648 c 1
 327.099 645 l 1
 307.833 592 290.529 520 274.588 445 c 2
EndSplineSet
EndChar

StartChar: afii10042
Encoding: 1064 1064 87
Width: 960
VWidth: 999
Flags: HW
HStem: 0 44<197.144 430.533 531.144 766.533> 628 20G<92 146 146 199 426 480 480 533 763 816 816 870>
VStem: 103 86<60.1801 642.32> 437 86<60.1801 642.32> 773 86<47.6754 642.32>
LayerCount: 2
Fore
SplineSet
901.512 200 m 2
 885.876 125.001 873.116 57 869 0 c 1
 866.362 -3 l 1
 866.362 -3 850 0 816 0 c 2
 147 0 l 2
 112 0 93.3623 -3 93.3623 -3 c 1
 93 0 l 1
 112.479 54 129.569 125 145.512 200 c 2
 197.588 445 l 2
 213.531 520.008 224.983 588 229.099 645 c 1
 231.736 648 l 1
 231.736 648 249.099 645 283.099 645 c 0
 318.099 645 335.736 648 335.736 648 c 1
 336.099 645 l 1
 316.833 592 299.53 520.005 283.588 445 c 2
 231.512 200 l 2
 227.897 183 207.643 83 209.541 59 c 0
 210.628 50 216.353 44 234.353 44 c 2
 410.353 44 l 2
 428.353 44 436.628 50 441.541 59 c 0
 453.643 83 475.897 183 479.512 200 c 2
 531.588 445 l 2
 547.531 520.008 558.983 588 563.099 645 c 1
 565.736 648 l 1
 565.736 648 583.099 645 617.099 645 c 0
 652.099 645 669.736 648 669.736 648 c 1
 670.099 645 l 1
 650.833 592 633.53 520.005 617.588 445 c 2
 565.512 200 l 2
 561.897 183 541.643 83 543.541 59 c 0
 544.628 50 550.353 44 568.353 44 c 2
 746.353 44 l 2
 764.353 44 772.628 50 777.541 59 c 0
 789.643 83 811.897 183 815.512 200 c 2
 867.588 445 l 2
 883.53 520.005 896.833 592 900.099 645 c 1
 901.736 648 l 1
 901.736 648 918.099 645 953.099 645 c 0
 987.099 645 1005.74 648 1005.74 648 c 1
 1007.1 645 l 1
 986.983 588 969.531 520.008 953.588 445 c 2
 901.512 200 l 2
EndSplineSet
EndChar

StartChar: afii10043
Encoding: 1065 1065 88
Width: 948
VWidth: 999
Flags: HW
HStem: 0 44<197.144 430.533 531.144 766.533> 628 20G<92 146 146 199 426 480 480 533 763 816 816 870>
VStem: 103 86<60.1801 642.32> 437 86<60.1801 642.32> 773 86<46.9378 642.32> 881 36<-138 -59.6869>
LayerCount: 2
Back
SplineSet
732.422 36.6211 m 6
 768.066 36.6211 771.484 51.2695 771.484 83.4961 c 14
852.051 76.6602 m 22
 852.051 51.7578 868.164 27.832 893.228 27.832 c 4
 917.861 27.832 921.987 16.585 922.363 7.8125 c 6
 928.711 -140.625 l 5
 901.855 -140.625 l 5
 887.451 -70.3125 843.75 2.44141 766.602 2.44141 c 6
EndSplineSet
Fore
SplineSet
147 0 m 2
 112 0 93.3623 -3 93.3623 -3 c 1
 93 0 l 1
 112.479 54 129.569 125 145.512 200 c 2
 197.588 445 l 2
 213.531 520.008 224.983 588 229.099 645 c 1
 231.736 648 l 1
 231.736 648 249.099 645 283.099 645 c 0
 318.099 645 335.736 648 335.736 648 c 1
 336.099 645 l 1
 316.833 592 299.53 520.005 283.588 445 c 2
 231.512 200 l 2
 227.897 183 207.643 83 209.541 59 c 0
 210.628 50 216.353 44 234.353 44 c 2
 410.353 44 l 2
 428.353 44 436.628 50 441.541 59 c 0
 453.643 83 475.897 183 479.512 200 c 2
 531.588 445 l 2
 547.531 520.008 558.983 588 563.099 645 c 1
 565.736 648 l 1
 565.736 648 583.099 645 617.099 645 c 0
 652.099 645 669.736 648 669.736 648 c 1
 670.099 645 l 1
 650.833 592 633.53 520.005 617.588 445 c 2
 565.512 200 l 2
 561.897 183 541.643 83 543.541 59 c 0
 544.628 50 550.353 44 568.353 44 c 2
 746.353 44 l 6
 764.353 44 772.628 50 777.541 59 c 4
 789.643 83 811.897 183 815.512 200 c 6
 867.588 445 l 2
 883.53 520.005 896.833 592 900.099 645 c 1
 901.736 648 l 1
 901.736 648 918.099 645 953.099 645 c 0
 987.099 645 1005.74 648 1005.74 648 c 1
 1007.1 645 l 1
 986.983 588 969.531 520.008 953.588 445 c 2
 901.512 200 l 2
 878.13 90 872.689 35 905.802 32 c 0
 930.233 29.7861 933.393 20.667 931.338 11 c 1
 887.667 -138 l 1
 885.029 -141 l 1
 853.029 -141 l 1
 851.667 -138 l 1
 856.194 -65.4004 857.721 0 778 0 c 2
 147 0 l 2
EndSplineSet
EndChar

StartChar: afii10044
Encoding: 1066 1066 89
Width: 717
VWidth: 999
Flags: HW
HStem: -2 35<330.629 502.725> 329 44<348 522.728> 569 21G<50 254> 581 64<52.7551 257.32>
VStem: 262 86<37.7419 329 373 578.197> 587 94<103.061 266.903>
LayerCount: 2
Back
SplineSet
41.2598 645.508 m 5
 25.6348 471.68 l 5
 55.4199 468.75 l 5
 62.7441 511.719 94.9707 606.445 146.729 606.445 c 6
EndSplineSet
Fore
SplineSet
439.099 645 m 6xdc
 477.099 645 494.736 648 494.736 648 c 5
 495.099 645 l 5
 475.833 592 460.607 519.976 442.588 445 c 6
 427.283 373 l 5
 485.283 373 l 6
 731.283 373 738.815 272 719.897 183 c 4
 684.401 16 523.575 -2 402.575 -2 c 4
 366.575 -2 336 0 307 0 c 4
 273 0 252.362 -3 252.362 -3 c 5
 252 0 l 5
 271.479 54 288.569 125 304.512 200 c 6
 356.588 445 l 6
 359.993 461.999 379.394 557 377.495 581 c 5xdc
 243.495 581 172.944 569 172.944 569 c 5xec
 171.795 573 l 5
 176.983 588 183.147 617 187.099 645 c 5
 189.736 648 l 5
 205.312 646 228.099 645 249.099 645 c 6
 439.099 645 l 6xdc
417.931 329 m 5
 365.854 84 l 6
 358.841 51 357.015 33 412.015 33 c 4
 564.015 33 612.72 121 625.897 183 c 4
 638.651 243 630.931 329 502.931 329 c 6
 417.931 329 l 5
EndSplineSet
EndChar

StartChar: afii10045
Encoding: 1067 1067 90
Width: 786
VWidth: 999
Flags: HW
HStem: -2 21<588 641 641 694> -2 30<19 51 194.478 332.526> 333 40<187 355.567> 618 28<19 51 241 274> 629 20<588 641 641 694>
VStem: 106 81<36.1947 333 373 608.615> 433 89<103.729 266.225> 598 86<3.67992 643.32>
LayerCount: 2
Back
SplineSet
592.759 599.272 m 22
 592.759 608.74 592.461 615.552 591.87 619.692 c 4
 590.684 627.983 586.987 634.341 580.771 638.779 c 4
 576.924 642.031 568.643 643.662 555.913 643.662 c 6
 527.949 644.106 l 6
 524.697 644.404 523.066 645.884 523.066 648.545 c 6
 523.066 664.082 l 5
 626.05 661.865 l 4
 733.472 664.082 l 5
 733.472 649.434 l 6
 733.472 646.182 731.694 644.404 728.145 644.106 c 6
 700.625 643.662 l 6
 687.896 643.662 679.614 642.031 675.767 638.779 c 4
 668.96 633.452 665.259 627.095 664.668 619.692 c 4
 664.077 613.179 663.779 606.377 663.779 599.272 c 14
 663.779 92.7939 l 6
 663.779 85.6914 664.077 78.8857 664.668 72.375 c 4
 665.259 64.9766 668.96 58.6133 675.767 53.2871 c 4
 679.614 50.3281 687.896 48.7002 700.625 48.4043 c 6
 728.145 47.9609 l 6
 731.694 47.9609 733.472 46.333 733.472 43.0771 c 6
 733.472 27.9854 l 5
 626.05 30.2051 l 4
 523.066 27.9854 l 5
 523.066 43.5215 l 6
 523.066 46.4805 524.697 47.9609 527.949 47.9609 c 6
 555.913 48.4043 l 6
 568.643 48.7002 576.924 50.3281 580.771 53.2871 c 4
 586.987 57.7266 590.684 64.0889 591.87 72.375 c 4
 592.456 76.5176 592.759 83.3242 592.759 92.7939 c 6
 592.759 599.272 l 22
197.693 597.5 m 14
 197.693 386.207 l 21
 250.96 386.207 l 6
 329.092 386.207 386.649 377.328 423.635 359.572 c 4
 492.29 326.725 526.616 274.789 526.616 203.767 c 4
 526.616 145.173 504.126 99.748 459.146 67.4922 c 4
 423.635 42.042 381.465 29.3174 332.637 29.3174 c 6
 56.9795 29.3174 l 5
 56.9795 44.8535 l 6
 56.9795 47.7607 58.6074 49.2402 61.8623 49.293 c 6
 89.8271 49.7363 l 6
 102.428 49.9365 110.714 51.5645 114.686 54.6191 c 4
 120.899 59.0586 124.6 65.4199 125.782 73.707 c 4
 126.375 77.8477 126.67 84.6533 126.67 94.125 c 14
 126.67 597.5 l 22
 126.67 606.968 126.375 613.779 125.782 617.92 c 4
 124.732 625.273 121.033 631.636 114.686 637.007 c 4
 111.082 640.054 102.797 641.68 89.8271 641.89 c 6
 61.8623 642.334 l 6
 58.6074 642.378 56.9795 643.862 56.9795 646.772 c 6
 56.9795 662.305 l 5
 159.962 660.088 l 4
 267.385 662.305 l 5
 267.385 647.661 l 6
 267.385 644.165 265.608 642.388 262.058 642.334 c 6
 234.536 641.89 l 6
 221.564 641.68 213.277 640.054 209.678 637.007 c 4
 202.873 631.68 199.172 625.317 198.581 617.92 c 4
 197.989 611.406 197.693 604.6 197.693 597.5 c 14
197.693 354.689 m 13
 197.693 61.7207 l 21
 238.235 54.0273 277.594 52.252 315.769 56.3945 c 4
 362.229 61.7207 397.149 80.2168 420.527 111.881 c 4
 438.283 135.555 447.16 166.628 447.16 205.099 c 4
 447.16 240.313 437.543 272.126 418.308 300.535 c 4
 393.746 336.639 349.356 354.689 285.14 354.689 c 6
 197.693 354.689 l 13
EndSplineSet
Fore
SplineSet
258.931 329 m 1
 206.854 84 l 2
 199.841 51 198.015 33 253.015 33 c 0
 405.015 33 453.72 121 466.897 183 c 0
 479.651 243 471.931 329 343.931 329 c 2
 258.931 329 l 1
148 0 m 0
 114 0 93.3623 -3 93.3623 -3 c 1
 93 0 l 1
 112.479 54 129.569 125 145.512 200 c 2
 197.588 445 l 2
 213.531 520.008 224.983 588 229.099 645 c 1
 231.736 648 l 1
 231.736 648 249.099 645 283.099 645 c 0
 318.099 645 335.736 648 335.736 648 c 1
 336.099 645 l 1
 316.833 592 299.53 520.005 283.588 445 c 2
 268.283 373 l 1
 326.283 373 l 2
 572.283 373 579.815 272 560.897 183 c 0
 525.401 16 364.575 -2 243.575 -2 c 0
 207.575 -2 177 0 148 0 c 0
692.8 446 m 2
 708.742 521 721.196 589 725.312 646 c 1
 727.949 649 l 1
 727.949 649 744.312 646 778.312 646 c 0
 813.312 646 830.949 649 830.949 649 c 1
 831.312 646 l 1
 812.046 593 794.742 521 778.8 446 c 2
 726.724 201 l 6
 710.782 126 698.328 58 694.213 1 c 5
 691.575 -2 l 5
 691.575 -2 675.213 1 641.213 1 c 4
 606.213 1 588.575 -2 588.575 -2 c 5
 588.213 1 l 5
 607.69 55 624.782 126 640.724 201 c 6
 692.8 446 l 2
EndSplineSet
Colour: ff00ff
EndChar

StartChar: afii10046
Encoding: 1068 1068 91
Width: 558
VWidth: 999
Flags: HW
HStem: -2 35<171.629 343.725> 329 44<189 363.728> 628 20G<92 146 146 199>
VStem: 103 86<37.7419 329 373 642.32> 428 94<103.061 266.903>
LayerCount: 2
Fore
SplineSet
258.931 329 m 1
 206.854 84 l 2
 199.841 51 198.015 33 253.015 33 c 0
 405.015 33 453.72 121 466.897 183 c 0
 479.651 243 471.931 329 343.931 329 c 2
 258.931 329 l 1
148 0 m 0
 114 0 93.3623 -3 93.3623 -3 c 1
 93 0 l 1
 112.479 54 129.569 125 145.512 200 c 2
 197.588 445 l 2
 213.531 520.008 224.983 588 229.099 645 c 1
 231.736 648 l 1
 231.736 648 249.099 645 283.099 645 c 0
 318.099 645 335.736 648 335.736 648 c 1
 336.099 645 l 1
 316.833 592 299.53 520.005 283.588 445 c 2
 268.283 373 l 1
 326.283 373 l 2
 572.283 373 579.815 272 560.897 183 c 0
 525.401 16 364.575 -2 243.575 -2 c 0
 207.575 -2 177 0 148 0 c 0
EndSplineSet
EndChar

StartChar: afii10047
Encoding: 1069 1069 92
Width: 604
VWidth: 999
Flags: HMW
HStem: -12 34<194 359> 273 56<309 422> 311 49<155 284> 621 37<189 346>
VStem: 472 89<186 307 344 460>
LayerCount: 2
Back
SplineSet
278.809 657.715 m 0x9c
 439.453 657.715 556.152 545.41 556.152 324.219 c 0
 556.152 143.066 434.082 -12.207 264.16 -12.207 c 0
 178.16 -12.207 120.117 19.043 88.8672 43.457 c 0
 62.0977 64.3711 43.457 91.1641 43.457 118.164 c 0
 43.457 144.043 60.0586 164.551 83.0078 164.551 c 0
 111.328 164.551 124.487 152.379 135.254 119.629 c 0
 158.691 48.3398 207.52 21.4844 279.297 21.4844 c 0
 406.738 21.4844 464.844 190.43 466.797 301.758 c 1x9c
 263.184 296.391 l 2xac
 247.494 296.02 225.374 292.479 205.866 292.479 c 0
 182.292 292.479 162.531 297.648 162.531 319.824 c 0
 162.531 344.693 180.365 350.412 202.663 350.412 c 0xcc
 220.644 350.412 241.526 346.693 258.301 346.297 c 2xac
 466.797 340.82 l 1
 460.938 563.477 349.609 621.094 270.508 621.094 c 0
 176.27 621.094 97.6562 539.551 71.7773 453.613 c 1
 41.5039 458.496 l 1
 51.2695 509.766 60.4297 558.179 63.4766 612.793 c 1
 121.094 616.211 173.828 657.715 278.809 657.715 c 0x9c
EndSplineSet
Fore
SplineSet
537.255 307 m 1xd8
 475.028 273 431.028 273 418.028 273 c 0xd8
 356.028 273 321.105 311 262.105 311 c 0
 224.105 311 204.704 295 196.704 295 c 0
 192.704 295 188.342 298 190.255 307 c 0
 195.568 332 264.521 360 323.521 360 c 0xb8
 389.521 360 411.931 329 469.931 329 c 0
 498.931 329 523.206 335 544.119 344 c 1
 577.906 550 483.998 621 402.998 621 c 0
 307.998 621 212.78 540 168.501 454 c 1
 139.351 458 l 1
 161.616 511 179.606 558 193.297 613 c 1
 251.935 616 313.862 658 418.862 658 c 0
 583.862 658 677.906 550 631.781 333 c 0
 585.019 113 442.449 -12 272.449 -12 c 0
 186.449 -12 137.039 19 111.14 43 c 0
 88.6035 64 74.1934 95 79.9316 122 c 0
 85.458 148 101.072 165 119.072 165 c 0
 148.072 165 157.309 152 160.507 120 c 0
 169.203 48 218.464 21 290.464 21 c 0
 417.464 21 506.922 169 537.255 307 c 1xd8
EndSplineSet
EndChar

StartChar: afii10048
Encoding: 1070 1070 93
Width: 905
VWidth: 999
Flags: HW
HStem: -12 39<517.224 661.561> -3 21<96 149 149 202> 302 44<187 285> 619 39<495.321 644.165> 628 20<96 149 149 202>
VStem: 106 86<2.67992 642.32> 285 96<193.326 302 346 446.919> 770 96<190.805 458.298>
LayerCount: 2
Fore
SplineSet
200.588 445 m 2
 216.529 520 228.983 588 233.099 645 c 1
 235.736 648 l 1
 235.736 648 252.099 645 286.099 645 c 0
 321.099 645 338.736 648 338.736 648 c 1
 339.099 645 l 1
 319.833 592 302.529 520 286.588 445 c 2
 234.512 200 l 6
 218.569 125 206.116 57 202 0 c 5
 199.362 -3 l 5
 199.362 -3 183 0 149 0 c 4
 114 0 96.3623 -3 96.3623 -3 c 5
 96 0 l 5
 115.479 54 132.569 125 148.512 200 c 6
 200.588 445 l 2
693.572 619 m 0xb7
 609.572 619 495.143 537 450.506 327 c 0
 409.695 135 489.739 27 597.739 27 c 0
 700.739 27 797.845 131 835.893 310 c 0
 880.104 518 818.572 619 693.572 619 c 0xb7
260.545 346 m 1
 359.545 346 l 1
 410.592 525 556.862 658 712.862 658 c 0
 880.862 658 978.018 527 935.931 329 c 0
 893.42 129 749.449 -12 571.449 -12 c 0
 413.449 -12 309.956 108 349.192 302 c 1
 251.192 302 l 1
 260.545 346 l 1
EndSplineSet
EndChar

StartChar: afii10049
Encoding: 1071 1071 94
Width: 561
VWidth: 999
Flags: HW
HStem: -3 21G<0 11.833 112.333 127.333 369.833 422.833 422.833 475.833> 286 44<272.871 379.833> 613 39<216.489 397.534>
VStem: 70.833 97<391.208 564.52> 379.833 86<2.67992 286 330 603.161>
LayerCount: 2
Back
SplineSet
387.695 322.754 m 21
 281.25 322.754 266.602 281.738 230.469 179.688 c 4
 191.895 70.3125 163.085 1.07129 91.3086 0 c 6
 25.8789 -0.976562 l 5xa2
 24.4141 0.976562 l 5x62
 24.4141 19.5312 l 6
 24.4141 24.9023 27.832 27.832 31.7383 27.832 c 6xb2
 41.0156 27.832 l 6
 73.7305 27.832 125 102.539 176.758 235.84 c 4
 200.684 296.387 219.238 342.773 281.25 342.773 c 5
 263.021 350.424 84.1318 351.723 83.9844 504.395 c 5
 83.9844 562.5 117.676 646.484 303.711 646.484 c 4
 338.867 646.484 397.461 644.531 430.176 644.531 c 4
 461.914 644.531 558.594 646.484 558.594 646.484 c 5
 558.594 624.512 l 6
 558.594 620.605 556.763 617.676 551.27 617.676 c 6
 521.484 617.676 l 6
 479.98 617.676 468.262 607.939 468.262 573.73 c 6
 468.262 71.2891 l 6
 468.262 40.5273 483.398 27.832 522.949 27.832 c 6
 549.316 27.832 l 6
 553.711 27.832 557.617 24.9023 557.617 19.5312 c 6
 557.617 0.976562 l 5
 555.664 -0.976562 l 5
 555.664 -0.976562 468.75 0.976562 429.688 0.976562 c 4
 394.043 0.976562 300.781 -0.976562 300.781 -0.976562 c 5
 298.828 0.976562 l 5
 298.828 19.5312 l 6
 298.828 24.9023 301.758 27.832 306.641 27.832 c 6
 333.008 27.832 l 6
 374.023 27.832 387.695 43.457 387.695 71.2891 c 6
 387.695 322.754 l 21
387.695 575.195 m 6
 387.695 365.723 l 5
 310.059 365.723 l 6
 227.051 365.723 161.133 417.969 161.133 502.441 c 4
 161.133 594.727 240.723 611.328 296.875 611.328 c 4x36
 383.301 611.328 387.695 607.91 387.695 575.195 c 6
EndSplineSet
Fore
SplineSet
296.743 314 m 1
 388.767 300 l 1
 349.327 265 306.763 220 266.41 176 c 0
 200.105 104 139.589 31 121.362 -3 c 1
 103 0 73 0 54 0 c 0
 34 0 22 0 1.3623 -3 c 1
 0 0 l 1
 65.7529 60 217.951 235 296.743 314 c 1
440.791 286 m 1
 314.791 286 269.767 300 238.593 318 c 0
 190.332 345 155.385 397 172.814 479 c 0
 183.442 529 209.157 570 252.384 604 c 0
 309.949 649 373.587 652 436.587 652 c 0
 461.587 652 530.099 645 560.099 645 c 0
 594.099 645 611.736 648 611.736 648 c 1
 613.099 645 l 1
 592.983 588 576.529 520 560.588 445 c 2
 508.512 200 l 2
 492.569 125 479.479 54 476 0 c 1
 474.362 -3 l 1
 474.362 -3 458 0 423 0 c 0
 389 0 371.362 -3 371.362 -3 c 1
 370 0 l 1
 390.116 57 406.569 125 422.512 200 c 2
 440.791 286 l 1
427.297 613 m 0
 366.297 613 294.684 596 269.602 478 c 0
 243.032 353 305.144 330 402.144 330 c 2
 450.144 330 l 1
 500.944 569 l 2
 507.108 598 498.297 613 427.297 613 c 0
EndSplineSet
EndChar

StartChar: afii10089
Encoding: 1095 1095 95
Width: 510
VWidth: 999
Flags: HW
HStem: -3 21<323 373 373 423> 137 44<162.252 301.419> 412 20G<57 107 107 157 323 373 373 423>
VStem: 68 80<195.691 426.366> 333 80<2.66468 426.335>
LayerCount: 2
Back
SplineSet
664.062 430.664 m 5
 666.016 428.711 l 5
 666.016 410.156 l 6
 666.016 404.785 663.086 401.855 658.203 401.855 c 6
 631.836 401.855 l 6
 590.82 401.855 74.2188 401.855 34.668 401.855 c 6
 8.30078 401.855 l 6
 3.90625 401.855 0 404.785 0 410.156 c 6
 0 428.711 l 5
 1.95312 430.664 l 5
 664.062 430.664 l 5
-122.07 428.711 m 5
 785.156 428.711 l 5
-57.1289 0.976562 m 5
 990.234 0.976562 l 5
741.699 27.832 m 6
 768.066 27.832 l 6
 772.461 27.832 776.367 24.9023 776.367 19.5312 c 6
 776.367 0.976562 l 5
 774.414 -0.976562 l 5
 9.27734 -0.976562 l 5
 7.32422 0.976562 l 5
 7.32422 19.5312 l 6
 7.32422 24.9023 10.2539 27.832 15.1367 27.832 c 6
 41.5039 27.832 l 6
 82.5195 27.832 702.148 27.832 741.699 27.832 c 6
EndSplineSet
Fore
SplineSet
386.139 250 m 22
 401.23 321 411.709 375 414.187 429 c 5
 415.824 432 l 5
 415.824 432 429.187 429 464.187 429 c 4
 498.187 429 512.824 432 512.824 432 c 5
 514.187 429 l 5
 493.071 372 483.081 325 466.139 250 c 6
 451.048 179 l 6
 435.101 103.974 426.116 57 423 0 c 5
 420.362 -3 l 5
 420.362 -3 407 0 373 0 c 4
 338 0 323.362 -3 323.362 -3 c 5
 323 0 l 5
 343.479 54 355.317 104.994 371.048 179 c 6
 386.139 250 l 22
129.854 291 m 0
 145.902 366.5 144.921 376 148.187 429 c 1
 149.824 432 l 1
 149.824 432 163.187 429 198.187 429 c 0
 232.187 429 246.824 432 246.824 432 c 1
 248.187 429 l 1
 228.071 372 226.223 368.007 210.279 293 c 0
 193.699 215 193.473 181 255.473 181 c 0
 304.473 181 344.023 193 382.825 225 c 9
 373.26 180 l 1
 328.096 151 293.12 137 233.12 137 c 0
 135.12 137 107.323 185 129.854 291 c 0
EndSplineSet
EndChar

StartChar: afii10090
Encoding: 1096 1096 96
Width: 807
VWidth: 999
Flags: HW
HStem: 0 41<185.326 354.674 451.326 622.533> 412 20G<87 137 137 187 353 403 403 453 619 670 670 720>
VStem: 97 80<55.1837 426.335> 363 80<55.1837 426.335> 629 80<43.5547 426.335>
CounterMasks: 1 38
LayerCount: 2
Fore
SplineSet
751.512 200 m 22
 735.676 125.5 722.479 54 719 0 c 1
 717.362 -3 l 1
 717.362 -3 700 0 666 0 c 2
 140 0 l 2
 106 0 87.3623 -3 87.3623 -3 c 1
 87 0 l 1
 106.479 54 123.569 125 139.512 200 c 10
 150.139 250 l 2
 166.086 325.026 175.071 372 178.187 429 c 1
 180.824 432 l 1
 180.824 432 194.187 429 228.187 429 c 0
 263.187 429 277.824 432 277.824 432 c 1
 278.187 429 l 1
 257.709 375 245.87 324.007 230.139 250 c 2
 219.512 200 l 18
 215.897 183 194.579 78 196.479 54 c 1
 201.565 45 204.715 41 219.715 41 c 2
 337.715 41 l 2
 352.715 41 357.565 45 366.479 54 c 1
 378.579 78 401.897 183 405.512 200 c 10
 416.139 250 l 2
 432.086 325.026 441.071 372 444.187 429 c 1
 446.824 432 l 1
 446.824 432 460.187 429 494.187 429 c 0
 529.187 429 543.824 432 543.824 432 c 1
 544.187 429 l 1
 523.709 375 511.87 324.007 496.139 250 c 2
 485.512 200 l 18
 481.897 183 460.579 78 462.479 54 c 1
 467.565 45 470.715 41 485.715 41 c 2
 617.715 41 l 2
 632.715 41 623.565 45 632.479 54 c 1
 644.579 78 667.897 183 671.512 200 c 10
 681.927 249 l 2
 698.082 325.007 706.571 372 710.187 429 c 1
 712.824 432 l 1
 712.824 432 726.854 429 761.187 429 c 0
 796.187 429 810.824 432 810.824 432 c 1
 811.187 429 l 1
 791.315 375.5 777.881 324.06 761.927 249 c 2
 751.512 200 l 22
EndSplineSet
EndChar

StartChar: afii10091
Encoding: 1097 1097 97
Width: 813
VWidth: 999
Flags: HW
HStem: 0 41<185.326 354.674 451.326 622.533> 412 20G<87 137 137 187 353 403 403 453 619 670 670 720>
VStem: 97 80<55.1837 426.335> 363 80<55.1837 426.335> 629 80<41.465 426.335> 731 36<-125 -51.0881>
LayerCount: 2
Back
SplineSet
496.094 31.7383 m 6
 463.379 31.7383 459.961 45.4102 459.961 75.1953 c 14
385.254 72.7539 m 22
 385.254 49.8047 370.605 27.832 347.168 27.832 c 4
 324.219 27.832 320.312 17.0898 320.312 9.27734 c 6
 314.453 -128.418 l 5
 339.355 -128.418 l 5
 352.539 -63.4766 393.066 3.90625 464.355 3.90625 c 6
601.562 35.6445 m 6
 634.277 35.6445 637.695 49.3164 637.695 79.1016 c 14
712.402 72.7539 m 22
 712.402 49.8047 727.051 27.832 750.488 27.832 c 4
 773.438 27.832 777.344 17.0898 777.344 9.27734 c 6
 783.203 -128.418 l 5
 758.301 -128.418 l 5
 745.117 -63.4766 704.59 3.90625 633.301 3.90625 c 6
EndSplineSet
Fore
SplineSet
140 0 m 6
 106 0 87.3623 -3 87.3623 -3 c 5
 87 0 l 5
 106.479 54 123.569 125 139.512 200 c 14
 150.139 250 l 6
 166.086 325.026 175.071 372 178.187 429 c 5
 180.824 432 l 5
 180.824 432 194.187 429 228.187 429 c 4
 263.187 429 277.824 432 277.824 432 c 5
 278.187 429 l 5
 257.709 375 245.87 324.007 230.139 250 c 6
 219.512 200 l 22
 215.897 183 194.579 78 196.479 54 c 5
 201.565 45 204.715 41 219.715 41 c 6
 337.715 41 l 6
 352.715 41 357.565 45 366.479 54 c 5
 378.579 78 401.897 183 405.512 200 c 14
 416.139 250 l 6
 432.086 325.026 441.071 372 444.187 429 c 5
 446.824 432 l 5
 446.824 432 460.187 429 494.187 429 c 4
 529.187 429 543.824 432 543.824 432 c 5
 544.187 429 l 5
 523.709 375 511.87 324.007 496.139 250 c 6
 485.512 200 l 22
 481.897 183 460.579 78 462.479 54 c 5
 467.565 45 470.715 41 485.715 41 c 6
 617.715 41 l 6
 632.715 41 623.565 45 632.479 54 c 5
 644.579 78 667.897 183 671.512 200 c 14
 681.927 249 l 6
 698.082 325.007 706.571 372 710.187 429 c 5
 712.824 432 l 5
 712.824 432 726.854 429 761.187 429 c 4
 796.187 429 810.824 432 810.824 432 c 5
 811.187 429 l 5
 791.315 375.5 777.881 324.06 761.927 249 c 6
 751.512 200 l 22
 728.13 90 722.689 35 755.802 32 c 0
 780.233 29.7861 783.393 20.667 781.338 11 c 1
 740.431 -125 l 1
 737.793 -128 l 1
 705.793 -128 l 1
 704.431 -125 l 1
 708.958 -52.4004 707.721 0 628 0 c 6
 140 0 l 6
EndSplineSet
EndChar

StartChar: afii10092
Encoding: 1098 1098 98
Width: 539
VWidth: 999
Flags: HW
HStem: -2 36<257.183 402.245> 219 37<273 402.262> 374 55<34.7075 190>
VStem: 193 80<40.3429 219 256 372.311> 428 80<60.92 197.087>
LayerCount: 2
Back
SplineSet
38.0859 429.688 m 9
 26.3672 277.832 l 25
 53.2227 275.391 l 17
 65.4297 332.52 79.5898 391.113 137.207 391.113 c 10
EndSplineSet
Fore
SplineSet
246.139 250 m 22
 261.23 321 269.496 374 269.496 374 c 5
 144.496 374 111.158 363 111.158 363 c 1
 109.796 366 l 1
 114.771 380 119.66 403 123.187 429 c 1
 125.612 431 l 1
 140.399 430 161.187 429 180.187 429 c 6
 324.187 429 l 6
 358.187 429 372.824 432 372.824 432 c 5
 374.187 429 l 5
 353.071 372 343.995 334.007 328.053 259.001 c 14
 327.414 256 l 21
 384.414 256 l 6
 480.414 256 556.888 230 536.907 136 c 4
 519.053 52 445.575 -2 334.575 -2 c 12
 294.787 -2 272.788 0 233 0 c 20
 198 0 183.362 -3 183.362 -3 c 5
 183 0 l 5
 203.479 54 215.317 104.994 231.048 179 c 6
 246.139 250 l 22
454.782 126 m 4
 466.048 179 457.55 219 386.55 219 c 6
 319.55 219 l 5
 289.792 79 l 6
 282.353 44 297.227 34 343.227 34 c 4
 393.227 34 437.353 44 454.782 126 c 4
EndSplineSet
EndChar

StartChar: afii10093
Encoding: 1099 1099 99
Width: 681
VWidth: 999
Flags: HW
HStem: -3 21<496 546 546 596> -2 36<165.183 310.245> 219 37<181 310.262> 412 20<91 141 141 191 496 546 546 596>
VStem: 101 80<40.3429 219 256 426.342> 336 80<60.92 197.087> 506 80<2.66468 426.335>
LayerCount: 2
Fore
SplineSet
236.053 259.001 m 14
 235.414 256 l 21
 292.414 256 l 6
 388.414 256 464.888 230 444.907 136 c 4
 427.053 52 353.575 -2 242.575 -2 c 12
 202.787 -2 180.788 0 141 0 c 20
 106 0 91.3623 -3 91.3623 -3 c 5
 91 0 l 5
 111.479 54 123.317 104.994 139.048 179 c 6
 154.139 250 l 22
 169.23 321 179.709 375 182.187 429 c 5
 183.824 432 l 5
 183.824 432 197.187 429 232.187 429 c 4
 266.187 429 280.824 432 280.824 432 c 5
 282.187 429 l 5
 261.071 372 251.995 334.007 236.053 259.001 c 14
362.782 126 m 4
 374.048 179 365.55 219 294.55 219 c 6
 227.55 219 l 5
 197.792 79 l 6
 190.353 44 205.227 34 251.227 34 c 4
 301.227 34 345.353 44 362.782 126 c 4
559.139 250 m 22
 574.23 321 584.709 375 587.187 429 c 5
 588.824 432 l 5
 588.824 432 602.187 429 637.187 429 c 4
 671.187 429 685.824 432 685.824 432 c 5
 687.187 429 l 5
 666.071 372 656.081 325 639.139 250 c 6
 624.048 179 l 6
 608.101 103.974 599.116 57 596 0 c 5
 593.362 -3 l 5
 593.362 -3 580 0 546 0 c 4
 511 0 496.362 -3 496.362 -3 c 5
 496 0 l 5
 516.479 54 528.317 104.994 544.048 179 c 6
 559.139 250 l 22
EndSplineSet
Colour: ff00ff
EndChar

StartChar: afii10094
Encoding: 1100 1100 100
Width: 447
VWidth: 999
Flags: HW
HStem: -2 36<165.183 310.245> 219 37<181 310.262> 412 20G<91 141 141 191>
VStem: 101 80<40.3429 219 256 426.342> 336 80<60.92 197.087>
LayerCount: 2
Back
SplineSet
180.664 357.422 m 6
 180.664 385.742 190.918 401.367 223.633 401.367 c 6
 242.676 401.367 l 6
 247.07 401.367 250.977 404.297 250.977 409.668 c 6
 250.977 428.223 l 5
 249.023 430.176 l 5
 249.023 430.176 180.664 428.223 141.602 428.223 c 4
 105.957 428.223 38.0859 430.176 38.0859 430.176 c 5
 36.1328 428.223 l 5
 36.1328 409.668 l 6
 36.1328 404.297 39.0625 401.367 43.9453 401.367 c 6
 62.9883 401.367 l 6
 96.6797 401.367 105.957 385.742 105.957 357.422 c 6
 105.957 108.398 l 2
 105.957 55.1758 97.168 46.875 83.4961 46.875 c 0
 70.3125 46.875 58.5938 48.3398 41.5039 51.7578 c 1
 36.6211 24.4141 l 1
 100.146 13.8271 112.061 9.0332 140.625 -4.45605 c 0
 151.082 -9.39453 158.317 -12.6953 165.527 -12.6953 c 2
 180.664 -12.6953 l 1
 180.664 357.422 l 6
EndSplineSet
Fore
SplineSet
236.053 259.001 m 14
 235.414 256 l 21
 292.414 256 l 6
 388.414 256 464.888 230 444.907 136 c 4
 427.053 52 353.575 -2 242.575 -2 c 12
 202.787 -2 180.788 0 141 0 c 20
 106 0 91.3623 -3 91.3623 -3 c 5
 91 0 l 5
 111.479 54 123.317 104.994 139.048 179 c 6
 154.139 250 l 22
 169.23 321 179.709 375 182.187 429 c 5
 183.824 432 l 5
 183.824 432 197.187 429 232.187 429 c 4
 266.187 429 280.824 432 280.824 432 c 5
 282.187 429 l 5
 261.071 372 251.995 334.007 236.053 259.001 c 14
362.782 126 m 4
 374.048 179 365.55 219 294.55 219 c 6
 227.55 219 l 5
 197.792 79 l 6
 190.353 44 205.227 34 251.227 34 c 4
 301.227 34 345.353 44 362.782 126 c 4
EndSplineSet
EndChar

StartChar: afii10095
Encoding: 1101 1101 101
Width: 434
VWidth: 999
Flags: HMW
HStem: -10 31<133.489 237.744> 180 49<160.832 302.074> 207 41<92.6331 188.46> 408 31<122.738 236.146>
VStem: 314 77<116.594 208 230.421 318.818>
LayerCount: 2
Back
SplineSet
136.23 390.625 m 6
 105.957 390.625 76.6602 377.93 58.1055 294.434 c 5
 31.7383 298.828 l 5
 63.4766 451.172 l 5
 86.9141 446.777 l 5
 87.6465 432.129 91.9902 429.688 107.91 429.688 c 6
309.03 207.447 m 1
 204.102 204.59 l 2
 192.383 204.59 175.781 201.66 161.133 201.66 c 0
 143.555 201.66 128.906 205.566 128.906 222.168 c 0
 128.906 241.211 142.09 245.117 158.691 245.117 c 0
 172.363 245.117 187.988 242.676 200.684 242.188 c 2
 307.162 239.663 l 1
 298.34 375 228.516 410.645 182.129 410.645 c 0
 101.562 410.645 79.5898 354.004 65.4297 287.598 c 1
 39.5508 291.992 l 1
 45.5518 336.016 48.9209 387.496 51.2695 441.865 c 1
 63.9648 441.895 l 1
 73.4863 441.895 77.3926 430.664 84.9609 430.664 c 1
 115.723 430.664 132.324 441.895 192.383 441.895 c 0
 315.43 441.895 385.742 330.566 385.742 220.215 c 0
 385.742 62.9883 271.973 -12.207 183.105 -12.207 c 0
 92.2852 -12.207 36.6211 24.4141 36.6211 84.4727 c 0
 36.6211 98.1445 48.8281 113.281 66.8945 113.281 c 0
 77.6367 113.281 103.027 109.375 107.91 76.1719 c 0
 112.863 42.4912 131.836 18.5547 182.617 18.5547 c 0
 234.276 18.5547 305.664 58.5938 309.03 207.447 c 1
EndSplineSet
Fore
SplineSet
363.163 236 m 1xd8
 371.68 309 358.723 408 268.723 408 c 0
 188.723 408 155.607 351 128.642 290 c 1
 102.491 294 l 1
 117.844 338 128.071 372 141.762 427 c 1
 211.762 427 214.312 439 285.312 439 c 0
 408.312 439 462.206 335 438.825 225 c 0
 405.454 68 281.874 -10 175.874 -10 c 0
 93.874 -10 44.2266 34 55.2803 86 c 0
 58.2559 100 73.4443 115 91.4443 115 c 0
 102.444 115 123.594 111 121.579 78 c 0
 120.353 44 146.464 21 189.464 21 c 0
 283.464 21 341.633 130 358.212 208 c 1
 333.661 196 297.26 180 266.26 180 c 0xd8
 222.26 180 198.999 207 163.999 207 c 0
 151.999 207 140.937 202 132.937 202 c 0
 126.937 202 127.85 211 128.699 215 c 0
 131.888 230 180.714 248 223.714 248 c 0xb8
 268.714 248 281.676 229 319.676 229 c 0
 335.676 229 350.101 231 363.163 236 c 1xd8
EndSplineSet
EndChar

StartChar: afii10096
Encoding: 1102 1102 102
Width: 686
VWidth: 999
Flags: HW
HStem: -10 35<422.78 523.403> -2 29<29 54 214 240> 198 39<171 268> 402 29<29 54 214 240> 406 33<403.08 503.112>
VStem: 97 74<33.7976 198 237 394.785> 268 80<113.871 198 237 323.327> 569 80<107.111 329.997>
LayerCount: 2
Fore
SplineSet
146.139 250 m 22
 161.23 321 171.709 375 174.187 429 c 5
 175.824 432 l 5
 175.824 432 189.187 429 224.187 429 c 4
 258.187 429 272.824 432 272.824 432 c 5
 274.187 429 l 5
 253.071 372 243.081 325 226.139 250 c 6
 211.048 179 l 6
 195.101 103.974 186.116 57 183 0 c 5
 180.362 -3 l 5
 180.362 -3 167 0 133 0 c 4
 98 0 83.3623 -3 83.3623 -3 c 5
 83 0 l 5
 103.479 54 115.317 104.994 131.048 179 c 6
 146.139 250 l 22
221.376 237 m 6
 319.376 237 l 5x77
 354.67 356 437.312 439 552.312 439 c 0
 696.312 439 717.23 321 695.125 217 c 0
 673.869 117 594.874 -10 455.874 -10 c 0xaf
 327.874 -10 290.618 97 310.086 198 c 5
 213.086 198 l 5
 221.376 237 l 6
534.235 401 m 0
 460.235 401 419.53 313 401.038 226 c 0
 384.671 149 387.377 30 481.377 30 c 0
 522.377 30 575.266 53 603.323 185 c 0
 634.356 331 612.235 401 534.235 401 c 0
EndSplineSet
EndChar

StartChar: afii10097
Encoding: 1103 1103 103
Width: 429
VWidth: 999
Flags: HW
HStem: -3 30<10 25> 195 35<206.934 268> 204 26<157.163 165> 402 30<151.259 285.062>
VStem: 38 85<253.842 371.816> 268 80<2.65817 195 230 398.777>
LayerCount: 2
Back
SplineSet
287.598 243.652 m 1xe8
 287.598 210.449 l 1
 204.102 210.449 186.035 172.363 164.062 112.793 c 4
 148.926 72.2656 122.559 0.976562 77.6367 0 c 6
 12.6953 -0.976562 l 5
 10.2539 0.976562 l 5
 10.2539 19.5312 l 6
 10.2539 26.8555 16.1133 27.832 20.5078 27.832 c 6
 27.832 27.832 l 6
 61.0352 27.832 97.168 119.141 111.328 156.738 c 4
 129.395 205.566 164.551 226.562 212.891 226.562 c 1
 173.34 234.375 153.32 274.902 140.137 318.359 c 0
 130.371 348.633 116.699 370.605 106.934 370.605 c 0
 99.1211 370.605 93.75 368.164 89.3555 363.77 c 0
 83.9844 357.91 71.7773 354.492 62.9883 354.492 c 0
 45.8984 354.492 28.3203 373.047 28.3203 393.066 c 0
 28.3203 417.48 38.0859 437.5 75.1953 437.5 c 0
 118.164 437.5 146.973 383.789 163.086 337.402 c 0
 182.129 281.738 208.496 243.652 269.531 243.652 c 2
 287.598 243.652 l 1xe8
EndSplineSet
Fore
SplineSet
401.352 251 m 2xbc
 385.835 178 l 2
 370.956 108 360.479 54 358 0 c 1
 356.362 -3 l 1
 356.362 -3 343 0 308 0 c 0
 274 0 259.362 -3 259.362 -3 c 1
 258 0 l 1
 279.116 57 288.193 95 303.922 169 c 2
 309.448 195 l 1
 284.448 195 l 2xdc
 244.448 195 209.82 145 176.854 84 c 0
 154.14 43 118.213 1 83 0 c 2
 9.3623 -3 l 1
 7 0 l 1
 11.0391 19 l 2
 12.5264 26 18.7393 27 22.7393 27 c 2
 30.9512 28 l 2
 58.5889 31 106.83 98 128.907 136 c 0
 153.622 177 179.086 198 208.361 204 c 5
 153.361 204 88.8008 239 103.893 310 c 0
 110.057 339 147.824 432 308.824 432 c 0
 345.824 432 363.187 429 399.187 429 c 16
 434.187 429 448.824 432 448.824 432 c 1
 449.187 429 l 1
 428.709 375 416.868 324 401.352 251 c 2xbc
316.888 230 m 1
 345.796 366 l 2
 352.598 398 338.447 402 299.447 402 c 0
 225.447 402 201.221 368 191.23 321 c 0
 180.603 271 194.888 230 251.888 230 c 2xbc
 316.888 230 l 1
EndSplineSet
EndChar

StartChar: uni04AE
Encoding: 1198 1198 104
Width: 591
VWidth: 999
Flags: HW
HStem: -3 21<242.42 247 334 339.566> 628 20<24.5 36 121.5 157.5 454.375 486 503.5 557.5>
LayerCount: 2
Fore
SplineSet
304.453 275 m 1
 280.27 340 180.983 588 153.736 648 c 1
 170.099 645 193.099 645 210.099 645 c 7
 227.099 645 250.099 645 267.736 648 c 1
 299.78 540 339.375 444 380.568 332 c 1
 304.453 275 l 1
373.977 336 m 1
 451.882 427.629 543.861 541.557 617.736 648 c 1
 629.099 645 646.099 645 659.099 645 c 7
 671.099 645 688.099 645 701.736 648 c 1
 541.414 463 452.583 365 394.579 285 c 1
 373.977 336 l 1
405.957 338.5 m 1
 386.521 246.335 348.702 54.4287 341.362 -3 c 1
 326 0 305 0 290 0 c 7
 275 0 255 0 238.362 -3 c 1
 259.325 63.4434 294.783 229.527 315.931 329 c 1
 405.957 338.5 l 1
EndSplineSet
Colour: ff00ff
EndChar

StartChar: uni04C0
Encoding: 1216 1216 105
Width: 293
VWidth: 999
Flags: HW
HStem: -3 21<96 149 149 202> 628 20<96 149 149 202>
VStem: 106 86<2.67992 642.32>
LayerCount: 2
Fore
SplineSet
200.588 445 m 2
 216.529 520 228.983 588 233.099 645 c 1
 235.736 648 l 1
 235.736 648 252.099 645 286.099 645 c 0
 321.099 645 338.736 648 338.736 648 c 1
 339.099 645 l 1
 319.833 592 302.529 520 286.588 445 c 2
 234.512 200 l 6
 218.569 125 206.116 57 202 0 c 5
 199.362 -3 l 5
 199.362 -3 183 0 149 0 c 4
 114 0 96.3623 -3 96.3623 -3 c 5
 96 0 l 5
 115.479 54 132.569 125 148.512 200 c 6
 200.588 445 l 2
EndSplineSet
Colour: ff00ff
EndChar

StartChar: uni04D0
Encoding: 1232 1232 106
Width: 633
VWidth: 999
Flags: HW
HStem: -3 21<24 68.5 92 115.444 500.087 513.5 590 606.5> 230 44<188.935 310> 638 20<265 387> 698 31<285.536 376.309>
VStem: 206 70<736.681 803.162> 385 70<735.774 803.125>
LayerCount: 2
Fore
SplineSet
250.331 275.992 m 5
 282.289 275.855 331.458 274 363.24 274 c 4
 397.352 274 447.616 274.95 481.982 275.924 c 5
 484.147 228.081 l 5
 444.464 229.054 399.749 230 358.888 230 c 4
 322.079 230 260.069 229.049 222.147 228.081 c 5
 222.147 228.081 249.774 275.992 250.331 275.992 c 5
416.937 521.764 m 5
 309.603 354.739 160.059 127.827 97.3623 -3 c 5
 86 0 64 0 53 0 c 4
 42 0 30 0 17.3623 -3 c 5
 165.337 218 309.675 436 452.862 658 c 5
 480.862 658 l 5
 526.312 439 585.83 98 614.362 -3 c 5
 598 0 572 0 555 0 c 4
 538 0 522 0 504.362 -3 c 5
 502.078 32.4844 488.094 210.993 418.937 521.764 c 5
 416.937 521.764 l 5
485.954 729 m 3
 518.954 729 545.567 746 549.181 763 c 0
 550.243 768 550.519 774 550.944 776 c 0
 554.132 791 567.32 806 590.32 806 c 3
 617.32 806 624.345 792 620.307 773 c 0
 609.253 721 545.364 698 479.364 698 c 3
 413.364 698 359.253 721 370.307 773 c 0
 374.345 792 387.32 806 414.32 806 c 3
 437.32 806 444.132 791 440.944 776 c 0
 440.519 774 438.243 768 437.181 763 c 0
 433.567 746 452.954 729 485.954 729 c 3
EndSplineSet
LCarets2: 1 0 
Colour: ff00ff
EndChar

StartChar: uni04D1
Encoding: 1233 1233 107
Width: 461
VWidth: 999
Flags: HW
HStem: -10 51<138.029 242.029 327.75 409.627> 394 45<147.355 264.803> 489 31<171.971 246.548>
VStem: 42 81<56.8026 162.817> 88 73<526.553 605.612> 257 73<526.548 606.379> 293 79.07<81.0426 223 264.049 363.451>
DStem2: 199 243 212 202 0.972687 0.232119<-72.5363 85.8176>
LayerCount: 2
Fore
SplineSet
384.154 76 m 0
 379.903 56 382.565 45 393.565 45 c 3
 407.565 45 423.541 59 434.028 66 c 1
 436.604 64 l 1
 448.14 43 l 1
 408.638 3 379.874 -10 348.874 -10 c 3
 301.874 -10 299.802 32 301.203 48 c 1
 299.203 48 l 1
 239.638 3 209.874 -10 157.874 -10 c 3
 87.874 -10 47.1016 24 62.8301 98 c 0
 77.2842 166 149.763 220 250.651 243 c 2
 343.115 264 l 2
 346.327 265 350.178 269 351.666 276 c 0
 375.685 389 320.747 394 286.747 394 c 3
 241.747 394 190.395 350 154.83 305 c 1
 142.042 306 l 1
 140.283 373 l 1
 144.134 377 l 1
 172.598 398 233.312 439 305.312 439 c 3
 377.312 439 459.573 412 430.878 277 c 0
 428.54 266 390.318 105 384.154 76 c 0
339.4 223 m 1
 254.937 202 l 2
 176.897 183 154.246 147 144.681 102 c 0
 138.092 71 155.715 41 197.715 41 c 3
 225.715 41 262.391 63 292.854 84 c 0
 302.13 90 309.618 97 312.381 110 c 2
 339.4 223 l 1
452.646 577 m 0
 440.954 522 375.94 489 311.94 489 c 0
 246.94 489 198.954 522 210.433 576 c 0
 214.259 594 233.447 609 256.447 609 c 0
 278.447 609 287.471 595 284.07 579 c 0
 283.433 576 283.008 574 281.37 571 c 0
 279.732 568 279.095 565 278.669 563 c 0
 273.993 541 289.529 520 319.529 520 c 0
 348.529 520 373.78 540 378.457 562 c 0
 379.095 565 379.732 568 379.37 571 c 0
 378.795 573 379.22 575 379.857 578 c 0
 383.471 595 403.447 609 421.447 609 c 0
 445.447 609 456.684 596 452.646 577 c 0
EndSplineSet
LCarets2: 1 0 
Colour: ff00ff
EndChar

StartChar: uni04D2
Encoding: 1234 1234 108
Width: 633
VWidth: 999
Flags: HW
HStem: -3 21<24 68.5 92 115.444 500.087 513.5 590 606.5> 230 44<188.935 310> 638 20<265 387> 712 92<210.347 287.653 370.347 447.653>
VStem: 203 92<719.347 796.653> 363 92<719.347 796.653>
LayerCount: 2
Fore
SplineSet
250.331 275.992 m 5
 282.289 275.855 331.458 274 363.24 274 c 4
 397.352 274 447.616 274.95 481.982 275.924 c 5
 484.147 228.081 l 5
 444.464 229.054 399.749 230 358.888 230 c 4
 322.079 230 260.069 229.049 222.147 228.081 c 5
 222.147 228.081 249.774 275.992 250.331 275.992 c 5
416.937 521.764 m 5
 309.603 354.739 160.059 127.827 97.3623 -3 c 5
 86 0 64 0 53 0 c 4
 42 0 30 0 17.3623 -3 c 5
 165.337 218 309.675 436 452.862 658 c 5
 480.862 658 l 5
 526.312 439 585.83 98 614.362 -3 c 5
 598 0 572 0 555 0 c 4
 538 0 522 0 504.362 -3 c 5
 502.078 32.4844 488.094 210.993 418.937 521.764 c 5
 416.937 521.764 l 5
524.118 758 m 0
 529.432 783 554.896 804 579.896 804 c 3
 604.896 804 621.432 783 616.118 758 c 0
 610.804 733 585.34 712 560.34 712 c 3
 535.34 712 518.804 733 524.118 758 c 0
364.118 758 m 0
 369.432 783 394.896 804 419.896 804 c 3
 444.896 804 461.432 783 456.118 758 c 0
 450.804 733 425.34 712 400.34 712 c 3
 375.34 712 358.804 733 364.118 758 c 0
EndSplineSet
LCarets2: 1 0 
Colour: ff00ff
EndChar

StartChar: uni04D3
Encoding: 1235 1235 109
Width: 461
VWidth: 999
Flags: HW
HStem: -10 51<138.029 242.029 327.75 409.627> 394 45<147.355 264.803> 527 92<94.3474 171.653 254.347 331.653>
VStem: 42 81<56.8026 162.817> 87 92<534.347 611.653> 247 92<534.347 611.653> 293 79.07<81.0426 223 264.049 363.451>
DStem2: 199 243 212 202 0.972687 0.232119<-72.5363 85.8176>
LayerCount: 2
Fore
SplineSet
384.154 76 m 0
 379.903 56 382.565 45 393.565 45 c 3
 407.565 45 423.541 59 434.028 66 c 1
 436.604 64 l 1
 448.14 43 l 1
 408.638 3 379.874 -10 348.874 -10 c 3
 301.874 -10 299.802 32 301.203 48 c 1
 299.203 48 l 1
 239.638 3 209.874 -10 157.874 -10 c 3
 87.874 -10 47.1016 24 62.8301 98 c 0
 77.2842 166 149.763 220 250.651 243 c 2
 343.115 264 l 2
 346.327 265 350.178 269 351.666 276 c 0
 375.685 389 320.747 394 286.747 394 c 3
 241.747 394 190.395 350 154.83 305 c 1
 142.042 306 l 1
 140.283 373 l 1
 144.134 377 l 1
 172.598 398 233.312 439 305.312 439 c 3
 377.312 439 459.573 412 430.878 277 c 0
 428.54 266 390.318 105 384.154 76 c 0
339.4 223 m 1
 254.937 202 l 2
 176.897 183 154.246 147 144.681 102 c 0
 138.092 71 155.715 41 197.715 41 c 3
 225.715 41 262.391 63 292.854 84 c 0
 302.13 90 309.618 97 312.381 110 c 2
 339.4 223 l 1
368.795 573 m 0
 374.108 598 399.572 619 424.572 619 c 3
 449.572 619 466.108 598 460.795 573 c 0
 455.481 548 430.018 527 405.018 527 c 3
 380.018 527 363.481 548 368.795 573 c 0
208.795 573 m 0
 214.108 598 239.572 619 264.572 619 c 3
 289.572 619 306.108 598 300.795 573 c 0
 295.481 548 270.018 527 245.018 527 c 3
 220.018 527 203.481 548 208.795 573 c 0
EndSplineSet
LCarets2: 1 0 
Colour: ff00ff
EndChar

StartChar: uni04D4
Encoding: 1236 1236 110
Width: 802
VWidth: 999
Flags: HW
HStem: -2 29<4 35 167 201 342 374> 0 39<514.23 740.226> 266 39<271 429> 329 34<512 654.005> 605 40<517.062 711.984> 618 28<296 333>
VStem: 429 83<40.8651 266 305 329 363 597.745> 671 33<247 312.081 407 445>
DStem2: 102.87 85 148 68 0.46188 0.886943<-25.6807 228.955 272.783 581.116>
LayerCount: 2
Fore
SplineSet
503.099 645 m 1
 505.736 648 l 1
 505.736 648 522.099 645 556.099 645 c 0
 586.099 645 769.099 645 769.099 645 c 2
 790.099 645 813.312 646 829.736 648 c 1
 831.099 645 l 1
 827.123 631 824.21 622 822.51 614 c 0
 820.597 605 819.684 596 818.983 588 c 1
 816.133 584 l 1
 816.133 584 740.987 594.276 635.317 594.276 c 0
 544.817 594.276 539.602 581.5 539.604 518 c 1
 495.923 519.5 498.983 588 503.099 645 c 1
532.781 333 m 1
 650.781 333 707.844 338 767.907 343 c 1
 770.27 340 l 1
 766.356 331 763.23 321 761.317 312 c 0
 759.404 303 758.279 293 758.366 284 c 1
 754.729 281 l 1
 687.216 288 571.854 291 523.854 291 c 1
 532.781 333 l 1
507.468 101 m 9
 507.468 101 524.171 149 526.069 125 c 1
 557.157 125 514.544 54.6455 545.326 55.6377 c 1
 647.229 58.9219 766.028 66 766.028 66 c 1
 767.179 62 l 1
 764.479 54 760.29 39 758.164 29 c 0
 756.039 19 755.976 14 754 0 c 1
 751.362 -3 l 1
 735.787 -1 713 0 692 0 c 2
 553.5 0 l 1
 487.592 71 l 0
 452.592 71 507.83 98 507.83 98 c 1
 507.468 101 l 9
290.959 325.992 m 1
 322.917 325.855 372.086 324 403.868 324 c 0
 437.979 324 488.244 324.95 522.61 325.924 c 1
 524.775 278.081 l 1
 485.092 279.054 440.377 280 399.516 280 c 0
 362.707 280 300.697 279.049 262.775 278.081 c 1
 262.775 278.081 290.402 325.992 290.959 325.992 c 1
467.898 533.5 m 1
 332.521 360 175.207 128 97.3623 -3 c 1
 86 0 64 0 53 0 c 0
 42 0 30 0 17.3623 -3 c 1
 166.512 200 308.148 410 503.257 645.667 c 1
 507.009 635.166 l 1
 535.009 635.166 l 1
 542.24 638.833 l 1
 535.298 406 546.231 114 555 0 c 1
 536.5 0 517 0 500 0 c 0
 483 0 467 0 449.362 -3 c 1
 460.203 48 464.799 199 469.898 533.5 c 1
 467.898 533.5 l 1
EndSplineSet
Colour: ff00ff
EndChar

StartChar: uni04D5
Encoding: 1237 1237 111
Width: 687
VWidth: 999
Flags: HW
HStem: -10 42<134.122 258.283> -10 49<441.951 572.545> 215 35<204.499 298 372 496.805> 409 30<145.729 252.328 445.807 530.397>
VStem: 39 72<54.272 157.224> 50 73<295.734 386.882> 298 73<118.361 215 253 332.285> 572 76<289.995 379.656>
LayerCount: 2
Fore
SplineSet
285.747 394 m 0
 241.247 394 189.395 350 153.83 305 c 1
 141.042 306 l 1
 139.283 373 l 1
 143.134 377 l 1
 171.991 397.5 231.812 439 304.312 439 c 0
 328.312 439 403.675 436 426.434 369 c 1
 468.998 414 526.312 439 583.312 439 c 0
 697.312 439 718.907 343 711.68 309 c 0
 705.118 278.13 693.989 254 670.376 237 c 1
 630.446 217.305 557.452 225.427 420.337 218 c 1
 397.807 112 432.353 44 507.353 44 c 0
 561.353 44 607.367 77 644.807 112 c 1
 658.854 84 l 1
 618.377 30 547.874 -10 481.874 -10 c 0
 390.874 -10 367.227 34 352.541 59 c 1
 297.188 15 242.874 -10 187.874 -10 c 0
 82.874 -10 46.0146 33 60.4678 101 c 0
 78.1104 184 177.651 243 350.202 255 c 1
 368.917 348.623 358.547 394 285.747 394 c 0
429.84 258 m 1
 571.54 266 614.076 245 627.042 306 c 0
 633.844 338 620.747 394 572.747 394 c 0
 509.747 394 455.907 343 429.84 258 c 1
341.699 215 m 1
 206.149 203 154.371 157 143.531 106 c 0
 133.966 61 153.502 40 200.502 40 c 0
 236.502 40 283.966 61 306.256 100 c 0
 316.462 117.857 331.072 165 341.699 215 c 1
EndSplineSet
Colour: ff00ff
EndChar

StartChar: uni04D6
Encoding: 1238 1238 112
Width: 522
VWidth: 999
Flags: HW
HStem: 0 54<186.656 409.594> 321 42<182 388.188> 596 49<186.656 403.188> 698 31<228.531 319.312>
VStem: 96 86<55.2087 321 363 594.385> 149 70<736.681 803.162> 328 70<735.774 803.125>
LayerCount: 2
Fore
SplineSet
224.512 200 m 2
 220.897 183 199.579 78 201.479 54 c 1
 335.479 54 486.028 66 486.028 66 c 1
 487.179 62 l 1
 484.479 54 480.29 39 478.164 29 c 4
 476.039 19 475.976 14 474 0 c 1
 471.362 -3 l 1
 455.787 -1 433 0 412 0 c 2
 139 0 l 7
 104 0 86.3623 -3 86.3623 -3 c 1
 86 0 l 1
 105.479 54 122.569 125 138.512 200 c 2
 190.588 445 l 2
 206.529 520 218.983 588 223.099 645 c 1
 225.736 648 l 1
 225.736 648 242.099 645 276.099 645 c 7
 306.099 645 539.099 645 539.099 645 c 2
 560.099 645 583.312 646 599.736 648 c 1
 601.099 645 l 1
 597.123 631 594.21 622 592.51 614 c 4
 590.597 605 589.684 596 588.983 588 c 1
 586.133 584 l 1
 586.133 584 450.684 596 316.684 596 c 1
 304.582 572 280.201 462 276.588 445 c 2
 259.158 363 l 1
 377.158 363 424.221 368 484.283 373 c 1
 486.646 370 l 1
 482.733 361 479.607 351 477.694 342 c 4
 475.781 333 474.656 323 474.743 314 c 1
 471.105 311 l 1
 403.593 318 298.23 321 250.23 321 c 1
 224.512 200 l 2
428.954 729 m 3
 461.954 729 488.567 746 492.181 763 c 0
 493.243 768 493.519 774 493.944 776 c 0
 497.132 791 510.32 806 533.32 806 c 3
 560.32 806 567.345 792 563.307 773 c 0
 552.253 721 488.364 698 422.364 698 c 3
 356.364 698 302.253 721 313.307 773 c 0
 317.345 792 330.32 806 357.32 806 c 3
 380.32 806 387.132 791 383.944 776 c 0
 383.519 774 381.243 768 380.181 763 c 0
 376.567 746 395.954 729 428.954 729 c 3
EndSplineSet
LCarets2: 1 0 
Colour: ff00ff
EndChar

StartChar: uni04D7
Encoding: 1239 1239 113
Width: 442
VWidth: 999
Flags: HW
HStem: -10 59<197.345 335.48> 243 44<125 319.997> 399 40<175.584 290.389> 489 31<186.971 261.548>
VStem: 34 88<132.133 243> 103 73<526.553 605.612> 272 73<526.548 606.379> 320 89<254.5 358.106>
LayerCount: 2
Fore
SplineSet
418.318 105 m 1
 432.792 79 l 1
 383.739 27 314.874 -10 242.874 -10 c 3
 105.874 -10 51.8545 84 76.2988 199 c 0
 108.607 351 237.312 439 332.312 439 c 3
 464.312 439 482.119 344 464.265 260 c 0
 461.927 249 453.651 243 442.651 243 c 2
 173.651 243 l 1
 141.98 94 219.415 49 275.415 49 c 3
 330.415 49 375.241 67 418.318 105 c 1
186.004 287 m 1
 367.004 287 l 2
 377.004 287 382.066 292 383.979 301 c 0
 399.921 376 359.811 399 323.811 399 c 3
 300.811 399 225.109 391 186.004 287 c 1
467.646 577 m 0
 455.954 522 390.94 489 326.94 489 c 0
 261.94 489 213.954 522 225.433 576 c 0
 229.259 594 248.447 609 271.447 609 c 0
 293.447 609 302.471 595 299.07 579 c 0
 298.433 576 298.008 574 296.37 571 c 0
 294.732 568 294.095 565 293.669 563 c 0
 288.993 541 304.529 520 334.529 520 c 0
 363.529 520 388.78 540 393.457 562 c 0
 394.095 565 394.732 568 394.37 571 c 0
 393.795 573 394.22 575 394.857 578 c 0
 398.471 595 418.447 609 436.447 609 c 0
 460.447 609 471.684 596 467.646 577 c 0
EndSplineSet
LCarets2: 1 0 
Colour: ff00ff
EndChar

StartChar: uni04D8
Encoding: 1240 1240 114
Width: 644
VWidth: 999
Flags: HW
HStem: -12 34<246.269 393.278> 216 44<122 511> 624 34<207.892 368.818>
VStem: 521 90<221.919 443.038>
LayerCount: 2
Fore
SplineSet
167.912 216 m 1
 171.28 86 229.676 22 327.676 22 c 0
 433.676 22 517.656 116 556.912 216 c 1
 167.912 216 l 1
208.167 523 m 9
 190.269 547 l 17
 284.998 621 339.862 658 449.862 658 c 0
 664.862 658 714.09 485 680.293 326 c 0
 638.845 131 506.449 -12 313.449 -12 c 0
 121.449 -12 78.082 118 97.2646 260 c 1
 575.265 260 l 1
 578.603 271 581.153 283 584.129 297 c 0
 623.665 483 561.636 624 426.636 624 c 0
 333.636 624 272.22 575 208.167 523 c 9
EndSplineSet
Colour: ff00ff
EndChar

StartChar: afii10846
Encoding: 1241 1241 115
Width: 442
VWidth: 999
Flags: HW
HStem: -11 40<137.611 252.416> 141 44<108.003 303> 379 59<92.52 230.655>
VStem: 19 89<69.8942 173.5> 306 88<185 295.867>
LayerCount: 2
Fore
SplineSet
100.656 323 m 1
 86.1826 349 l 1
 135.235 401 204.1 438 276.1 438 c 3
 413.1 438 467.119 344 442.676 229 c 0
 410.367 77 281.662 -11 186.662 -11 c 3
 54.6621 -11 36.8545 84 54.71 168 c 0
 57.0479 179 65.3232 185 76.3232 185 c 2
 345.323 185 l 1
 376.994 334 299.559 379 243.559 379 c 3
 188.559 379 143.733 361 100.656 323 c 1
332.971 141 m 1
 151.971 141 l 2
 141.971 141 136.907 136 134.995 127 c 0
 119.053 52 159.164 29 195.164 29 c 3
 218.164 29 293.864 37 332.971 141 c 1
EndSplineSet
Colour: ff00ff
EndChar

StartChar: uni04DA
Encoding: 1242 1242 116
Width: 644
VWidth: 999
Flags: HW
HStem: -12 34<246.269 393.278> 216 44<122 511> 624 34<207.892 368.818> 706 90<192.481 269.519 382.301 458.653>
VStem: 186 90<712.481 789.519> 375 91<713.347 789.699> 521 90<221.919 443.038>
LayerCount: 2
Fore
SplineSet
167.912 216 m 1
 171.28 86 229.676 22 327.676 22 c 0
 433.676 22 517.656 116 556.912 216 c 1
 167.912 216 l 1
208.167 523 m 9
 190.269 547 l 17
 284.998 621 339.862 658 449.862 658 c 0
 664.862 658 714.09 485 680.293 326 c 0
 638.845 131 506.449 -12 313.449 -12 c 0
 121.449 -12 78.082 118 97.2646 260 c 1
 575.265 260 l 1
 578.603 271 581.153 283 584.129 297 c 0
 623.665 483 561.636 624 426.636 624 c 0
 333.636 624 272.22 575 208.167 523 c 9
342.843 752 m 4
 348.369 778 375.045 800 401.045 800 c 7
 427.045 800 444.369 778 438.843 752 c 4
 433.316 726 406.64 704 380.64 704 c 7
 354.64 704 337.316 726 342.843 752 c 4
531.843 752 m 4
 537.369 778 564.045 800 590.045 800 c 7
 616.045 800 633.369 778 627.843 752 c 4
 622.316 726 595.64 704 569.64 704 c 7
 543.64 704 526.316 726 531.843 752 c 4
EndSplineSet
LCarets2: 1 0 
Colour: ff00ff
EndChar

StartChar: uni04DB
Encoding: 1243 1243 117
Width: 442
VWidth: 999
Flags: HW
HStem: -11 40<137.611 252.416> 141 44<108.003 303> 379 59<92.52 230.655> 527 92<94.3474 171.653 254.347 331.653>
VStem: 19 89<69.8942 173.5> 87 92<534.347 611.653> 247 92<534.347 611.653> 306 88<185 295.867>
LayerCount: 2
Back
SplineSet
-90.8203 617.676 m 5
 528.32 617.676 l 5
 528.32 526.855 l 5
 -90.8203 526.855 l 5
 -90.8203 617.676 l 5
EndSplineSet
Fore
SplineSet
100.656 323 m 1
 86.1826 349 l 1
 135.235 401 204.1 438 276.1 438 c 3
 413.1 438 467.119 344 442.676 229 c 0
 410.367 77 281.662 -11 186.662 -11 c 3
 54.6621 -11 36.8545 84 54.71 168 c 0
 57.0479 179 65.3232 185 76.3232 185 c 2
 345.323 185 l 1
 376.994 334 299.559 379 243.559 379 c 3
 188.559 379 143.733 361 100.656 323 c 1
332.971 141 m 1
 151.971 141 l 2
 141.971 141 136.907 136 134.995 127 c 0
 119.053 52 159.164 29 195.164 29 c 3
 218.164 29 293.864 37 332.971 141 c 1
368.795 573 m 0
 374.108 598 399.572 619 424.572 619 c 3
 449.572 619 466.108 598 460.795 573 c 0
 455.481 548 430.018 527 405.018 527 c 3
 380.018 527 363.481 548 368.795 573 c 0
208.795 573 m 0
 214.108 598 239.572 619 264.572 619 c 3
 289.572 619 306.108 598 300.795 573 c 0
 295.481 548 270.018 527 245.018 527 c 3
 220.018 527 203.481 548 208.795 573 c 0
EndSplineSet
LCarets2: 1 0 
Colour: ff00ff
EndChar

StartChar: uni04E0
Encoding: 1248 1248 118
Width: 608
VWidth: 999
Flags: HW
HStem: -211 37<215 357> 605 39<141 167 167 446>
VStem: 475 89<-42 146>
DStem2: 250 252 367 288 0.48636 0.873758<88.8042 404.592>
LayerCount: 2
Fore
SplineSet
304.099 645 m 1
 659.099 645 l 2
 680.099 645 685.823 639 684.123 631 c 0
 681.998 621 672.597 605 660.408 590 c 2
 428.216 288 l 1
 556.478 261 598.435 162 574.841 51 c 0
 545.295 -88 387.15 -211 227.15 -211 c 0
 147.15 -211 4.58984 -176 18.6191 -110 c 0
 23.5078 -87 39.2471 -60 73.2471 -60 c 0
 100.247 -60 125.271 -74 133.807 -95 c 0
 155.392 -144 199.016 -174 254.016 -174 c 0
 341.016 -174 463.734 -53 483.928 42 c 0
 517.724 201 414.202 255 345.202 255 c 0
 329.202 255 318.202 255 303.564 252 c 1
 574.597 605 l 1
 325.597 605 l 2
 251.384 604 204.742 521 191.39 477 c 1
 165.814 479 l 1
 226.775 667 l 1
 248.713 662 280.099 645 304.099 645 c 1
EndSplineSet
Colour: ff00ff
EndChar

StartChar: uni04E1
Encoding: 1249 1249 119
Width: 416
VWidth: 999
Flags: HW
HStem: -235 35<149 244> 103 34<216 268> 395 34<107 295>
VStem: 40 27<303 337> 312 81<-120 61>
DStem2: 127 107 216 137 0.505072 0.863077<70.4402 332.658>
LayerCount: 2
Fore
SplineSet
149.743 107 m 1
 378.96 395 l 1
 233.96 395 l 2
 203.96 395 165.496 374 129.979 301 c 1
 104.617 304 l 1
 123.032 353 138.385 397 148.95 442 c 1
 173.95 442 l 1
 174.675 436 182.187 429 197.187 429 c 2
 400.187 429 l 18
 429.187 429 466.462 435 468.462 435 c 0
 475.462 435 481.037 433 480.187 429 c 0
 479.337 425 470.998 414 449.26 387 c 2
 245.12 137 l 1
 341.12 137 410.854 84 388.324 -22 c 0
 363.029 -141 258.049 -235 135.049 -235 c 0
 50.0488 -235 5.01562 -174 11.8174 -142 c 0
 15.6426 -124 29.4688 -106 51.4688 -106 c 0
 74.4688 -106 85.3438 -116 88.2422 -140 c 0
 91.5654 -162 110.488 -200 150.488 -200 c 0
 200.488 -200 280.967 -146 303.923 -38 c 0
 325.391 63 302.894 103 224.894 103 c 0
 213.894 103 182.405 96 163.556 92 c 1
 149.743 107 l 1
EndSplineSet
Colour: ff00ff
EndChar

StartChar: uni04E6
Encoding: 1254 1254 120
Width: 721
VWidth: 999
Flags: HW
HStem: -10 44<287.518 460.882> 614 44<261.342 446.336> 706 90<218.481 295.519 408.301 484.653>
VStem: 42 103<199.871 439.073> 212 90<712.481 789.519> 401 91<713.347 789.699> 576 103<198.639 454.348>
LayerCount: 2
Fore
SplineSet
748.931 329 m 4
 706.42 129 547.874 -10 356.874 -10 c 7
 184.874 -10 66.0186 113 107.893 310 c 4
 149.554 506 318.862 658 497.862 658 c 7
 677.862 658 791.018 527 748.931 329 c 4
475.51 614 m 7
 379.51 614 259.143 537 214.506 327 c 4
 173.695 135 266.227 34 386.227 34 c 7
 500.227 34 603.845 131 641.893 310 c 4
 686.104 518 616.51 614 475.51 614 c 7
368.843 752 m 4
 374.369 778 401.045 800 427.045 800 c 7
 453.045 800 470.369 778 464.843 752 c 4
 459.316 726 432.64 704 406.64 704 c 7
 380.64 704 363.316 726 368.843 752 c 4
557.843 752 m 4
 563.369 778 590.045 800 616.045 800 c 7
 642.045 800 659.369 778 653.843 752 c 4
 648.316 726 621.64 704 595.64 704 c 7
 569.64 704 552.316 726 557.843 752 c 4
EndSplineSet
LCarets2: 1 0 
Colour: ff00ff
EndChar

StartChar: uni04E7
Encoding: 1255 1255 121
Width: 510
VWidth: 999
Flags: HW
HStem: -10 41<204.375 329.082> 398 41<186.898 318.163> 528 92<135.347 212.653 295.347 372.653>
VStem: 36 90<124.397 311.463> 128 92<535.347 612.653> 288 92<535.347 612.653> 384 90<116.419 317.676>
LayerCount: 2
Back
SplineSet
518.555 502.441 m 5
 489.746 549.316 452.148 594.727 417.48 632.324 c 5
 437.988 645.508 l 5
 477.051 616.699 509.277 591.309 543.457 555.176 c 5
 580.566 593.262 614.258 618.652 651.367 645.508 c 5
 670.41 632.324 l 5
 635.742 592.773 597.656 548.34 568.359 502.441 c 5
 518.555 502.441 l 5
-202.637 647.949 m 5
 -200.684 596.68 -154.297 556.152 -93.75 556.152 c 4
 -47.8516 556.152 11.7188 585.938 14.1602 647.949 c 5
 40.5273 634.277 l 5
 30.7617 533.691 -43.9453 499.023 -93.75 499.023 c 4
 -171.387 499.023 -222.168 556.641 -229.492 634.277 c 5
 -202.637 647.949 l 5
151.855 645.508 m 5
 180.664 598.633 217.285 555.664 252.93 515.625 c 5
 232.422 502.441 l 5
 193.359 531.25 159.668 556.152 125.977 592.285 c 5
 88.8672 554.199 56.1523 529.297 19.043 502.441 c 5
 -0.488281 515.625 l 5
 34.668 555.176 72.7539 599.609 102.051 645.508 c 5
 151.855 645.508 l 5
-90.5762 664.062 m 5
 528.076 664.062 l 5
 528.076 500.732 l 5
 -90.5762 500.732 l 5
 -90.5762 664.062 l 5
446.289 662.598 m 21
 449.707 664.062 456.055 665.039 460.938 665.039 c 4
 488.936 665.039 501.382 654.214 509.766 646.704 c 4
 512.07 644.639 514.121 642.856 516.113 641.602 c 5
 518.555 630.859 l 5
 403.809 521.973 l 6
 388.184 507.324 381.348 502.441 375 502.441 c 4
 367.188 502.441 360.352 507.974 360.352 514.487 c 4
 360.352 519.858 360.443 527.246 366.699 537.109 c 6
 446.289 662.598 l 21
-90.5762 616.211 m 5
 528.076 616.211 l 5
 528.076 525.635 l 5
 -90.5762 525.635 l 5
 -90.5762 616.211 l 5
87.8906 570.801 m 4
 87.8906 595.703 108.398 616.211 133.301 616.211 c 4
 158.203 616.211 178.711 595.703 178.711 570.801 c 4
 178.711 545.898 158.203 525.391 133.301 525.391 c 4
 108.398 525.391 87.8906 545.898 87.8906 570.801 c 4
248.535 570.801 m 4
 248.535 595.703 269.043 616.211 293.945 616.211 c 4
 318.848 616.211 339.355 595.703 339.355 570.801 c 4
 339.355 545.898 318.848 525.391 293.945 525.391 c 4
 269.043 525.391 248.535 545.898 248.535 570.801 c 4
EndSplineSet
Fore
SplineSet
410.008 574 m 0
 415.321 599 440.785 620 465.785 620 c 3
 490.785 620 507.321 599 502.008 574 c 0
 496.693 549 471.229 528 446.229 528 c 3
 421.229 528 404.693 549 410.008 574 c 0
250.008 574 m 0
 255.321 599 280.785 620 305.785 620 c 3
 330.785 620 347.321 599 342.008 574 c 0
 336.693 549 311.229 528 286.229 528 c 3
 261.229 528 244.693 549 250.008 574 c 0
334.598 398 m 7
 248.598 398 192.955 315 174.463 228 c 4
 158.096 151 171.589 31 275.589 31 c 7
 320.589 31 397.391 63 423.748 187 c 4
 454.994 334 419.598 398 334.598 398 c 7
79.5742 205 m 4
 108.694 342 219.312 439 350.312 439 c 7
 507.312 439 541.593 318 519.487 214 c 4
 496.743 107 395.874 -10 252.874 -10 c 7
 114.874 -10 56.1934 95 79.5742 205 c 4
EndSplineSet
LCarets2: 1 0 
Colour: ff00ff
EndChar

StartChar: uni04E8
Encoding: 1256 1256 122
Width: 721
VWidth: 999
Flags: HW
HStem: -10 44<287.518 460.882> 266 57<387.324 534.392> 312 58<177.336 340.102> 614 44<261.342 446.336>
VStem: 42 103<199.871 439.073> 576 103<198.639 454.348>
LayerCount: 2
Back
SplineSet
592.285 296.875 m 5
 107.422 296.875 l 5
 107.422 353.027 l 5
 590.82 353.027 l 5
 592.285 296.875 l 5
EndSplineSet
Fore
SplineSet
748.931 329 m 4
 706.42 129 547.874 -10 356.874 -10 c 7
 184.874 -10 66.0186 113 107.893 310 c 4
 149.554 506 318.862 658 497.862 658 c 7
 677.862 658 791.018 527 748.931 329 c 4
475.51 614 m 7
 379.51 614 259.143 537 214.506 327 c 4
 173.695 135 266.227 34 386.227 34 c 7
 500.227 34 603.845 131 641.893 310 c 4
 686.104 518 616.51 614 475.51 614 c 7
321.317 312 m 0xbc
 284.317 312 207.617 304 170.689 262 c 1
 157.815 272 l 1
 186.27 340 297.646 370 351.646 370 c 0xbc
 449.646 370 469.656 323 532.656 323 c 0
 570.656 323 633.481 341 671.496 374 c 1
 689.945 362 l 1
 627.791 286 552.54 266 502.54 266 c 0xdc
 410.54 266 396.317 312 321.317 312 c 0xbc
EndSplineSet
Colour: ff00ff
EndChar

StartChar: uni04E9
Encoding: 1257 1257 123
Width: 510
VWidth: 999
Flags: HMW
HStem: -12 36<202 328> 179 49<204 349> 207 42<118 238> 409 33<183 304>
VStem: 44 79<124 320> 377 79<113 318>
AnchorPoint: "unten_punkt" 223.257 -107 basechar 0
AnchorPoint: "top_punkt" 361.906 550 basechar 0
AnchorPoint: "top_akzent" 373.099 645 basechar 0
LayerCount: 2
Fore
SplineSet
334.598 398 m 7
 248.598 398 192.955 315 174.463 228 c 4
 158.096 151 171.589 31 275.589 31 c 7
 320.589 31 397.391 63 423.748 187 c 4
 454.994 334 419.598 398 334.598 398 c 7
79.5742 205 m 4
 108.694 342 219.312 439 350.312 439 c 7
 507.312 439 541.593 318 519.487 214 c 4
 496.743 107 395.874 -10 252.874 -10 c 7
 114.874 -10 56.1934 95 79.5742 205 c 4
426.55 219 m 1xdc
 404.787 206 353.048 179 312.048 179 c 0xdc
 269.048 179 240.999 207 205.999 207 c 0
 193.999 207 161.512 200 154.512 200 c 0
 147.512 200 148.425 209 149.274 213 c 0
 152.463 228 222.927 249 265.927 249 c 0xbc
 310.927 249 328.676 229 366.676 229 c 0
 388.676 229 412.376 237 428.864 244 c 1
 426.55 219 l 1xdc
EndSplineSet
Colour: ff80cc
EndChar

StartChar: uni04EA
Encoding: 1258 1258 124
Width: 721
VWidth: 999
Flags: HW
HStem: -10 44<287.518 460.882> 266 57<387.324 534.392> 312 58<177.336 340.102> 614 44<261.342 446.336> 708 90<215.481 292.519 405.301 481.653>
VStem: 42 103<199.871 439.073> 209 90<714.481 791.519> 398 91<715.347 791.699> 576 103<198.639 454.348>
LayerCount: 2
Fore
SplineSet
748.931 329 m 4
 706.42 129 547.874 -10 356.874 -10 c 7
 184.874 -10 66.0186 113 107.893 310 c 4
 149.554 506 318.862 658 497.862 658 c 7
 677.862 658 791.018 527 748.931 329 c 4
475.51 614 m 7
 379.51 614 259.143 537 214.506 327 c 4
 173.695 135 266.227 34 386.227 34 c 7
 500.227 34 603.845 131 641.893 310 c 4
 686.104 518 616.51 614 475.51 614 c 7
321.317 312 m 0xbc
 284.317 312 207.617 304 170.689 262 c 1
 157.815 272 l 1
 186.27 340 297.646 370 351.646 370 c 0xbc
 449.646 370 469.656 323 532.656 323 c 0
 570.656 323 633.481 341 671.496 374 c 1
 689.945 362 l 1
 627.791 286 552.54 266 502.54 266 c 0xdc
 410.54 266 396.317 312 321.317 312 c 0xbc
366.268 754 m 4
 371.794 780 398.471 802 424.471 802 c 7
 450.471 802 467.794 780 462.268 754 c 4
 456.741 728 430.064 706 404.064 706 c 7
 378.064 706 360.741 728 366.268 754 c 4
555.268 754 m 4
 560.794 780 587.471 802 613.471 802 c 7
 639.471 802 656.794 780 651.268 754 c 4
 645.741 728 619.064 706 593.064 706 c 7
 567.064 706 549.741 728 555.268 754 c 4
EndSplineSet
LCarets2: 1 0 
Colour: ff00ff
EndChar

StartChar: uni04EB
Encoding: 1259 1259 125
Width: 510
VWidth: 999
Flags: HW
HStem: -12 36<202 328> 179 49<204 349> 207 42<118 238> 409 33<183 304> 527 92<137.347 214.653 297.347 374.653>
VStem: 44 79<124 320> 130 92<534.347 611.653> 290 92<534.347 611.653> 377 79<113 318>
LayerCount: 2
Back
SplineSet
-90.8203 617.676 m 5
 528.32 617.676 l 5
 528.32 526.855 l 5
 -90.8203 526.855 l 5
 -90.8203 617.676 l 5
EndSplineSet
Fore
SplineSet
411.795 573 m 0
 417.108 598 442.572 619 467.572 619 c 3
 492.572 619 509.108 598 503.795 573 c 0
 498.481 548 473.018 527 448.018 527 c 3
 423.018 527 406.481 548 411.795 573 c 0
251.795 573 m 0
 257.108 598 282.572 619 307.572 619 c 3
 332.572 619 349.108 598 343.795 573 c 0
 338.481 548 313.018 527 288.018 527 c 3
 263.018 527 246.481 548 251.795 573 c 0
334.598 398 m 7
 248.598 398 192.955 315 174.463 228 c 4
 158.096 151 171.589 31 275.589 31 c 7
 320.589 31 397.391 63 423.748 187 c 4
 454.994 334 419.598 398 334.598 398 c 7
79.5742 205 m 4
 108.694 342 219.312 439 350.312 439 c 7
 507.312 439 541.593 318 519.487 214 c 4
 496.743 107 395.874 -10 252.874 -10 c 7
 114.874 -10 56.1934 95 79.5742 205 c 4
426.55 219 m 1xdc
 404.787 206 353.048 179 312.048 179 c 0xdc
 269.048 179 240.999 207 205.999 207 c 0
 193.999 207 161.512 200 154.512 200 c 0
 147.512 200 148.425 209 149.274 213 c 0
 152.463 228 222.927 249 265.927 249 c 0xbc
 310.927 249 328.676 229 366.676 229 c 0
 388.676 229 412.376 237 428.864 244 c 1
 426.55 219 l 1xdc
EndSplineSet
LCarets2: 1 0 
Colour: ff00ff
EndChar

StartChar: uni04EF
Encoding: 1263 1263 126
Width: 486
VWidth: 999
Flags: HW
HStem: 412 20<25 37.8974 112.5 137.704 367.982 391 451.5 463> 538 44<111.088 389.515>
VStem: 18 101<384.934 432> 89 84<-246 -210.595> 110 281<538.205 582>
LayerCount: 2
Back
SplineSet
326.66 538.574 m 6
 -70.3125 538.574 l 6
 -78.2227 538.574 -81.2988 546.387 -81.2988 553.223 c 4
 -81.2988 564.941 -72.0703 582.52 -61.5234 582.52 c 6
 335.449 582.52 l 6
 344.238 582.52 347.754 574.707 347.754 567.871 c 4
 347.754 556.152 338.085 538.574 326.66 538.574 c 6
EndSplineSet
Fore
SplineSet
481.355 538 m 2
 237.355 538 l 2
 228.355 538 226.056 546 227.544 553 c 0
 230.095 565 244.708 582 255.708 582 c 2
 500.708 582 l 2
 510.708 582 513.008 574 511.732 568 c 0
 509.182 556 494.355 538 481.355 538 c 2
109.824 432 m 1xe0
 123.187 429 148.187 429 161.187 429 c 0
 175.187 429 197.187 429 210.824 432 c 1xe0
 223.96 317.804 247.375 206.516 271.296 87.6396 c 1
 273.296 87.6396 l 1
 343.94 191.242 417.772 319.019 477.824 432 c 1
 487.187 429 506.187 429 516.187 429 c 0
 526.187 429 549.187 429 559.824 432 c 1
 512.583 365 192.193 -112 127.624 -237 c 1
 118.262 -234 89.6865 -232 79.6865 -232 c 0
 69.6865 -232 54.2617 -234 43.624 -237 c 1xd0
 104.823 -161.683 153.896 -93.8047 201.779 -19.1484 c 1
 186.576 75.9375 130.75 343.227 109.824 432 c 1xe0
EndSplineSet
LCarets2: 1 0 
Colour: ff00ff
EndChar

StartChar: uni04F1
Encoding: 1265 1265 127
Width: 486
VWidth: 999
Flags: HW
HStem: 412 20<25 37.8974 112.5 137.704 367.982 391 451.5 463> 527 92<142.347 219.653 302.347 379.653>
VStem: 18 101<384.934 432> 89 84<-246 -210.595> 135 92<534.347 611.653> 295 92<534.347 611.653>
LayerCount: 2
Back
SplineSet
-90.8203 617.676 m 5
 528.32 617.676 l 5
 528.32 526.855 l 5
 -90.8203 526.855 l 5
 -90.8203 617.676 l 5
EndSplineSet
Fore
SplineSet
416.795 573 m 0
 422.108 598 447.572 619 472.572 619 c 3
 497.572 619 514.108 598 508.795 573 c 0
 503.481 548 478.018 527 453.018 527 c 3
 428.018 527 411.481 548 416.795 573 c 0
256.795 573 m 0
 262.108 598 287.572 619 312.572 619 c 3
 337.572 619 354.108 598 348.795 573 c 0
 343.481 548 318.018 527 293.018 527 c 3
 268.018 527 251.481 548 256.795 573 c 0
109.824 432 m 1xe0
 123.187 429 148.187 429 161.187 429 c 0
 175.187 429 197.187 429 210.824 432 c 1xe0
 223.96 317.804 247.375 206.516 271.296 87.6396 c 1
 273.296 87.6396 l 1
 343.94 191.242 417.772 319.019 477.824 432 c 1
 487.187 429 506.187 429 516.187 429 c 0
 526.187 429 549.187 429 559.824 432 c 1
 512.583 365 192.193 -112 127.624 -237 c 1
 118.262 -234 89.6865 -232 79.6865 -232 c 0
 69.6865 -232 54.2617 -234 43.624 -237 c 1xd0
 104.823 -161.683 153.896 -93.8047 201.779 -19.1484 c 1
 186.576 75.9375 130.75 343.227 109.824 432 c 1xe0
EndSplineSet
LCarets2: 1 0 
Colour: ff00ff
EndChar

StartChar: uni04F3
Encoding: 1267 1267 128
Width: 486
VWidth: 999
Flags: HW
HStem: 412 20<25 37.8974 112.5 137.704 367.982 391 451.5 463>
VStem: 18 101<384.934 432> 89 84<-246 -210.595>
LayerCount: 2
Fore
SplineSet
443.998 621 m 0
 442.935 616 440.659 610 435.597 605 c 2
 307.877 484 l 2
 305.452 482 302.239 481 299.239 481 c 3
 293.239 481 286.303 486 288.003 494 c 0
 288.216 495 288.428 496 289.641 497 c 2
 384.674 643 l 2
 393.438 656 409.649 657 413.649 657 c 3
 434.523 657 448.354 641.496 443.998 621 c 0
574.723 615 m 0
 573.447 609 570.959 602 563.684 596 c 2
 426.303 486 l 2
 423.877 484 421.877 484 419.877 484 c 3
 414.877 484 406.94 489 408.641 497 c 0
 408.854 498 409.278 500 410.491 501 c 2
 518.036 640 l 2
 524.949 649 532.587 652 544.587 652 c 3
 565.537 652 578.676 633.6 574.723 615 c 0
109.824 432 m 1xe0
 123.187 429 148.187 429 161.187 429 c 0
 175.187 429 197.187 429 210.824 432 c 1xe0
 223.96 317.804 247.375 206.516 271.296 87.6396 c 1
 273.296 87.6396 l 1
 343.94 191.242 417.772 319.019 477.824 432 c 1
 487.187 429 506.187 429 516.187 429 c 0
 526.187 429 549.187 429 559.824 432 c 1
 512.583 365 192.193 -112 127.624 -237 c 1
 118.262 -234 89.6865 -232 79.6865 -232 c 0
 69.6865 -232 54.2617 -234 43.624 -237 c 1xd0
 104.823 -161.683 153.896 -93.8047 201.779 -19.1484 c 1
 186.576 75.9375 130.75 343.227 109.824 432 c 1xe0
EndSplineSet
LCarets2: 1 0 
Colour: ff00ff
EndChar

StartChar: uni1E00
Encoding: 7680 7680 129
Width: 633
VWidth: 999
Flags: HW
HStem: -215 27<274.238 341.262> -76 27<273.737 342.086> -3 21<24 68.5 92 115.444 500.087 513.5 590 606.5> 230 44<188.935 310> 638 20<265 387>
VStem: 222 32<-170.178 -92.558> 362 31<-169.958 -93.519>
LayerCount: 2
Fore
SplineSet
250.331 275.992 m 5
 282.289 275.855 331.458 274 363.24 274 c 4
 397.352 274 447.616 274.95 481.982 275.924 c 5
 484.147 228.081 l 5
 444.464 229.054 399.749 230 358.888 230 c 4
 322.079 230 260.069 229.049 222.147 228.081 c 5
 222.147 228.081 249.774 275.992 250.331 275.992 c 5
416.937 521.764 m 5
 309.603 354.739 160.059 127.827 97.3623 -3 c 5
 86 0 64 0 53 0 c 4
 42 0 30 0 17.3623 -3 c 5
 165.337 218 309.675 436 452.862 658 c 5
 480.862 658 l 5
 526.312 439 585.83 98 614.362 -3 c 5
 598 0 572 0 555 0 c 4
 538 0 522 0 504.362 -3 c 5
 502.078 32.4844 488.094 210.993 418.937 521.764 c 5
 416.937 521.764 l 5
192.942 -132 m 4
 202.72 -86 251.585 -49 297.585 -49 c 7
 343.585 -49 376.933 -85 366.942 -132 c 4
 357.378 -177 310.301 -215 262.301 -215 c 7
 216.301 -215 183.165 -178 192.942 -132 c 4
291.846 -76 m 7
 260.846 -76 236.319 -102 229.942 -132 c 4
 223.991 -160 237.039 -188 268.039 -188 c 7
 299.039 -188 323.991 -160 329.942 -132 c 4
 336.532 -101 321.846 -76 291.846 -76 c 7
EndSplineSet
LCarets2: 1 0 
Colour: ff00ff
EndChar

StartChar: uni1E01
Encoding: 7681 7681 130
Width: 461
VWidth: 999
Flags: HW
HStem: -216 27<190.238 257.262> -77 27<189.737 258.086> -10 51<138.029 242.029 327.75 409.627> 394 45<147.355 264.803>
VStem: 42 81<56.8026 162.817> 138 32<-171.178 -93.558> 278 31<-170.958 -94.519> 293 79.07<81.0426 223 264.049 363.451>
DStem2: 199 243 212 202 0.972687 0.232119<-72.5363 85.8176>
LayerCount: 2
Fore
SplineSet
384.154 76 m 0
 379.903 56 382.565 45 393.565 45 c 3
 407.565 45 423.541 59 434.028 66 c 1
 436.604 64 l 1
 448.14 43 l 1
 408.638 3 379.874 -10 348.874 -10 c 3
 301.874 -10 299.802 32 301.203 48 c 1
 299.203 48 l 1
 239.638 3 209.874 -10 157.874 -10 c 3
 87.874 -10 47.1016 24 62.8301 98 c 0
 77.2842 166 149.763 220 250.651 243 c 2
 343.115 264 l 2
 346.327 265 350.178 269 351.666 276 c 0
 375.685 389 320.747 394 286.747 394 c 3
 241.747 394 190.395 350 154.83 305 c 1
 142.042 306 l 1
 140.283 373 l 1
 144.134 377 l 1
 172.598 398 233.312 439 305.312 439 c 3
 377.312 439 459.573 412 430.878 277 c 0
 428.54 266 390.318 105 384.154 76 c 0
339.4 223 m 1
 254.937 202 l 2
 176.897 183 154.246 147 144.681 102 c 0
 138.092 71 155.715 41 197.715 41 c 3
 225.715 41 262.391 63 292.854 84 c 0
 302.13 90 309.618 97 312.381 110 c 2
 339.4 223 l 1
108.729 -133 m 4
 118.508 -87 167.372 -50 213.372 -50 c 7
 259.372 -50 292.72 -86 282.729 -133 c 4
 273.165 -178 226.088 -216 178.088 -216 c 7
 132.088 -216 98.9521 -179 108.729 -133 c 4
207.633 -77 m 7
 176.633 -77 152.106 -103 145.729 -133 c 4
 139.778 -161 152.827 -189 183.827 -189 c 7
 214.827 -189 239.778 -161 245.729 -133 c 4
 252.319 -102 237.633 -77 207.633 -77 c 7
EndSplineSet
LCarets2: 1 0 
Colour: ff00ff
EndChar

